%TF.GenerationSoftware,KiCad,Pcbnew,9.0.1-9.0.1-0~ubuntu24.04.1*%
%TF.CreationDate,2025-04-24T15:40:08+00:00*%
%TF.ProjectId,growbeam,67726f77-6265-4616-9d2e-6b696361645f,rev?*%
%TF.SameCoordinates,Original*%
%TF.FileFunction,Legend,Top*%
%TF.FilePolarity,Positive*%
%FSLAX46Y46*%
G04 Gerber Fmt 4.6, Leading zero omitted, Abs format (unit mm)*
G04 Created by KiCad (PCBNEW 9.0.1-9.0.1-0~ubuntu24.04.1) date 2025-04-24 15:40:08*
%MOMM*%
%LPD*%
G01*
G04 APERTURE LIST*
G04 Aperture macros list*
%AMRoundRect*
0 Rectangle with rounded corners*
0 $1 Rounding radius*
0 $2 $3 $4 $5 $6 $7 $8 $9 X,Y pos of 4 corners*
0 Add a 4 corners polygon primitive as box body*
4,1,4,$2,$3,$4,$5,$6,$7,$8,$9,$2,$3,0*
0 Add four circle primitives for the rounded corners*
1,1,$1+$1,$2,$3*
1,1,$1+$1,$4,$5*
1,1,$1+$1,$6,$7*
1,1,$1+$1,$8,$9*
0 Add four rect primitives between the rounded corners*
20,1,$1+$1,$2,$3,$4,$5,0*
20,1,$1+$1,$4,$5,$6,$7,0*
20,1,$1+$1,$6,$7,$8,$9,0*
20,1,$1+$1,$8,$9,$2,$3,0*%
%AMFreePoly0*
4,1,27,1.750191,0.625462,1.750462,0.625191,1.750500,0.625000,1.750500,0.075000,1.750462,0.074809,1.750191,0.074538,1.750000,0.074500,1.400500,0.074500,1.400500,-0.625000,1.400462,-0.625191,1.400191,-0.625462,1.400000,-0.625500,-1.400000,-0.625500,-1.400191,-0.625462,-1.400462,-0.625191,-1.400500,-0.625000,-1.400500,0.074500,-1.750000,0.074500,-1.750191,0.074538,-1.750462,0.074809,
-1.750500,0.075000,-1.750500,0.625000,-1.750462,0.625191,-1.750191,0.625462,-1.750000,0.625500,1.750000,0.625500,1.750191,0.625462,1.750191,0.625462,$1*%
G04 Aperture macros list end*
%ADD10C,0.300000*%
%ADD11C,0.500000*%
%ADD12C,0.100000*%
%ADD13C,0.150000*%
%ADD14C,0.120000*%
%ADD15FreePoly0,270.000000*%
%ADD16FreePoly0,90.000000*%
%ADD17C,5.500000*%
%ADD18RoundRect,0.250000X-0.312500X-0.625000X0.312500X-0.625000X0.312500X0.625000X-0.312500X0.625000X0*%
%ADD19RoundRect,0.100000X-0.385000X-0.850000X0.385000X-0.850000X0.385000X0.850000X-0.385000X0.850000X0*%
%ADD20RoundRect,0.100000X-0.915000X-0.850000X0.915000X-0.850000X0.915000X0.850000X-0.915000X0.850000X0*%
%ADD21RoundRect,0.250000X0.625000X-0.312500X0.625000X0.312500X-0.625000X0.312500X-0.625000X-0.312500X0*%
%ADD22RoundRect,0.250000X-0.625000X0.312500X-0.625000X-0.312500X0.625000X-0.312500X0.625000X0.312500X0*%
G04 APERTURE END LIST*
D10*
X215554510Y-77229400D02*
X216697368Y-77229400D01*
X216125939Y-77800828D02*
X216125939Y-76657971D01*
X79554510Y-77229400D02*
X80697368Y-77229400D01*
X80125939Y-77800828D02*
X80125939Y-76657971D01*
D11*
X79233708Y-89287095D02*
X78995613Y-89168047D01*
X78995613Y-89168047D02*
X78638470Y-89168047D01*
X78638470Y-89168047D02*
X78281327Y-89287095D01*
X78281327Y-89287095D02*
X78043232Y-89525190D01*
X78043232Y-89525190D02*
X77924185Y-89763285D01*
X77924185Y-89763285D02*
X77805137Y-90239476D01*
X77805137Y-90239476D02*
X77805137Y-90596619D01*
X77805137Y-90596619D02*
X77924185Y-91072809D01*
X77924185Y-91072809D02*
X78043232Y-91310904D01*
X78043232Y-91310904D02*
X78281327Y-91549000D01*
X78281327Y-91549000D02*
X78638470Y-91668047D01*
X78638470Y-91668047D02*
X78876566Y-91668047D01*
X78876566Y-91668047D02*
X79233708Y-91549000D01*
X79233708Y-91549000D02*
X79352756Y-91429952D01*
X79352756Y-91429952D02*
X79352756Y-90596619D01*
X79352756Y-90596619D02*
X78876566Y-90596619D01*
X80424185Y-91668047D02*
X80424185Y-90001380D01*
X80424185Y-90477571D02*
X80543232Y-90239476D01*
X80543232Y-90239476D02*
X80662280Y-90120428D01*
X80662280Y-90120428D02*
X80900375Y-90001380D01*
X80900375Y-90001380D02*
X81138470Y-90001380D01*
X82328946Y-91668047D02*
X82090851Y-91549000D01*
X82090851Y-91549000D02*
X81971804Y-91429952D01*
X81971804Y-91429952D02*
X81852756Y-91191857D01*
X81852756Y-91191857D02*
X81852756Y-90477571D01*
X81852756Y-90477571D02*
X81971804Y-90239476D01*
X81971804Y-90239476D02*
X82090851Y-90120428D01*
X82090851Y-90120428D02*
X82328946Y-90001380D01*
X82328946Y-90001380D02*
X82686089Y-90001380D01*
X82686089Y-90001380D02*
X82924185Y-90120428D01*
X82924185Y-90120428D02*
X83043232Y-90239476D01*
X83043232Y-90239476D02*
X83162280Y-90477571D01*
X83162280Y-90477571D02*
X83162280Y-91191857D01*
X83162280Y-91191857D02*
X83043232Y-91429952D01*
X83043232Y-91429952D02*
X82924185Y-91549000D01*
X82924185Y-91549000D02*
X82686089Y-91668047D01*
X82686089Y-91668047D02*
X82328946Y-91668047D01*
X83995613Y-90001380D02*
X84471804Y-91668047D01*
X84471804Y-91668047D02*
X84947994Y-90477571D01*
X84947994Y-90477571D02*
X85424185Y-91668047D01*
X85424185Y-91668047D02*
X85900375Y-90001380D01*
X87686090Y-90358523D02*
X88043233Y-90477571D01*
X88043233Y-90477571D02*
X88162280Y-90596619D01*
X88162280Y-90596619D02*
X88281328Y-90834714D01*
X88281328Y-90834714D02*
X88281328Y-91191857D01*
X88281328Y-91191857D02*
X88162280Y-91429952D01*
X88162280Y-91429952D02*
X88043233Y-91549000D01*
X88043233Y-91549000D02*
X87805138Y-91668047D01*
X87805138Y-91668047D02*
X86852757Y-91668047D01*
X86852757Y-91668047D02*
X86852757Y-89168047D01*
X86852757Y-89168047D02*
X87686090Y-89168047D01*
X87686090Y-89168047D02*
X87924185Y-89287095D01*
X87924185Y-89287095D02*
X88043233Y-89406142D01*
X88043233Y-89406142D02*
X88162280Y-89644238D01*
X88162280Y-89644238D02*
X88162280Y-89882333D01*
X88162280Y-89882333D02*
X88043233Y-90120428D01*
X88043233Y-90120428D02*
X87924185Y-90239476D01*
X87924185Y-90239476D02*
X87686090Y-90358523D01*
X87686090Y-90358523D02*
X86852757Y-90358523D01*
X90305138Y-91549000D02*
X90067042Y-91668047D01*
X90067042Y-91668047D02*
X89590852Y-91668047D01*
X89590852Y-91668047D02*
X89352757Y-91549000D01*
X89352757Y-91549000D02*
X89233709Y-91310904D01*
X89233709Y-91310904D02*
X89233709Y-90358523D01*
X89233709Y-90358523D02*
X89352757Y-90120428D01*
X89352757Y-90120428D02*
X89590852Y-90001380D01*
X89590852Y-90001380D02*
X90067042Y-90001380D01*
X90067042Y-90001380D02*
X90305138Y-90120428D01*
X90305138Y-90120428D02*
X90424185Y-90358523D01*
X90424185Y-90358523D02*
X90424185Y-90596619D01*
X90424185Y-90596619D02*
X89233709Y-90834714D01*
X92567042Y-91668047D02*
X92567042Y-90358523D01*
X92567042Y-90358523D02*
X92447995Y-90120428D01*
X92447995Y-90120428D02*
X92209899Y-90001380D01*
X92209899Y-90001380D02*
X91733709Y-90001380D01*
X91733709Y-90001380D02*
X91495614Y-90120428D01*
X92567042Y-91549000D02*
X92328947Y-91668047D01*
X92328947Y-91668047D02*
X91733709Y-91668047D01*
X91733709Y-91668047D02*
X91495614Y-91549000D01*
X91495614Y-91549000D02*
X91376566Y-91310904D01*
X91376566Y-91310904D02*
X91376566Y-91072809D01*
X91376566Y-91072809D02*
X91495614Y-90834714D01*
X91495614Y-90834714D02*
X91733709Y-90715666D01*
X91733709Y-90715666D02*
X92328947Y-90715666D01*
X92328947Y-90715666D02*
X92567042Y-90596619D01*
X93757519Y-91668047D02*
X93757519Y-90001380D01*
X93757519Y-90239476D02*
X93876566Y-90120428D01*
X93876566Y-90120428D02*
X94114661Y-90001380D01*
X94114661Y-90001380D02*
X94471804Y-90001380D01*
X94471804Y-90001380D02*
X94709900Y-90120428D01*
X94709900Y-90120428D02*
X94828947Y-90358523D01*
X94828947Y-90358523D02*
X94828947Y-91668047D01*
X94828947Y-90358523D02*
X94947995Y-90120428D01*
X94947995Y-90120428D02*
X95186090Y-90001380D01*
X95186090Y-90001380D02*
X95543233Y-90001380D01*
X95543233Y-90001380D02*
X95781328Y-90120428D01*
X95781328Y-90120428D02*
X95900376Y-90358523D01*
X95900376Y-90358523D02*
X95900376Y-91668047D01*
D12*
X107951905Y-88457419D02*
X107951905Y-87457419D01*
X107951905Y-87457419D02*
X108190000Y-87457419D01*
X108190000Y-87457419D02*
X108332857Y-87505038D01*
X108332857Y-87505038D02*
X108428095Y-87600276D01*
X108428095Y-87600276D02*
X108475714Y-87695514D01*
X108475714Y-87695514D02*
X108523333Y-87885990D01*
X108523333Y-87885990D02*
X108523333Y-88028847D01*
X108523333Y-88028847D02*
X108475714Y-88219323D01*
X108475714Y-88219323D02*
X108428095Y-88314561D01*
X108428095Y-88314561D02*
X108332857Y-88409800D01*
X108332857Y-88409800D02*
X108190000Y-88457419D01*
X108190000Y-88457419D02*
X107951905Y-88457419D01*
X109380476Y-87457419D02*
X109190000Y-87457419D01*
X109190000Y-87457419D02*
X109094762Y-87505038D01*
X109094762Y-87505038D02*
X109047143Y-87552657D01*
X109047143Y-87552657D02*
X108951905Y-87695514D01*
X108951905Y-87695514D02*
X108904286Y-87885990D01*
X108904286Y-87885990D02*
X108904286Y-88266942D01*
X108904286Y-88266942D02*
X108951905Y-88362180D01*
X108951905Y-88362180D02*
X108999524Y-88409800D01*
X108999524Y-88409800D02*
X109094762Y-88457419D01*
X109094762Y-88457419D02*
X109285238Y-88457419D01*
X109285238Y-88457419D02*
X109380476Y-88409800D01*
X109380476Y-88409800D02*
X109428095Y-88362180D01*
X109428095Y-88362180D02*
X109475714Y-88266942D01*
X109475714Y-88266942D02*
X109475714Y-88028847D01*
X109475714Y-88028847D02*
X109428095Y-87933609D01*
X109428095Y-87933609D02*
X109380476Y-87885990D01*
X109380476Y-87885990D02*
X109285238Y-87838371D01*
X109285238Y-87838371D02*
X109094762Y-87838371D01*
X109094762Y-87838371D02*
X108999524Y-87885990D01*
X108999524Y-87885990D02*
X108951905Y-87933609D01*
X108951905Y-87933609D02*
X108904286Y-88028847D01*
X103813905Y-82457419D02*
X103813905Y-81457419D01*
X103813905Y-81457419D02*
X104052000Y-81457419D01*
X104052000Y-81457419D02*
X104194857Y-81505038D01*
X104194857Y-81505038D02*
X104290095Y-81600276D01*
X104290095Y-81600276D02*
X104337714Y-81695514D01*
X104337714Y-81695514D02*
X104385333Y-81885990D01*
X104385333Y-81885990D02*
X104385333Y-82028847D01*
X104385333Y-82028847D02*
X104337714Y-82219323D01*
X104337714Y-82219323D02*
X104290095Y-82314561D01*
X104290095Y-82314561D02*
X104194857Y-82409800D01*
X104194857Y-82409800D02*
X104052000Y-82457419D01*
X104052000Y-82457419D02*
X103813905Y-82457419D01*
X105290095Y-81457419D02*
X104813905Y-81457419D01*
X104813905Y-81457419D02*
X104766286Y-81933609D01*
X104766286Y-81933609D02*
X104813905Y-81885990D01*
X104813905Y-81885990D02*
X104909143Y-81838371D01*
X104909143Y-81838371D02*
X105147238Y-81838371D01*
X105147238Y-81838371D02*
X105242476Y-81885990D01*
X105242476Y-81885990D02*
X105290095Y-81933609D01*
X105290095Y-81933609D02*
X105337714Y-82028847D01*
X105337714Y-82028847D02*
X105337714Y-82266942D01*
X105337714Y-82266942D02*
X105290095Y-82362180D01*
X105290095Y-82362180D02*
X105242476Y-82409800D01*
X105242476Y-82409800D02*
X105147238Y-82457419D01*
X105147238Y-82457419D02*
X104909143Y-82457419D01*
X104909143Y-82457419D02*
X104813905Y-82409800D01*
X104813905Y-82409800D02*
X104766286Y-82362180D01*
X120364905Y-82457419D02*
X120364905Y-81457419D01*
X120364905Y-81457419D02*
X120603000Y-81457419D01*
X120603000Y-81457419D02*
X120745857Y-81505038D01*
X120745857Y-81505038D02*
X120841095Y-81600276D01*
X120841095Y-81600276D02*
X120888714Y-81695514D01*
X120888714Y-81695514D02*
X120936333Y-81885990D01*
X120936333Y-81885990D02*
X120936333Y-82028847D01*
X120936333Y-82028847D02*
X120888714Y-82219323D01*
X120888714Y-82219323D02*
X120841095Y-82314561D01*
X120841095Y-82314561D02*
X120745857Y-82409800D01*
X120745857Y-82409800D02*
X120603000Y-82457419D01*
X120603000Y-82457419D02*
X120364905Y-82457419D01*
X121412524Y-82457419D02*
X121603000Y-82457419D01*
X121603000Y-82457419D02*
X121698238Y-82409800D01*
X121698238Y-82409800D02*
X121745857Y-82362180D01*
X121745857Y-82362180D02*
X121841095Y-82219323D01*
X121841095Y-82219323D02*
X121888714Y-82028847D01*
X121888714Y-82028847D02*
X121888714Y-81647895D01*
X121888714Y-81647895D02*
X121841095Y-81552657D01*
X121841095Y-81552657D02*
X121793476Y-81505038D01*
X121793476Y-81505038D02*
X121698238Y-81457419D01*
X121698238Y-81457419D02*
X121507762Y-81457419D01*
X121507762Y-81457419D02*
X121412524Y-81505038D01*
X121412524Y-81505038D02*
X121364905Y-81552657D01*
X121364905Y-81552657D02*
X121317286Y-81647895D01*
X121317286Y-81647895D02*
X121317286Y-81885990D01*
X121317286Y-81885990D02*
X121364905Y-81981228D01*
X121364905Y-81981228D02*
X121412524Y-82028847D01*
X121412524Y-82028847D02*
X121507762Y-82076466D01*
X121507762Y-82076466D02*
X121698238Y-82076466D01*
X121698238Y-82076466D02*
X121793476Y-82028847D01*
X121793476Y-82028847D02*
X121841095Y-81981228D01*
X121841095Y-81981228D02*
X121888714Y-81885990D01*
D13*
X78666666Y-81704819D02*
X78333333Y-81228628D01*
X78095238Y-81704819D02*
X78095238Y-80704819D01*
X78095238Y-80704819D02*
X78476190Y-80704819D01*
X78476190Y-80704819D02*
X78571428Y-80752438D01*
X78571428Y-80752438D02*
X78619047Y-80800057D01*
X78619047Y-80800057D02*
X78666666Y-80895295D01*
X78666666Y-80895295D02*
X78666666Y-81038152D01*
X78666666Y-81038152D02*
X78619047Y-81133390D01*
X78619047Y-81133390D02*
X78571428Y-81181009D01*
X78571428Y-81181009D02*
X78476190Y-81228628D01*
X78476190Y-81228628D02*
X78095238Y-81228628D01*
X79095238Y-81181009D02*
X79428571Y-81181009D01*
X79571428Y-81704819D02*
X79095238Y-81704819D01*
X79095238Y-81704819D02*
X79095238Y-80704819D01*
X79095238Y-80704819D02*
X79571428Y-80704819D01*
X80333333Y-81181009D02*
X80000000Y-81181009D01*
X80000000Y-81704819D02*
X80000000Y-80704819D01*
X80000000Y-80704819D02*
X80476190Y-80704819D01*
X81000000Y-80704819D02*
X81000000Y-80942914D01*
X80761905Y-80847676D02*
X81000000Y-80942914D01*
X81000000Y-80942914D02*
X81238095Y-80847676D01*
X80857143Y-81133390D02*
X81000000Y-80942914D01*
X81000000Y-80942914D02*
X81142857Y-81133390D01*
X81761905Y-80704819D02*
X81761905Y-80942914D01*
X81523810Y-80847676D02*
X81761905Y-80942914D01*
X81761905Y-80942914D02*
X82000000Y-80847676D01*
X81619048Y-81133390D02*
X81761905Y-80942914D01*
X81761905Y-80942914D02*
X81904762Y-81133390D01*
X110920833Y-89634819D02*
X110587500Y-89158628D01*
X110349405Y-89634819D02*
X110349405Y-88634819D01*
X110349405Y-88634819D02*
X110730357Y-88634819D01*
X110730357Y-88634819D02*
X110825595Y-88682438D01*
X110825595Y-88682438D02*
X110873214Y-88730057D01*
X110873214Y-88730057D02*
X110920833Y-88825295D01*
X110920833Y-88825295D02*
X110920833Y-88968152D01*
X110920833Y-88968152D02*
X110873214Y-89063390D01*
X110873214Y-89063390D02*
X110825595Y-89111009D01*
X110825595Y-89111009D02*
X110730357Y-89158628D01*
X110730357Y-89158628D02*
X110349405Y-89158628D01*
X111301786Y-88730057D02*
X111349405Y-88682438D01*
X111349405Y-88682438D02*
X111444643Y-88634819D01*
X111444643Y-88634819D02*
X111682738Y-88634819D01*
X111682738Y-88634819D02*
X111777976Y-88682438D01*
X111777976Y-88682438D02*
X111825595Y-88730057D01*
X111825595Y-88730057D02*
X111873214Y-88825295D01*
X111873214Y-88825295D02*
X111873214Y-88920533D01*
X111873214Y-88920533D02*
X111825595Y-89063390D01*
X111825595Y-89063390D02*
X111254167Y-89634819D01*
X111254167Y-89634819D02*
X111873214Y-89634819D01*
D12*
X145617733Y-91492709D02*
X145617733Y-90492709D01*
X145617733Y-90492709D02*
X145855828Y-90492709D01*
X145855828Y-90492709D02*
X145998685Y-90540328D01*
X145998685Y-90540328D02*
X146093923Y-90635566D01*
X146093923Y-90635566D02*
X146141542Y-90730804D01*
X146141542Y-90730804D02*
X146189161Y-90921280D01*
X146189161Y-90921280D02*
X146189161Y-91064137D01*
X146189161Y-91064137D02*
X146141542Y-91254613D01*
X146141542Y-91254613D02*
X146093923Y-91349851D01*
X146093923Y-91349851D02*
X145998685Y-91445090D01*
X145998685Y-91445090D02*
X145855828Y-91492709D01*
X145855828Y-91492709D02*
X145617733Y-91492709D01*
X147141542Y-91492709D02*
X146570114Y-91492709D01*
X146855828Y-91492709D02*
X146855828Y-90492709D01*
X146855828Y-90492709D02*
X146760590Y-90635566D01*
X146760590Y-90635566D02*
X146665352Y-90730804D01*
X146665352Y-90730804D02*
X146570114Y-90778423D01*
X147998685Y-90492709D02*
X147808209Y-90492709D01*
X147808209Y-90492709D02*
X147712971Y-90540328D01*
X147712971Y-90540328D02*
X147665352Y-90587947D01*
X147665352Y-90587947D02*
X147570114Y-90730804D01*
X147570114Y-90730804D02*
X147522495Y-90921280D01*
X147522495Y-90921280D02*
X147522495Y-91302232D01*
X147522495Y-91302232D02*
X147570114Y-91397470D01*
X147570114Y-91397470D02*
X147617733Y-91445090D01*
X147617733Y-91445090D02*
X147712971Y-91492709D01*
X147712971Y-91492709D02*
X147903447Y-91492709D01*
X147903447Y-91492709D02*
X147998685Y-91445090D01*
X147998685Y-91445090D02*
X148046304Y-91397470D01*
X148046304Y-91397470D02*
X148093923Y-91302232D01*
X148093923Y-91302232D02*
X148093923Y-91064137D01*
X148093923Y-91064137D02*
X148046304Y-90968899D01*
X148046304Y-90968899D02*
X147998685Y-90921280D01*
X147998685Y-90921280D02*
X147903447Y-90873661D01*
X147903447Y-90873661D02*
X147712971Y-90873661D01*
X147712971Y-90873661D02*
X147617733Y-90921280D01*
X147617733Y-90921280D02*
X147570114Y-90968899D01*
X147570114Y-90968899D02*
X147522495Y-91064137D01*
X140578714Y-88457419D02*
X140578714Y-87457419D01*
X140578714Y-87457419D02*
X140816809Y-87457419D01*
X140816809Y-87457419D02*
X140959666Y-87505038D01*
X140959666Y-87505038D02*
X141054904Y-87600276D01*
X141054904Y-87600276D02*
X141102523Y-87695514D01*
X141102523Y-87695514D02*
X141150142Y-87885990D01*
X141150142Y-87885990D02*
X141150142Y-88028847D01*
X141150142Y-88028847D02*
X141102523Y-88219323D01*
X141102523Y-88219323D02*
X141054904Y-88314561D01*
X141054904Y-88314561D02*
X140959666Y-88409800D01*
X140959666Y-88409800D02*
X140816809Y-88457419D01*
X140816809Y-88457419D02*
X140578714Y-88457419D01*
X142102523Y-88457419D02*
X141531095Y-88457419D01*
X141816809Y-88457419D02*
X141816809Y-87457419D01*
X141816809Y-87457419D02*
X141721571Y-87600276D01*
X141721571Y-87600276D02*
X141626333Y-87695514D01*
X141626333Y-87695514D02*
X141531095Y-87743133D01*
X142959666Y-87790752D02*
X142959666Y-88457419D01*
X142721571Y-87409800D02*
X142483476Y-88124085D01*
X142483476Y-88124085D02*
X143102523Y-88124085D01*
X124889080Y-92933069D02*
X124889080Y-91933069D01*
X124889080Y-91933069D02*
X125127175Y-91933069D01*
X125127175Y-91933069D02*
X125270032Y-91980688D01*
X125270032Y-91980688D02*
X125365270Y-92075926D01*
X125365270Y-92075926D02*
X125412889Y-92171164D01*
X125412889Y-92171164D02*
X125460508Y-92361640D01*
X125460508Y-92361640D02*
X125460508Y-92504497D01*
X125460508Y-92504497D02*
X125412889Y-92694973D01*
X125412889Y-92694973D02*
X125365270Y-92790211D01*
X125365270Y-92790211D02*
X125270032Y-92885450D01*
X125270032Y-92885450D02*
X125127175Y-92933069D01*
X125127175Y-92933069D02*
X124889080Y-92933069D01*
X126412889Y-92933069D02*
X125841461Y-92933069D01*
X126127175Y-92933069D02*
X126127175Y-91933069D01*
X126127175Y-91933069D02*
X126031937Y-92075926D01*
X126031937Y-92075926D02*
X125936699Y-92171164D01*
X125936699Y-92171164D02*
X125841461Y-92218783D01*
X127365270Y-92933069D02*
X126793842Y-92933069D01*
X127079556Y-92933069D02*
X127079556Y-91933069D01*
X127079556Y-91933069D02*
X126984318Y-92075926D01*
X126984318Y-92075926D02*
X126889080Y-92171164D01*
X126889080Y-92171164D02*
X126793842Y-92218783D01*
X89999472Y-77944488D02*
X89999472Y-76944488D01*
X89999472Y-76944488D02*
X90237567Y-76944488D01*
X90237567Y-76944488D02*
X90380424Y-76992107D01*
X90380424Y-76992107D02*
X90475662Y-77087345D01*
X90475662Y-77087345D02*
X90523281Y-77182583D01*
X90523281Y-77182583D02*
X90570900Y-77373059D01*
X90570900Y-77373059D02*
X90570900Y-77515916D01*
X90570900Y-77515916D02*
X90523281Y-77706392D01*
X90523281Y-77706392D02*
X90475662Y-77801630D01*
X90475662Y-77801630D02*
X90380424Y-77896869D01*
X90380424Y-77896869D02*
X90237567Y-77944488D01*
X90237567Y-77944488D02*
X89999472Y-77944488D01*
X91523281Y-77944488D02*
X90951853Y-77944488D01*
X91237567Y-77944488D02*
X91237567Y-76944488D01*
X91237567Y-76944488D02*
X91142329Y-77087345D01*
X91142329Y-77087345D02*
X91047091Y-77182583D01*
X91047091Y-77182583D02*
X90951853Y-77230202D01*
X144716714Y-82457419D02*
X144716714Y-81457419D01*
X144716714Y-81457419D02*
X144954809Y-81457419D01*
X144954809Y-81457419D02*
X145097666Y-81505038D01*
X145097666Y-81505038D02*
X145192904Y-81600276D01*
X145192904Y-81600276D02*
X145240523Y-81695514D01*
X145240523Y-81695514D02*
X145288142Y-81885990D01*
X145288142Y-81885990D02*
X145288142Y-82028847D01*
X145288142Y-82028847D02*
X145240523Y-82219323D01*
X145240523Y-82219323D02*
X145192904Y-82314561D01*
X145192904Y-82314561D02*
X145097666Y-82409800D01*
X145097666Y-82409800D02*
X144954809Y-82457419D01*
X144954809Y-82457419D02*
X144716714Y-82457419D01*
X146240523Y-82457419D02*
X145669095Y-82457419D01*
X145954809Y-82457419D02*
X145954809Y-81457419D01*
X145954809Y-81457419D02*
X145859571Y-81600276D01*
X145859571Y-81600276D02*
X145764333Y-81695514D01*
X145764333Y-81695514D02*
X145669095Y-81743133D01*
X147145285Y-81457419D02*
X146669095Y-81457419D01*
X146669095Y-81457419D02*
X146621476Y-81933609D01*
X146621476Y-81933609D02*
X146669095Y-81885990D01*
X146669095Y-81885990D02*
X146764333Y-81838371D01*
X146764333Y-81838371D02*
X147002428Y-81838371D01*
X147002428Y-81838371D02*
X147097666Y-81885990D01*
X147097666Y-81885990D02*
X147145285Y-81933609D01*
X147145285Y-81933609D02*
X147192904Y-82028847D01*
X147192904Y-82028847D02*
X147192904Y-82266942D01*
X147192904Y-82266942D02*
X147145285Y-82362180D01*
X147145285Y-82362180D02*
X147097666Y-82409800D01*
X147097666Y-82409800D02*
X147002428Y-82457419D01*
X147002428Y-82457419D02*
X146764333Y-82457419D01*
X146764333Y-82457419D02*
X146669095Y-82409800D01*
X146669095Y-82409800D02*
X146621476Y-82362180D01*
X173855296Y-87785455D02*
X173855296Y-86785455D01*
X173855296Y-86785455D02*
X174093391Y-86785455D01*
X174093391Y-86785455D02*
X174236248Y-86833074D01*
X174236248Y-86833074D02*
X174331486Y-86928312D01*
X174331486Y-86928312D02*
X174379105Y-87023550D01*
X174379105Y-87023550D02*
X174426724Y-87214026D01*
X174426724Y-87214026D02*
X174426724Y-87356883D01*
X174426724Y-87356883D02*
X174379105Y-87547359D01*
X174379105Y-87547359D02*
X174331486Y-87642597D01*
X174331486Y-87642597D02*
X174236248Y-87737836D01*
X174236248Y-87737836D02*
X174093391Y-87785455D01*
X174093391Y-87785455D02*
X173855296Y-87785455D01*
X174807677Y-86880693D02*
X174855296Y-86833074D01*
X174855296Y-86833074D02*
X174950534Y-86785455D01*
X174950534Y-86785455D02*
X175188629Y-86785455D01*
X175188629Y-86785455D02*
X175283867Y-86833074D01*
X175283867Y-86833074D02*
X175331486Y-86880693D01*
X175331486Y-86880693D02*
X175379105Y-86975931D01*
X175379105Y-86975931D02*
X175379105Y-87071169D01*
X175379105Y-87071169D02*
X175331486Y-87214026D01*
X175331486Y-87214026D02*
X174760058Y-87785455D01*
X174760058Y-87785455D02*
X175379105Y-87785455D01*
X175760058Y-86880693D02*
X175807677Y-86833074D01*
X175807677Y-86833074D02*
X175902915Y-86785455D01*
X175902915Y-86785455D02*
X176141010Y-86785455D01*
X176141010Y-86785455D02*
X176236248Y-86833074D01*
X176236248Y-86833074D02*
X176283867Y-86880693D01*
X176283867Y-86880693D02*
X176331486Y-86975931D01*
X176331486Y-86975931D02*
X176331486Y-87071169D01*
X176331486Y-87071169D02*
X176283867Y-87214026D01*
X176283867Y-87214026D02*
X175712439Y-87785455D01*
X175712439Y-87785455D02*
X176331486Y-87785455D01*
X112089905Y-88457419D02*
X112089905Y-87457419D01*
X112089905Y-87457419D02*
X112328000Y-87457419D01*
X112328000Y-87457419D02*
X112470857Y-87505038D01*
X112470857Y-87505038D02*
X112566095Y-87600276D01*
X112566095Y-87600276D02*
X112613714Y-87695514D01*
X112613714Y-87695514D02*
X112661333Y-87885990D01*
X112661333Y-87885990D02*
X112661333Y-88028847D01*
X112661333Y-88028847D02*
X112613714Y-88219323D01*
X112613714Y-88219323D02*
X112566095Y-88314561D01*
X112566095Y-88314561D02*
X112470857Y-88409800D01*
X112470857Y-88409800D02*
X112328000Y-88457419D01*
X112328000Y-88457419D02*
X112089905Y-88457419D01*
X112994667Y-87457419D02*
X113661333Y-87457419D01*
X113661333Y-87457419D02*
X113232762Y-88457419D01*
D13*
X85634819Y-85079166D02*
X85158628Y-85412499D01*
X85634819Y-85650594D02*
X84634819Y-85650594D01*
X84634819Y-85650594D02*
X84634819Y-85269642D01*
X84634819Y-85269642D02*
X84682438Y-85174404D01*
X84682438Y-85174404D02*
X84730057Y-85126785D01*
X84730057Y-85126785D02*
X84825295Y-85079166D01*
X84825295Y-85079166D02*
X84968152Y-85079166D01*
X84968152Y-85079166D02*
X85063390Y-85126785D01*
X85063390Y-85126785D02*
X85111009Y-85174404D01*
X85111009Y-85174404D02*
X85158628Y-85269642D01*
X85158628Y-85269642D02*
X85158628Y-85650594D01*
X85634819Y-84126785D02*
X85634819Y-84698213D01*
X85634819Y-84412499D02*
X84634819Y-84412499D01*
X84634819Y-84412499D02*
X84777676Y-84507737D01*
X84777676Y-84507737D02*
X84872914Y-84602975D01*
X84872914Y-84602975D02*
X84920533Y-84698213D01*
X140634819Y-79166666D02*
X140158628Y-79499999D01*
X140634819Y-79738094D02*
X139634819Y-79738094D01*
X139634819Y-79738094D02*
X139634819Y-79357142D01*
X139634819Y-79357142D02*
X139682438Y-79261904D01*
X139682438Y-79261904D02*
X139730057Y-79214285D01*
X139730057Y-79214285D02*
X139825295Y-79166666D01*
X139825295Y-79166666D02*
X139968152Y-79166666D01*
X139968152Y-79166666D02*
X140063390Y-79214285D01*
X140063390Y-79214285D02*
X140111009Y-79261904D01*
X140111009Y-79261904D02*
X140158628Y-79357142D01*
X140158628Y-79357142D02*
X140158628Y-79738094D01*
X139634819Y-78833332D02*
X139634819Y-78214285D01*
X139634819Y-78214285D02*
X140015771Y-78547618D01*
X140015771Y-78547618D02*
X140015771Y-78404761D01*
X140015771Y-78404761D02*
X140063390Y-78309523D01*
X140063390Y-78309523D02*
X140111009Y-78261904D01*
X140111009Y-78261904D02*
X140206247Y-78214285D01*
X140206247Y-78214285D02*
X140444342Y-78214285D01*
X140444342Y-78214285D02*
X140539580Y-78261904D01*
X140539580Y-78261904D02*
X140587200Y-78309523D01*
X140587200Y-78309523D02*
X140634819Y-78404761D01*
X140634819Y-78404761D02*
X140634819Y-78690475D01*
X140634819Y-78690475D02*
X140587200Y-78785713D01*
X140587200Y-78785713D02*
X140539580Y-78833332D01*
D12*
X169555092Y-76833156D02*
X169555092Y-75833156D01*
X169555092Y-75833156D02*
X169793187Y-75833156D01*
X169793187Y-75833156D02*
X169936044Y-75880775D01*
X169936044Y-75880775D02*
X170031282Y-75976013D01*
X170031282Y-75976013D02*
X170078901Y-76071251D01*
X170078901Y-76071251D02*
X170126520Y-76261727D01*
X170126520Y-76261727D02*
X170126520Y-76404584D01*
X170126520Y-76404584D02*
X170078901Y-76595060D01*
X170078901Y-76595060D02*
X170031282Y-76690298D01*
X170031282Y-76690298D02*
X169936044Y-76785537D01*
X169936044Y-76785537D02*
X169793187Y-76833156D01*
X169793187Y-76833156D02*
X169555092Y-76833156D01*
X170507473Y-75928394D02*
X170555092Y-75880775D01*
X170555092Y-75880775D02*
X170650330Y-75833156D01*
X170650330Y-75833156D02*
X170888425Y-75833156D01*
X170888425Y-75833156D02*
X170983663Y-75880775D01*
X170983663Y-75880775D02*
X171031282Y-75928394D01*
X171031282Y-75928394D02*
X171078901Y-76023632D01*
X171078901Y-76023632D02*
X171078901Y-76118870D01*
X171078901Y-76118870D02*
X171031282Y-76261727D01*
X171031282Y-76261727D02*
X170459854Y-76833156D01*
X170459854Y-76833156D02*
X171078901Y-76833156D01*
X172031282Y-76833156D02*
X171459854Y-76833156D01*
X171745568Y-76833156D02*
X171745568Y-75833156D01*
X171745568Y-75833156D02*
X171650330Y-75976013D01*
X171650330Y-75976013D02*
X171555092Y-76071251D01*
X171555092Y-76071251D02*
X171459854Y-76118870D01*
X198585714Y-83107419D02*
X198585714Y-82107419D01*
X198585714Y-82107419D02*
X198823809Y-82107419D01*
X198823809Y-82107419D02*
X198966666Y-82155038D01*
X198966666Y-82155038D02*
X199061904Y-82250276D01*
X199061904Y-82250276D02*
X199109523Y-82345514D01*
X199109523Y-82345514D02*
X199157142Y-82535990D01*
X199157142Y-82535990D02*
X199157142Y-82678847D01*
X199157142Y-82678847D02*
X199109523Y-82869323D01*
X199109523Y-82869323D02*
X199061904Y-82964561D01*
X199061904Y-82964561D02*
X198966666Y-83059800D01*
X198966666Y-83059800D02*
X198823809Y-83107419D01*
X198823809Y-83107419D02*
X198585714Y-83107419D01*
X199538095Y-82202657D02*
X199585714Y-82155038D01*
X199585714Y-82155038D02*
X199680952Y-82107419D01*
X199680952Y-82107419D02*
X199919047Y-82107419D01*
X199919047Y-82107419D02*
X200014285Y-82155038D01*
X200014285Y-82155038D02*
X200061904Y-82202657D01*
X200061904Y-82202657D02*
X200109523Y-82297895D01*
X200109523Y-82297895D02*
X200109523Y-82393133D01*
X200109523Y-82393133D02*
X200061904Y-82535990D01*
X200061904Y-82535990D02*
X199490476Y-83107419D01*
X199490476Y-83107419D02*
X200109523Y-83107419D01*
X200680952Y-82535990D02*
X200585714Y-82488371D01*
X200585714Y-82488371D02*
X200538095Y-82440752D01*
X200538095Y-82440752D02*
X200490476Y-82345514D01*
X200490476Y-82345514D02*
X200490476Y-82297895D01*
X200490476Y-82297895D02*
X200538095Y-82202657D01*
X200538095Y-82202657D02*
X200585714Y-82155038D01*
X200585714Y-82155038D02*
X200680952Y-82107419D01*
X200680952Y-82107419D02*
X200871428Y-82107419D01*
X200871428Y-82107419D02*
X200966666Y-82155038D01*
X200966666Y-82155038D02*
X201014285Y-82202657D01*
X201014285Y-82202657D02*
X201061904Y-82297895D01*
X201061904Y-82297895D02*
X201061904Y-82345514D01*
X201061904Y-82345514D02*
X201014285Y-82440752D01*
X201014285Y-82440752D02*
X200966666Y-82488371D01*
X200966666Y-82488371D02*
X200871428Y-82535990D01*
X200871428Y-82535990D02*
X200680952Y-82535990D01*
X200680952Y-82535990D02*
X200585714Y-82583609D01*
X200585714Y-82583609D02*
X200538095Y-82631228D01*
X200538095Y-82631228D02*
X200490476Y-82726466D01*
X200490476Y-82726466D02*
X200490476Y-82916942D01*
X200490476Y-82916942D02*
X200538095Y-83012180D01*
X200538095Y-83012180D02*
X200585714Y-83059800D01*
X200585714Y-83059800D02*
X200680952Y-83107419D01*
X200680952Y-83107419D02*
X200871428Y-83107419D01*
X200871428Y-83107419D02*
X200966666Y-83059800D01*
X200966666Y-83059800D02*
X201014285Y-83012180D01*
X201014285Y-83012180D02*
X201061904Y-82916942D01*
X201061904Y-82916942D02*
X201061904Y-82726466D01*
X201061904Y-82726466D02*
X201014285Y-82631228D01*
X201014285Y-82631228D02*
X200966666Y-82583609D01*
X200966666Y-82583609D02*
X200871428Y-82535990D01*
X165608769Y-88782476D02*
X165608769Y-87782476D01*
X165608769Y-87782476D02*
X165846864Y-87782476D01*
X165846864Y-87782476D02*
X165989721Y-87830095D01*
X165989721Y-87830095D02*
X166084959Y-87925333D01*
X166084959Y-87925333D02*
X166132578Y-88020571D01*
X166132578Y-88020571D02*
X166180197Y-88211047D01*
X166180197Y-88211047D02*
X166180197Y-88353904D01*
X166180197Y-88353904D02*
X166132578Y-88544380D01*
X166132578Y-88544380D02*
X166084959Y-88639618D01*
X166084959Y-88639618D02*
X165989721Y-88734857D01*
X165989721Y-88734857D02*
X165846864Y-88782476D01*
X165846864Y-88782476D02*
X165608769Y-88782476D01*
X166561150Y-87877714D02*
X166608769Y-87830095D01*
X166608769Y-87830095D02*
X166704007Y-87782476D01*
X166704007Y-87782476D02*
X166942102Y-87782476D01*
X166942102Y-87782476D02*
X167037340Y-87830095D01*
X167037340Y-87830095D02*
X167084959Y-87877714D01*
X167084959Y-87877714D02*
X167132578Y-87972952D01*
X167132578Y-87972952D02*
X167132578Y-88068190D01*
X167132578Y-88068190D02*
X167084959Y-88211047D01*
X167084959Y-88211047D02*
X166513531Y-88782476D01*
X166513531Y-88782476D02*
X167132578Y-88782476D01*
X167751626Y-87782476D02*
X167846864Y-87782476D01*
X167846864Y-87782476D02*
X167942102Y-87830095D01*
X167942102Y-87830095D02*
X167989721Y-87877714D01*
X167989721Y-87877714D02*
X168037340Y-87972952D01*
X168037340Y-87972952D02*
X168084959Y-88163428D01*
X168084959Y-88163428D02*
X168084959Y-88401523D01*
X168084959Y-88401523D02*
X168037340Y-88591999D01*
X168037340Y-88591999D02*
X167989721Y-88687237D01*
X167989721Y-88687237D02*
X167942102Y-88734857D01*
X167942102Y-88734857D02*
X167846864Y-88782476D01*
X167846864Y-88782476D02*
X167751626Y-88782476D01*
X167751626Y-88782476D02*
X167656388Y-88734857D01*
X167656388Y-88734857D02*
X167608769Y-88687237D01*
X167608769Y-88687237D02*
X167561150Y-88591999D01*
X167561150Y-88591999D02*
X167513531Y-88401523D01*
X167513531Y-88401523D02*
X167513531Y-88163428D01*
X167513531Y-88163428D02*
X167561150Y-87972952D01*
X167561150Y-87972952D02*
X167608769Y-87877714D01*
X167608769Y-87877714D02*
X167656388Y-87830095D01*
X167656388Y-87830095D02*
X167751626Y-87782476D01*
X190385714Y-77107419D02*
X190385714Y-76107419D01*
X190385714Y-76107419D02*
X190623809Y-76107419D01*
X190623809Y-76107419D02*
X190766666Y-76155038D01*
X190766666Y-76155038D02*
X190861904Y-76250276D01*
X190861904Y-76250276D02*
X190909523Y-76345514D01*
X190909523Y-76345514D02*
X190957142Y-76535990D01*
X190957142Y-76535990D02*
X190957142Y-76678847D01*
X190957142Y-76678847D02*
X190909523Y-76869323D01*
X190909523Y-76869323D02*
X190861904Y-76964561D01*
X190861904Y-76964561D02*
X190766666Y-77059800D01*
X190766666Y-77059800D02*
X190623809Y-77107419D01*
X190623809Y-77107419D02*
X190385714Y-77107419D01*
X191338095Y-76202657D02*
X191385714Y-76155038D01*
X191385714Y-76155038D02*
X191480952Y-76107419D01*
X191480952Y-76107419D02*
X191719047Y-76107419D01*
X191719047Y-76107419D02*
X191814285Y-76155038D01*
X191814285Y-76155038D02*
X191861904Y-76202657D01*
X191861904Y-76202657D02*
X191909523Y-76297895D01*
X191909523Y-76297895D02*
X191909523Y-76393133D01*
X191909523Y-76393133D02*
X191861904Y-76535990D01*
X191861904Y-76535990D02*
X191290476Y-77107419D01*
X191290476Y-77107419D02*
X191909523Y-77107419D01*
X192766666Y-76107419D02*
X192576190Y-76107419D01*
X192576190Y-76107419D02*
X192480952Y-76155038D01*
X192480952Y-76155038D02*
X192433333Y-76202657D01*
X192433333Y-76202657D02*
X192338095Y-76345514D01*
X192338095Y-76345514D02*
X192290476Y-76535990D01*
X192290476Y-76535990D02*
X192290476Y-76916942D01*
X192290476Y-76916942D02*
X192338095Y-77012180D01*
X192338095Y-77012180D02*
X192385714Y-77059800D01*
X192385714Y-77059800D02*
X192480952Y-77107419D01*
X192480952Y-77107419D02*
X192671428Y-77107419D01*
X192671428Y-77107419D02*
X192766666Y-77059800D01*
X192766666Y-77059800D02*
X192814285Y-77012180D01*
X192814285Y-77012180D02*
X192861904Y-76916942D01*
X192861904Y-76916942D02*
X192861904Y-76678847D01*
X192861904Y-76678847D02*
X192814285Y-76583609D01*
X192814285Y-76583609D02*
X192766666Y-76535990D01*
X192766666Y-76535990D02*
X192671428Y-76488371D01*
X192671428Y-76488371D02*
X192480952Y-76488371D01*
X192480952Y-76488371D02*
X192385714Y-76535990D01*
X192385714Y-76535990D02*
X192338095Y-76583609D01*
X192338095Y-76583609D02*
X192290476Y-76678847D01*
X152992714Y-82457419D02*
X152992714Y-81457419D01*
X152992714Y-81457419D02*
X153230809Y-81457419D01*
X153230809Y-81457419D02*
X153373666Y-81505038D01*
X153373666Y-81505038D02*
X153468904Y-81600276D01*
X153468904Y-81600276D02*
X153516523Y-81695514D01*
X153516523Y-81695514D02*
X153564142Y-81885990D01*
X153564142Y-81885990D02*
X153564142Y-82028847D01*
X153564142Y-82028847D02*
X153516523Y-82219323D01*
X153516523Y-82219323D02*
X153468904Y-82314561D01*
X153468904Y-82314561D02*
X153373666Y-82409800D01*
X153373666Y-82409800D02*
X153230809Y-82457419D01*
X153230809Y-82457419D02*
X152992714Y-82457419D01*
X154516523Y-82457419D02*
X153945095Y-82457419D01*
X154230809Y-82457419D02*
X154230809Y-81457419D01*
X154230809Y-81457419D02*
X154135571Y-81600276D01*
X154135571Y-81600276D02*
X154040333Y-81695514D01*
X154040333Y-81695514D02*
X153945095Y-81743133D01*
X154849857Y-81457419D02*
X155516523Y-81457419D01*
X155516523Y-81457419D02*
X155087952Y-82457419D01*
X102261905Y-89457419D02*
X102261905Y-88457419D01*
X102261905Y-88457419D02*
X102500000Y-88457419D01*
X102500000Y-88457419D02*
X102642857Y-88505038D01*
X102642857Y-88505038D02*
X102738095Y-88600276D01*
X102738095Y-88600276D02*
X102785714Y-88695514D01*
X102785714Y-88695514D02*
X102833333Y-88885990D01*
X102833333Y-88885990D02*
X102833333Y-89028847D01*
X102833333Y-89028847D02*
X102785714Y-89219323D01*
X102785714Y-89219323D02*
X102738095Y-89314561D01*
X102738095Y-89314561D02*
X102642857Y-89409800D01*
X102642857Y-89409800D02*
X102500000Y-89457419D01*
X102500000Y-89457419D02*
X102261905Y-89457419D01*
X103690476Y-88790752D02*
X103690476Y-89457419D01*
X103452381Y-88409800D02*
X103214286Y-89124085D01*
X103214286Y-89124085D02*
X103833333Y-89124085D01*
X201785714Y-89107419D02*
X201785714Y-88107419D01*
X201785714Y-88107419D02*
X202023809Y-88107419D01*
X202023809Y-88107419D02*
X202166666Y-88155038D01*
X202166666Y-88155038D02*
X202261904Y-88250276D01*
X202261904Y-88250276D02*
X202309523Y-88345514D01*
X202309523Y-88345514D02*
X202357142Y-88535990D01*
X202357142Y-88535990D02*
X202357142Y-88678847D01*
X202357142Y-88678847D02*
X202309523Y-88869323D01*
X202309523Y-88869323D02*
X202261904Y-88964561D01*
X202261904Y-88964561D02*
X202166666Y-89059800D01*
X202166666Y-89059800D02*
X202023809Y-89107419D01*
X202023809Y-89107419D02*
X201785714Y-89107419D01*
X202738095Y-88202657D02*
X202785714Y-88155038D01*
X202785714Y-88155038D02*
X202880952Y-88107419D01*
X202880952Y-88107419D02*
X203119047Y-88107419D01*
X203119047Y-88107419D02*
X203214285Y-88155038D01*
X203214285Y-88155038D02*
X203261904Y-88202657D01*
X203261904Y-88202657D02*
X203309523Y-88297895D01*
X203309523Y-88297895D02*
X203309523Y-88393133D01*
X203309523Y-88393133D02*
X203261904Y-88535990D01*
X203261904Y-88535990D02*
X202690476Y-89107419D01*
X202690476Y-89107419D02*
X203309523Y-89107419D01*
X203785714Y-89107419D02*
X203976190Y-89107419D01*
X203976190Y-89107419D02*
X204071428Y-89059800D01*
X204071428Y-89059800D02*
X204119047Y-89012180D01*
X204119047Y-89012180D02*
X204214285Y-88869323D01*
X204214285Y-88869323D02*
X204261904Y-88678847D01*
X204261904Y-88678847D02*
X204261904Y-88297895D01*
X204261904Y-88297895D02*
X204214285Y-88202657D01*
X204214285Y-88202657D02*
X204166666Y-88155038D01*
X204166666Y-88155038D02*
X204071428Y-88107419D01*
X204071428Y-88107419D02*
X203880952Y-88107419D01*
X203880952Y-88107419D02*
X203785714Y-88155038D01*
X203785714Y-88155038D02*
X203738095Y-88202657D01*
X203738095Y-88202657D02*
X203690476Y-88297895D01*
X203690476Y-88297895D02*
X203690476Y-88535990D01*
X203690476Y-88535990D02*
X203738095Y-88631228D01*
X203738095Y-88631228D02*
X203785714Y-88678847D01*
X203785714Y-88678847D02*
X203880952Y-88726466D01*
X203880952Y-88726466D02*
X204071428Y-88726466D01*
X204071428Y-88726466D02*
X204166666Y-88678847D01*
X204166666Y-88678847D02*
X204214285Y-88631228D01*
X204214285Y-88631228D02*
X204261904Y-88535990D01*
X91399905Y-88457419D02*
X91399905Y-87457419D01*
X91399905Y-87457419D02*
X91638000Y-87457419D01*
X91638000Y-87457419D02*
X91780857Y-87505038D01*
X91780857Y-87505038D02*
X91876095Y-87600276D01*
X91876095Y-87600276D02*
X91923714Y-87695514D01*
X91923714Y-87695514D02*
X91971333Y-87885990D01*
X91971333Y-87885990D02*
X91971333Y-88028847D01*
X91971333Y-88028847D02*
X91923714Y-88219323D01*
X91923714Y-88219323D02*
X91876095Y-88314561D01*
X91876095Y-88314561D02*
X91780857Y-88409800D01*
X91780857Y-88409800D02*
X91638000Y-88457419D01*
X91638000Y-88457419D02*
X91399905Y-88457419D01*
X92352286Y-87552657D02*
X92399905Y-87505038D01*
X92399905Y-87505038D02*
X92495143Y-87457419D01*
X92495143Y-87457419D02*
X92733238Y-87457419D01*
X92733238Y-87457419D02*
X92828476Y-87505038D01*
X92828476Y-87505038D02*
X92876095Y-87552657D01*
X92876095Y-87552657D02*
X92923714Y-87647895D01*
X92923714Y-87647895D02*
X92923714Y-87743133D01*
X92923714Y-87743133D02*
X92876095Y-87885990D01*
X92876095Y-87885990D02*
X92304667Y-88457419D01*
X92304667Y-88457419D02*
X92923714Y-88457419D01*
X95537905Y-82457419D02*
X95537905Y-81457419D01*
X95537905Y-81457419D02*
X95776000Y-81457419D01*
X95776000Y-81457419D02*
X95918857Y-81505038D01*
X95918857Y-81505038D02*
X96014095Y-81600276D01*
X96014095Y-81600276D02*
X96061714Y-81695514D01*
X96061714Y-81695514D02*
X96109333Y-81885990D01*
X96109333Y-81885990D02*
X96109333Y-82028847D01*
X96109333Y-82028847D02*
X96061714Y-82219323D01*
X96061714Y-82219323D02*
X96014095Y-82314561D01*
X96014095Y-82314561D02*
X95918857Y-82409800D01*
X95918857Y-82409800D02*
X95776000Y-82457419D01*
X95776000Y-82457419D02*
X95537905Y-82457419D01*
X96442667Y-81457419D02*
X97061714Y-81457419D01*
X97061714Y-81457419D02*
X96728381Y-81838371D01*
X96728381Y-81838371D02*
X96871238Y-81838371D01*
X96871238Y-81838371D02*
X96966476Y-81885990D01*
X96966476Y-81885990D02*
X97014095Y-81933609D01*
X97014095Y-81933609D02*
X97061714Y-82028847D01*
X97061714Y-82028847D02*
X97061714Y-82266942D01*
X97061714Y-82266942D02*
X97014095Y-82362180D01*
X97014095Y-82362180D02*
X96966476Y-82409800D01*
X96966476Y-82409800D02*
X96871238Y-82457419D01*
X96871238Y-82457419D02*
X96585524Y-82457419D01*
X96585524Y-82457419D02*
X96490286Y-82409800D01*
X96490286Y-82409800D02*
X96442667Y-82362180D01*
X136440714Y-82457419D02*
X136440714Y-81457419D01*
X136440714Y-81457419D02*
X136678809Y-81457419D01*
X136678809Y-81457419D02*
X136821666Y-81505038D01*
X136821666Y-81505038D02*
X136916904Y-81600276D01*
X136916904Y-81600276D02*
X136964523Y-81695514D01*
X136964523Y-81695514D02*
X137012142Y-81885990D01*
X137012142Y-81885990D02*
X137012142Y-82028847D01*
X137012142Y-82028847D02*
X136964523Y-82219323D01*
X136964523Y-82219323D02*
X136916904Y-82314561D01*
X136916904Y-82314561D02*
X136821666Y-82409800D01*
X136821666Y-82409800D02*
X136678809Y-82457419D01*
X136678809Y-82457419D02*
X136440714Y-82457419D01*
X137964523Y-82457419D02*
X137393095Y-82457419D01*
X137678809Y-82457419D02*
X137678809Y-81457419D01*
X137678809Y-81457419D02*
X137583571Y-81600276D01*
X137583571Y-81600276D02*
X137488333Y-81695514D01*
X137488333Y-81695514D02*
X137393095Y-81743133D01*
X138297857Y-81457419D02*
X138916904Y-81457419D01*
X138916904Y-81457419D02*
X138583571Y-81838371D01*
X138583571Y-81838371D02*
X138726428Y-81838371D01*
X138726428Y-81838371D02*
X138821666Y-81885990D01*
X138821666Y-81885990D02*
X138869285Y-81933609D01*
X138869285Y-81933609D02*
X138916904Y-82028847D01*
X138916904Y-82028847D02*
X138916904Y-82266942D01*
X138916904Y-82266942D02*
X138869285Y-82362180D01*
X138869285Y-82362180D02*
X138821666Y-82409800D01*
X138821666Y-82409800D02*
X138726428Y-82457419D01*
X138726428Y-82457419D02*
X138440714Y-82457419D01*
X138440714Y-82457419D02*
X138345476Y-82409800D01*
X138345476Y-82409800D02*
X138297857Y-82362180D01*
X157196234Y-82645291D02*
X157196234Y-81645291D01*
X157196234Y-81645291D02*
X157434329Y-81645291D01*
X157434329Y-81645291D02*
X157577186Y-81692910D01*
X157577186Y-81692910D02*
X157672424Y-81788148D01*
X157672424Y-81788148D02*
X157720043Y-81883386D01*
X157720043Y-81883386D02*
X157767662Y-82073862D01*
X157767662Y-82073862D02*
X157767662Y-82216719D01*
X157767662Y-82216719D02*
X157720043Y-82407195D01*
X157720043Y-82407195D02*
X157672424Y-82502433D01*
X157672424Y-82502433D02*
X157577186Y-82597672D01*
X157577186Y-82597672D02*
X157434329Y-82645291D01*
X157434329Y-82645291D02*
X157196234Y-82645291D01*
X158720043Y-82645291D02*
X158148615Y-82645291D01*
X158434329Y-82645291D02*
X158434329Y-81645291D01*
X158434329Y-81645291D02*
X158339091Y-81788148D01*
X158339091Y-81788148D02*
X158243853Y-81883386D01*
X158243853Y-81883386D02*
X158148615Y-81931005D01*
X159291472Y-82073862D02*
X159196234Y-82026243D01*
X159196234Y-82026243D02*
X159148615Y-81978624D01*
X159148615Y-81978624D02*
X159100996Y-81883386D01*
X159100996Y-81883386D02*
X159100996Y-81835767D01*
X159100996Y-81835767D02*
X159148615Y-81740529D01*
X159148615Y-81740529D02*
X159196234Y-81692910D01*
X159196234Y-81692910D02*
X159291472Y-81645291D01*
X159291472Y-81645291D02*
X159481948Y-81645291D01*
X159481948Y-81645291D02*
X159577186Y-81692910D01*
X159577186Y-81692910D02*
X159624805Y-81740529D01*
X159624805Y-81740529D02*
X159672424Y-81835767D01*
X159672424Y-81835767D02*
X159672424Y-81883386D01*
X159672424Y-81883386D02*
X159624805Y-81978624D01*
X159624805Y-81978624D02*
X159577186Y-82026243D01*
X159577186Y-82026243D02*
X159481948Y-82073862D01*
X159481948Y-82073862D02*
X159291472Y-82073862D01*
X159291472Y-82073862D02*
X159196234Y-82121481D01*
X159196234Y-82121481D02*
X159148615Y-82169100D01*
X159148615Y-82169100D02*
X159100996Y-82264338D01*
X159100996Y-82264338D02*
X159100996Y-82454814D01*
X159100996Y-82454814D02*
X159148615Y-82550052D01*
X159148615Y-82550052D02*
X159196234Y-82597672D01*
X159196234Y-82597672D02*
X159291472Y-82645291D01*
X159291472Y-82645291D02*
X159481948Y-82645291D01*
X159481948Y-82645291D02*
X159577186Y-82597672D01*
X159577186Y-82597672D02*
X159624805Y-82550052D01*
X159624805Y-82550052D02*
X159672424Y-82454814D01*
X159672424Y-82454814D02*
X159672424Y-82264338D01*
X159672424Y-82264338D02*
X159624805Y-82169100D01*
X159624805Y-82169100D02*
X159577186Y-82121481D01*
X159577186Y-82121481D02*
X159481948Y-82073862D01*
X177611765Y-93875921D02*
X177611765Y-92875921D01*
X177611765Y-92875921D02*
X177849860Y-92875921D01*
X177849860Y-92875921D02*
X177992717Y-92923540D01*
X177992717Y-92923540D02*
X178087955Y-93018778D01*
X178087955Y-93018778D02*
X178135574Y-93114016D01*
X178135574Y-93114016D02*
X178183193Y-93304492D01*
X178183193Y-93304492D02*
X178183193Y-93447349D01*
X178183193Y-93447349D02*
X178135574Y-93637825D01*
X178135574Y-93637825D02*
X178087955Y-93733063D01*
X178087955Y-93733063D02*
X177992717Y-93828302D01*
X177992717Y-93828302D02*
X177849860Y-93875921D01*
X177849860Y-93875921D02*
X177611765Y-93875921D01*
X178564146Y-92971159D02*
X178611765Y-92923540D01*
X178611765Y-92923540D02*
X178707003Y-92875921D01*
X178707003Y-92875921D02*
X178945098Y-92875921D01*
X178945098Y-92875921D02*
X179040336Y-92923540D01*
X179040336Y-92923540D02*
X179087955Y-92971159D01*
X179087955Y-92971159D02*
X179135574Y-93066397D01*
X179135574Y-93066397D02*
X179135574Y-93161635D01*
X179135574Y-93161635D02*
X179087955Y-93304492D01*
X179087955Y-93304492D02*
X178516527Y-93875921D01*
X178516527Y-93875921D02*
X179135574Y-93875921D01*
X179468908Y-92875921D02*
X180087955Y-92875921D01*
X180087955Y-92875921D02*
X179754622Y-93256873D01*
X179754622Y-93256873D02*
X179897479Y-93256873D01*
X179897479Y-93256873D02*
X179992717Y-93304492D01*
X179992717Y-93304492D02*
X180040336Y-93352111D01*
X180040336Y-93352111D02*
X180087955Y-93447349D01*
X180087955Y-93447349D02*
X180087955Y-93685444D01*
X180087955Y-93685444D02*
X180040336Y-93780682D01*
X180040336Y-93780682D02*
X179992717Y-93828302D01*
X179992717Y-93828302D02*
X179897479Y-93875921D01*
X179897479Y-93875921D02*
X179611765Y-93875921D01*
X179611765Y-93875921D02*
X179516527Y-93828302D01*
X179516527Y-93828302D02*
X179468908Y-93780682D01*
X206785714Y-89107419D02*
X206785714Y-88107419D01*
X206785714Y-88107419D02*
X207023809Y-88107419D01*
X207023809Y-88107419D02*
X207166666Y-88155038D01*
X207166666Y-88155038D02*
X207261904Y-88250276D01*
X207261904Y-88250276D02*
X207309523Y-88345514D01*
X207309523Y-88345514D02*
X207357142Y-88535990D01*
X207357142Y-88535990D02*
X207357142Y-88678847D01*
X207357142Y-88678847D02*
X207309523Y-88869323D01*
X207309523Y-88869323D02*
X207261904Y-88964561D01*
X207261904Y-88964561D02*
X207166666Y-89059800D01*
X207166666Y-89059800D02*
X207023809Y-89107419D01*
X207023809Y-89107419D02*
X206785714Y-89107419D01*
X207690476Y-88107419D02*
X208309523Y-88107419D01*
X208309523Y-88107419D02*
X207976190Y-88488371D01*
X207976190Y-88488371D02*
X208119047Y-88488371D01*
X208119047Y-88488371D02*
X208214285Y-88535990D01*
X208214285Y-88535990D02*
X208261904Y-88583609D01*
X208261904Y-88583609D02*
X208309523Y-88678847D01*
X208309523Y-88678847D02*
X208309523Y-88916942D01*
X208309523Y-88916942D02*
X208261904Y-89012180D01*
X208261904Y-89012180D02*
X208214285Y-89059800D01*
X208214285Y-89059800D02*
X208119047Y-89107419D01*
X208119047Y-89107419D02*
X207833333Y-89107419D01*
X207833333Y-89107419D02*
X207738095Y-89059800D01*
X207738095Y-89059800D02*
X207690476Y-89012180D01*
X208928571Y-88107419D02*
X209023809Y-88107419D01*
X209023809Y-88107419D02*
X209119047Y-88155038D01*
X209119047Y-88155038D02*
X209166666Y-88202657D01*
X209166666Y-88202657D02*
X209214285Y-88297895D01*
X209214285Y-88297895D02*
X209261904Y-88488371D01*
X209261904Y-88488371D02*
X209261904Y-88726466D01*
X209261904Y-88726466D02*
X209214285Y-88916942D01*
X209214285Y-88916942D02*
X209166666Y-89012180D01*
X209166666Y-89012180D02*
X209119047Y-89059800D01*
X209119047Y-89059800D02*
X209023809Y-89107419D01*
X209023809Y-89107419D02*
X208928571Y-89107419D01*
X208928571Y-89107419D02*
X208833333Y-89059800D01*
X208833333Y-89059800D02*
X208785714Y-89012180D01*
X208785714Y-89012180D02*
X208738095Y-88916942D01*
X208738095Y-88916942D02*
X208690476Y-88726466D01*
X208690476Y-88726466D02*
X208690476Y-88488371D01*
X208690476Y-88488371D02*
X208738095Y-88297895D01*
X208738095Y-88297895D02*
X208785714Y-88202657D01*
X208785714Y-88202657D02*
X208833333Y-88155038D01*
X208833333Y-88155038D02*
X208928571Y-88107419D01*
X117261905Y-88457419D02*
X117261905Y-87457419D01*
X117261905Y-87457419D02*
X117500000Y-87457419D01*
X117500000Y-87457419D02*
X117642857Y-87505038D01*
X117642857Y-87505038D02*
X117738095Y-87600276D01*
X117738095Y-87600276D02*
X117785714Y-87695514D01*
X117785714Y-87695514D02*
X117833333Y-87885990D01*
X117833333Y-87885990D02*
X117833333Y-88028847D01*
X117833333Y-88028847D02*
X117785714Y-88219323D01*
X117785714Y-88219323D02*
X117738095Y-88314561D01*
X117738095Y-88314561D02*
X117642857Y-88409800D01*
X117642857Y-88409800D02*
X117500000Y-88457419D01*
X117500000Y-88457419D02*
X117261905Y-88457419D01*
X118404762Y-87885990D02*
X118309524Y-87838371D01*
X118309524Y-87838371D02*
X118261905Y-87790752D01*
X118261905Y-87790752D02*
X118214286Y-87695514D01*
X118214286Y-87695514D02*
X118214286Y-87647895D01*
X118214286Y-87647895D02*
X118261905Y-87552657D01*
X118261905Y-87552657D02*
X118309524Y-87505038D01*
X118309524Y-87505038D02*
X118404762Y-87457419D01*
X118404762Y-87457419D02*
X118595238Y-87457419D01*
X118595238Y-87457419D02*
X118690476Y-87505038D01*
X118690476Y-87505038D02*
X118738095Y-87552657D01*
X118738095Y-87552657D02*
X118785714Y-87647895D01*
X118785714Y-87647895D02*
X118785714Y-87695514D01*
X118785714Y-87695514D02*
X118738095Y-87790752D01*
X118738095Y-87790752D02*
X118690476Y-87838371D01*
X118690476Y-87838371D02*
X118595238Y-87885990D01*
X118595238Y-87885990D02*
X118404762Y-87885990D01*
X118404762Y-87885990D02*
X118309524Y-87933609D01*
X118309524Y-87933609D02*
X118261905Y-87981228D01*
X118261905Y-87981228D02*
X118214286Y-88076466D01*
X118214286Y-88076466D02*
X118214286Y-88266942D01*
X118214286Y-88266942D02*
X118261905Y-88362180D01*
X118261905Y-88362180D02*
X118309524Y-88409800D01*
X118309524Y-88409800D02*
X118404762Y-88457419D01*
X118404762Y-88457419D02*
X118595238Y-88457419D01*
X118595238Y-88457419D02*
X118690476Y-88409800D01*
X118690476Y-88409800D02*
X118738095Y-88362180D01*
X118738095Y-88362180D02*
X118785714Y-88266942D01*
X118785714Y-88266942D02*
X118785714Y-88076466D01*
X118785714Y-88076466D02*
X118738095Y-87981228D01*
X118738095Y-87981228D02*
X118690476Y-87933609D01*
X118690476Y-87933609D02*
X118595238Y-87885990D01*
X193885714Y-83107419D02*
X193885714Y-82107419D01*
X193885714Y-82107419D02*
X194123809Y-82107419D01*
X194123809Y-82107419D02*
X194266666Y-82155038D01*
X194266666Y-82155038D02*
X194361904Y-82250276D01*
X194361904Y-82250276D02*
X194409523Y-82345514D01*
X194409523Y-82345514D02*
X194457142Y-82535990D01*
X194457142Y-82535990D02*
X194457142Y-82678847D01*
X194457142Y-82678847D02*
X194409523Y-82869323D01*
X194409523Y-82869323D02*
X194361904Y-82964561D01*
X194361904Y-82964561D02*
X194266666Y-83059800D01*
X194266666Y-83059800D02*
X194123809Y-83107419D01*
X194123809Y-83107419D02*
X193885714Y-83107419D01*
X194838095Y-82202657D02*
X194885714Y-82155038D01*
X194885714Y-82155038D02*
X194980952Y-82107419D01*
X194980952Y-82107419D02*
X195219047Y-82107419D01*
X195219047Y-82107419D02*
X195314285Y-82155038D01*
X195314285Y-82155038D02*
X195361904Y-82202657D01*
X195361904Y-82202657D02*
X195409523Y-82297895D01*
X195409523Y-82297895D02*
X195409523Y-82393133D01*
X195409523Y-82393133D02*
X195361904Y-82535990D01*
X195361904Y-82535990D02*
X194790476Y-83107419D01*
X194790476Y-83107419D02*
X195409523Y-83107419D01*
X195742857Y-82107419D02*
X196409523Y-82107419D01*
X196409523Y-82107419D02*
X195980952Y-83107419D01*
X182579962Y-93896796D02*
X182579962Y-92896796D01*
X182579962Y-92896796D02*
X182818057Y-92896796D01*
X182818057Y-92896796D02*
X182960914Y-92944415D01*
X182960914Y-92944415D02*
X183056152Y-93039653D01*
X183056152Y-93039653D02*
X183103771Y-93134891D01*
X183103771Y-93134891D02*
X183151390Y-93325367D01*
X183151390Y-93325367D02*
X183151390Y-93468224D01*
X183151390Y-93468224D02*
X183103771Y-93658700D01*
X183103771Y-93658700D02*
X183056152Y-93753938D01*
X183056152Y-93753938D02*
X182960914Y-93849177D01*
X182960914Y-93849177D02*
X182818057Y-93896796D01*
X182818057Y-93896796D02*
X182579962Y-93896796D01*
X183532343Y-92992034D02*
X183579962Y-92944415D01*
X183579962Y-92944415D02*
X183675200Y-92896796D01*
X183675200Y-92896796D02*
X183913295Y-92896796D01*
X183913295Y-92896796D02*
X184008533Y-92944415D01*
X184008533Y-92944415D02*
X184056152Y-92992034D01*
X184056152Y-92992034D02*
X184103771Y-93087272D01*
X184103771Y-93087272D02*
X184103771Y-93182510D01*
X184103771Y-93182510D02*
X184056152Y-93325367D01*
X184056152Y-93325367D02*
X183484724Y-93896796D01*
X183484724Y-93896796D02*
X184103771Y-93896796D01*
X184960914Y-93230129D02*
X184960914Y-93896796D01*
X184722819Y-92849177D02*
X184484724Y-93563462D01*
X184484724Y-93563462D02*
X185103771Y-93563462D01*
X124026714Y-88457419D02*
X124026714Y-87457419D01*
X124026714Y-87457419D02*
X124264809Y-87457419D01*
X124264809Y-87457419D02*
X124407666Y-87505038D01*
X124407666Y-87505038D02*
X124502904Y-87600276D01*
X124502904Y-87600276D02*
X124550523Y-87695514D01*
X124550523Y-87695514D02*
X124598142Y-87885990D01*
X124598142Y-87885990D02*
X124598142Y-88028847D01*
X124598142Y-88028847D02*
X124550523Y-88219323D01*
X124550523Y-88219323D02*
X124502904Y-88314561D01*
X124502904Y-88314561D02*
X124407666Y-88409800D01*
X124407666Y-88409800D02*
X124264809Y-88457419D01*
X124264809Y-88457419D02*
X124026714Y-88457419D01*
X125550523Y-88457419D02*
X124979095Y-88457419D01*
X125264809Y-88457419D02*
X125264809Y-87457419D01*
X125264809Y-87457419D02*
X125169571Y-87600276D01*
X125169571Y-87600276D02*
X125074333Y-87695514D01*
X125074333Y-87695514D02*
X124979095Y-87743133D01*
X126169571Y-87457419D02*
X126264809Y-87457419D01*
X126264809Y-87457419D02*
X126360047Y-87505038D01*
X126360047Y-87505038D02*
X126407666Y-87552657D01*
X126407666Y-87552657D02*
X126455285Y-87647895D01*
X126455285Y-87647895D02*
X126502904Y-87838371D01*
X126502904Y-87838371D02*
X126502904Y-88076466D01*
X126502904Y-88076466D02*
X126455285Y-88266942D01*
X126455285Y-88266942D02*
X126407666Y-88362180D01*
X126407666Y-88362180D02*
X126360047Y-88409800D01*
X126360047Y-88409800D02*
X126264809Y-88457419D01*
X126264809Y-88457419D02*
X126169571Y-88457419D01*
X126169571Y-88457419D02*
X126074333Y-88409800D01*
X126074333Y-88409800D02*
X126026714Y-88362180D01*
X126026714Y-88362180D02*
X125979095Y-88266942D01*
X125979095Y-88266942D02*
X125931476Y-88076466D01*
X125931476Y-88076466D02*
X125931476Y-87838371D01*
X125931476Y-87838371D02*
X125979095Y-87647895D01*
X125979095Y-87647895D02*
X126026714Y-87552657D01*
X126026714Y-87552657D02*
X126074333Y-87505038D01*
X126074333Y-87505038D02*
X126169571Y-87457419D01*
X161268714Y-82728791D02*
X161268714Y-81728791D01*
X161268714Y-81728791D02*
X161506809Y-81728791D01*
X161506809Y-81728791D02*
X161649666Y-81776410D01*
X161649666Y-81776410D02*
X161744904Y-81871648D01*
X161744904Y-81871648D02*
X161792523Y-81966886D01*
X161792523Y-81966886D02*
X161840142Y-82157362D01*
X161840142Y-82157362D02*
X161840142Y-82300219D01*
X161840142Y-82300219D02*
X161792523Y-82490695D01*
X161792523Y-82490695D02*
X161744904Y-82585933D01*
X161744904Y-82585933D02*
X161649666Y-82681172D01*
X161649666Y-82681172D02*
X161506809Y-82728791D01*
X161506809Y-82728791D02*
X161268714Y-82728791D01*
X162792523Y-82728791D02*
X162221095Y-82728791D01*
X162506809Y-82728791D02*
X162506809Y-81728791D01*
X162506809Y-81728791D02*
X162411571Y-81871648D01*
X162411571Y-81871648D02*
X162316333Y-81966886D01*
X162316333Y-81966886D02*
X162221095Y-82014505D01*
X163268714Y-82728791D02*
X163459190Y-82728791D01*
X163459190Y-82728791D02*
X163554428Y-82681172D01*
X163554428Y-82681172D02*
X163602047Y-82633552D01*
X163602047Y-82633552D02*
X163697285Y-82490695D01*
X163697285Y-82490695D02*
X163744904Y-82300219D01*
X163744904Y-82300219D02*
X163744904Y-81919267D01*
X163744904Y-81919267D02*
X163697285Y-81824029D01*
X163697285Y-81824029D02*
X163649666Y-81776410D01*
X163649666Y-81776410D02*
X163554428Y-81728791D01*
X163554428Y-81728791D02*
X163363952Y-81728791D01*
X163363952Y-81728791D02*
X163268714Y-81776410D01*
X163268714Y-81776410D02*
X163221095Y-81824029D01*
X163221095Y-81824029D02*
X163173476Y-81919267D01*
X163173476Y-81919267D02*
X163173476Y-82157362D01*
X163173476Y-82157362D02*
X163221095Y-82252600D01*
X163221095Y-82252600D02*
X163268714Y-82300219D01*
X163268714Y-82300219D02*
X163363952Y-82347838D01*
X163363952Y-82347838D02*
X163554428Y-82347838D01*
X163554428Y-82347838D02*
X163649666Y-82300219D01*
X163649666Y-82300219D02*
X163697285Y-82252600D01*
X163697285Y-82252600D02*
X163744904Y-82157362D01*
X185785714Y-77107419D02*
X185785714Y-76107419D01*
X185785714Y-76107419D02*
X186023809Y-76107419D01*
X186023809Y-76107419D02*
X186166666Y-76155038D01*
X186166666Y-76155038D02*
X186261904Y-76250276D01*
X186261904Y-76250276D02*
X186309523Y-76345514D01*
X186309523Y-76345514D02*
X186357142Y-76535990D01*
X186357142Y-76535990D02*
X186357142Y-76678847D01*
X186357142Y-76678847D02*
X186309523Y-76869323D01*
X186309523Y-76869323D02*
X186261904Y-76964561D01*
X186261904Y-76964561D02*
X186166666Y-77059800D01*
X186166666Y-77059800D02*
X186023809Y-77107419D01*
X186023809Y-77107419D02*
X185785714Y-77107419D01*
X186738095Y-76202657D02*
X186785714Y-76155038D01*
X186785714Y-76155038D02*
X186880952Y-76107419D01*
X186880952Y-76107419D02*
X187119047Y-76107419D01*
X187119047Y-76107419D02*
X187214285Y-76155038D01*
X187214285Y-76155038D02*
X187261904Y-76202657D01*
X187261904Y-76202657D02*
X187309523Y-76297895D01*
X187309523Y-76297895D02*
X187309523Y-76393133D01*
X187309523Y-76393133D02*
X187261904Y-76535990D01*
X187261904Y-76535990D02*
X186690476Y-77107419D01*
X186690476Y-77107419D02*
X187309523Y-77107419D01*
X188214285Y-76107419D02*
X187738095Y-76107419D01*
X187738095Y-76107419D02*
X187690476Y-76583609D01*
X187690476Y-76583609D02*
X187738095Y-76535990D01*
X187738095Y-76535990D02*
X187833333Y-76488371D01*
X187833333Y-76488371D02*
X188071428Y-76488371D01*
X188071428Y-76488371D02*
X188166666Y-76535990D01*
X188166666Y-76535990D02*
X188214285Y-76583609D01*
X188214285Y-76583609D02*
X188261904Y-76678847D01*
X188261904Y-76678847D02*
X188261904Y-76916942D01*
X188261904Y-76916942D02*
X188214285Y-77012180D01*
X188214285Y-77012180D02*
X188166666Y-77059800D01*
X188166666Y-77059800D02*
X188071428Y-77107419D01*
X188071428Y-77107419D02*
X187833333Y-77107419D01*
X187833333Y-77107419D02*
X187738095Y-77059800D01*
X187738095Y-77059800D02*
X187690476Y-77012180D01*
X135441280Y-92839132D02*
X135441280Y-91839132D01*
X135441280Y-91839132D02*
X135679375Y-91839132D01*
X135679375Y-91839132D02*
X135822232Y-91886751D01*
X135822232Y-91886751D02*
X135917470Y-91981989D01*
X135917470Y-91981989D02*
X135965089Y-92077227D01*
X135965089Y-92077227D02*
X136012708Y-92267703D01*
X136012708Y-92267703D02*
X136012708Y-92410560D01*
X136012708Y-92410560D02*
X135965089Y-92601036D01*
X135965089Y-92601036D02*
X135917470Y-92696274D01*
X135917470Y-92696274D02*
X135822232Y-92791513D01*
X135822232Y-92791513D02*
X135679375Y-92839132D01*
X135679375Y-92839132D02*
X135441280Y-92839132D01*
X136965089Y-92839132D02*
X136393661Y-92839132D01*
X136679375Y-92839132D02*
X136679375Y-91839132D01*
X136679375Y-91839132D02*
X136584137Y-91981989D01*
X136584137Y-91981989D02*
X136488899Y-92077227D01*
X136488899Y-92077227D02*
X136393661Y-92124846D01*
X137346042Y-91934370D02*
X137393661Y-91886751D01*
X137393661Y-91886751D02*
X137488899Y-91839132D01*
X137488899Y-91839132D02*
X137726994Y-91839132D01*
X137726994Y-91839132D02*
X137822232Y-91886751D01*
X137822232Y-91886751D02*
X137869851Y-91934370D01*
X137869851Y-91934370D02*
X137917470Y-92029608D01*
X137917470Y-92029608D02*
X137917470Y-92124846D01*
X137917470Y-92124846D02*
X137869851Y-92267703D01*
X137869851Y-92267703D02*
X137298423Y-92839132D01*
X137298423Y-92839132D02*
X137917470Y-92839132D01*
D13*
X177408810Y-80617393D02*
X176932619Y-80950726D01*
X177408810Y-81188821D02*
X176408810Y-81188821D01*
X176408810Y-81188821D02*
X176408810Y-80807869D01*
X176408810Y-80807869D02*
X176456429Y-80712631D01*
X176456429Y-80712631D02*
X176504048Y-80665012D01*
X176504048Y-80665012D02*
X176599286Y-80617393D01*
X176599286Y-80617393D02*
X176742143Y-80617393D01*
X176742143Y-80617393D02*
X176837381Y-80665012D01*
X176837381Y-80665012D02*
X176885000Y-80712631D01*
X176885000Y-80712631D02*
X176932619Y-80807869D01*
X176932619Y-80807869D02*
X176932619Y-81188821D01*
X176742143Y-79760250D02*
X177408810Y-79760250D01*
X176361191Y-79998345D02*
X177075476Y-80236440D01*
X177075476Y-80236440D02*
X177075476Y-79617393D01*
D12*
%TO.C,D6*%
X106990000Y-83050000D02*
X110190000Y-83050000D01*
X106990000Y-86950000D02*
X106990000Y-83050000D01*
X110190000Y-86950000D02*
X106990000Y-86950000D01*
%TO.C,D5*%
X102852000Y-77050000D02*
X106052000Y-77050000D01*
X102852000Y-80950000D02*
X102852000Y-77050000D01*
X106052000Y-80950000D02*
X102852000Y-80950000D01*
%TO.C,D9*%
X119403000Y-77050000D02*
X122603000Y-77050000D01*
X119403000Y-80950000D02*
X119403000Y-77050000D01*
X122603000Y-80950000D02*
X119403000Y-80950000D01*
D14*
%TO.C,R2*%
X110360436Y-90090000D02*
X111814564Y-90090000D01*
X110360436Y-91910000D02*
X111814564Y-91910000D01*
D12*
%TO.C,D16*%
X148369000Y-89050000D02*
X151569000Y-89050000D01*
X148369000Y-92950000D02*
X148369000Y-89050000D01*
X151569000Y-92950000D02*
X148369000Y-92950000D01*
%TO.C,D14*%
X140093000Y-83050000D02*
X143293000Y-83050000D01*
X140093000Y-86950000D02*
X140093000Y-83050000D01*
X143293000Y-86950000D02*
X140093000Y-86950000D01*
%TO.C,D11*%
X127679000Y-89050000D02*
X130879000Y-89050000D01*
X127679000Y-92950000D02*
X127679000Y-89050000D01*
X130879000Y-92950000D02*
X127679000Y-92950000D01*
%TO.C,D1*%
X86300000Y-77050000D02*
X89500000Y-77050000D01*
X86300000Y-80950000D02*
X86300000Y-77050000D01*
X89500000Y-80950000D02*
X86300000Y-80950000D01*
%TO.C,D15*%
X144231000Y-77050000D02*
X147431000Y-77050000D01*
X144231000Y-80950000D02*
X144231000Y-77050000D01*
X147431000Y-80950000D02*
X144231000Y-80950000D01*
%TO.C,D22*%
X173097000Y-83550000D02*
X173097000Y-83930000D01*
X173097000Y-83550000D02*
X176697000Y-83550000D01*
X173097000Y-83930000D02*
X173477000Y-83550000D01*
X173097000Y-86450000D02*
X173097000Y-86070000D01*
X176697000Y-83550000D02*
X176697000Y-83930000D01*
X176697000Y-86070000D02*
X176697000Y-86450000D01*
X176697000Y-86450000D02*
X173097000Y-86450000D01*
%TO.C,D7*%
X111128000Y-83050000D02*
X114328000Y-83050000D01*
X111128000Y-86950000D02*
X111128000Y-83050000D01*
X114328000Y-86950000D02*
X111128000Y-86950000D01*
D14*
%TO.C,R1*%
X86090000Y-85639564D02*
X86090000Y-84185436D01*
X87910000Y-85639564D02*
X87910000Y-84185436D01*
%TO.C,R3*%
X141090000Y-79727064D02*
X141090000Y-78272936D01*
X142910000Y-79727064D02*
X142910000Y-78272936D01*
D12*
%TO.C,D21*%
X169059000Y-77050000D02*
X172259000Y-77050000D01*
X169059000Y-80950000D02*
X169059000Y-77050000D01*
X172259000Y-80950000D02*
X169059000Y-80950000D01*
%TO.C,D28*%
X198000000Y-83550000D02*
X198000000Y-83930000D01*
X198000000Y-83550000D02*
X201600000Y-83550000D01*
X198000000Y-83930000D02*
X198380000Y-83550000D01*
X198000000Y-86450000D02*
X198000000Y-86070000D01*
X201600000Y-83550000D02*
X201600000Y-83930000D01*
X201600000Y-86070000D02*
X201600000Y-86450000D01*
X201600000Y-86450000D02*
X198000000Y-86450000D01*
%TO.C,D20*%
X164921000Y-89050000D02*
X168121000Y-89050000D01*
X164921000Y-92950000D02*
X164921000Y-89050000D01*
X168121000Y-92950000D02*
X164921000Y-92950000D01*
%TO.C,D26*%
X189800000Y-77550000D02*
X189800000Y-77930000D01*
X189800000Y-77550000D02*
X193400000Y-77550000D01*
X189800000Y-77930000D02*
X190180000Y-77550000D01*
X189800000Y-80450000D02*
X189800000Y-80070000D01*
X193400000Y-77550000D02*
X193400000Y-77930000D01*
X193400000Y-80070000D02*
X193400000Y-80450000D01*
X193400000Y-80450000D02*
X189800000Y-80450000D01*
%TO.C,D17*%
X152507000Y-77050000D02*
X155707000Y-77050000D01*
X152507000Y-80950000D02*
X152507000Y-77050000D01*
X155707000Y-80950000D02*
X152507000Y-80950000D01*
%TO.C,D4*%
X98714000Y-89050000D02*
X101914000Y-89050000D01*
X98714000Y-92950000D02*
X98714000Y-89050000D01*
X101914000Y-92950000D02*
X98714000Y-92950000D01*
%TO.C,D29*%
X201200000Y-89550000D02*
X201200000Y-89930000D01*
X201200000Y-89550000D02*
X204800000Y-89550000D01*
X201200000Y-89930000D02*
X201580000Y-89550000D01*
X201200000Y-92450000D02*
X201200000Y-92070000D01*
X204800000Y-89550000D02*
X204800000Y-89930000D01*
X204800000Y-92070000D02*
X204800000Y-92450000D01*
X204800000Y-92450000D02*
X201200000Y-92450000D01*
%TO.C,D2*%
X90438000Y-83050000D02*
X93638000Y-83050000D01*
X90438000Y-86950000D02*
X90438000Y-83050000D01*
X93638000Y-86950000D02*
X90438000Y-86950000D01*
%TO.C,D3*%
X94576000Y-77050000D02*
X97776000Y-77050000D01*
X94576000Y-80950000D02*
X94576000Y-77050000D01*
X97776000Y-80950000D02*
X94576000Y-80950000D01*
%TO.C,D13*%
X135955000Y-77050000D02*
X139155000Y-77050000D01*
X135955000Y-80950000D02*
X135955000Y-77050000D01*
X139155000Y-80950000D02*
X135955000Y-80950000D01*
%TO.C,D18*%
X156645000Y-83050000D02*
X159845000Y-83050000D01*
X156645000Y-86950000D02*
X156645000Y-83050000D01*
X159845000Y-86950000D02*
X156645000Y-86950000D01*
%TO.C,D23*%
X177234000Y-89550000D02*
X177234000Y-89930000D01*
X177234000Y-89550000D02*
X180834000Y-89550000D01*
X177234000Y-89930000D02*
X177614000Y-89550000D01*
X177234000Y-92450000D02*
X177234000Y-92070000D01*
X180834000Y-89550000D02*
X180834000Y-89930000D01*
X180834000Y-92070000D02*
X180834000Y-92450000D01*
X180834000Y-92450000D02*
X177234000Y-92450000D01*
%TO.C,D30*%
X206200000Y-89550000D02*
X206200000Y-89930000D01*
X206200000Y-89550000D02*
X209800000Y-89550000D01*
X206200000Y-89930000D02*
X206580000Y-89550000D01*
X206200000Y-92450000D02*
X206200000Y-92070000D01*
X209800000Y-89550000D02*
X209800000Y-89930000D01*
X209800000Y-92070000D02*
X209800000Y-92450000D01*
X209800000Y-92450000D02*
X206200000Y-92450000D01*
%TO.C,D8*%
X115266000Y-89050000D02*
X118466000Y-89050000D01*
X115266000Y-92950000D02*
X115266000Y-89050000D01*
X118466000Y-92950000D02*
X115266000Y-92950000D01*
%TO.C,D27*%
X193300000Y-83550000D02*
X193300000Y-83930000D01*
X193300000Y-83550000D02*
X196900000Y-83550000D01*
X193300000Y-83930000D02*
X193680000Y-83550000D01*
X193300000Y-86450000D02*
X193300000Y-86070000D01*
X196900000Y-83550000D02*
X196900000Y-83930000D01*
X196900000Y-86070000D02*
X196900000Y-86450000D01*
X196900000Y-86450000D02*
X193300000Y-86450000D01*
%TO.C,D24*%
X182000000Y-89550000D02*
X182000000Y-89930000D01*
X182000000Y-89550000D02*
X185600000Y-89550000D01*
X182000000Y-89930000D02*
X182380000Y-89550000D01*
X182000000Y-92450000D02*
X182000000Y-92070000D01*
X185600000Y-89550000D02*
X185600000Y-89930000D01*
X185600000Y-92070000D02*
X185600000Y-92450000D01*
X185600000Y-92450000D02*
X182000000Y-92450000D01*
%TO.C,D10*%
X123541000Y-83050000D02*
X126741000Y-83050000D01*
X123541000Y-86950000D02*
X123541000Y-83050000D01*
X126741000Y-86950000D02*
X123541000Y-86950000D01*
%TO.C,D19*%
X160783000Y-83050000D02*
X163983000Y-83050000D01*
X160783000Y-86950000D02*
X160783000Y-83050000D01*
X163983000Y-86950000D02*
X160783000Y-86950000D01*
%TO.C,D25*%
X185200000Y-77550000D02*
X185200000Y-77930000D01*
X185200000Y-77550000D02*
X188800000Y-77550000D01*
X185200000Y-77930000D02*
X185580000Y-77550000D01*
X185200000Y-80450000D02*
X185200000Y-80070000D01*
X188800000Y-77550000D02*
X188800000Y-77930000D01*
X188800000Y-80070000D02*
X188800000Y-80450000D01*
X188800000Y-80450000D02*
X185200000Y-80450000D01*
%TO.C,D12*%
X131817000Y-89050000D02*
X135017000Y-89050000D01*
X131817000Y-92950000D02*
X131817000Y-89050000D01*
X135017000Y-92950000D02*
X131817000Y-92950000D01*
D14*
%TO.C,R4*%
X174223991Y-79723663D02*
X174223991Y-81177791D01*
X176043991Y-79723663D02*
X176043991Y-81177791D01*
%TD*%
%LPC*%
D12*
X220000000Y-90000000D02*
X223000000Y-90000000D01*
X223000000Y-95000000D01*
X220000000Y-95000000D01*
X220000000Y-90000000D01*
G36*
X220000000Y-90000000D02*
G01*
X223000000Y-90000000D01*
X223000000Y-95000000D01*
X220000000Y-95000000D01*
X220000000Y-90000000D01*
G37*
X73000000Y-90000000D02*
X76000000Y-90000000D01*
X76000000Y-95000000D01*
X73000000Y-95000000D01*
X73000000Y-90000000D01*
G36*
X73000000Y-90000000D02*
G01*
X76000000Y-90000000D01*
X76000000Y-95000000D01*
X73000000Y-95000000D01*
X73000000Y-90000000D01*
G37*
X220000000Y-75000000D02*
X223000000Y-75000000D01*
X223000000Y-80000000D01*
X220000000Y-80000000D01*
X220000000Y-75000000D01*
G36*
X220000000Y-75000000D02*
G01*
X223000000Y-75000000D01*
X223000000Y-80000000D01*
X220000000Y-80000000D01*
X220000000Y-75000000D01*
G37*
X73000000Y-75000000D02*
X76000000Y-75000000D01*
X76000000Y-80000000D01*
X73000000Y-80000000D01*
X73000000Y-75000000D01*
G36*
X73000000Y-75000000D02*
G01*
X76000000Y-75000000D01*
X76000000Y-80000000D01*
X73000000Y-80000000D01*
X73000000Y-75000000D01*
G37*
D15*
%TO.C,D6*%
X109465000Y-85000000D03*
D16*
X107915000Y-85000000D03*
%TD*%
D15*
%TO.C,D5*%
X105327000Y-79000000D03*
D16*
X103777000Y-79000000D03*
%TD*%
D15*
%TO.C,D9*%
X121878000Y-79000000D03*
D16*
X120328000Y-79000000D03*
%TD*%
D17*
%TO.C,REF\u002A\u002A*%
X80000000Y-85000000D03*
%TD*%
D18*
%TO.C,R2*%
X109625000Y-91000000D03*
X112550000Y-91000000D03*
%TD*%
D15*
%TO.C,D16*%
X150844000Y-91000000D03*
D16*
X149294000Y-91000000D03*
%TD*%
D15*
%TO.C,D14*%
X142568000Y-85000000D03*
D16*
X141018000Y-85000000D03*
%TD*%
D15*
%TO.C,D11*%
X130154000Y-91000000D03*
D16*
X128604000Y-91000000D03*
%TD*%
D15*
%TO.C,D1*%
X88775000Y-79000000D03*
D16*
X87225000Y-79000000D03*
%TD*%
D15*
%TO.C,D15*%
X146706000Y-79000000D03*
D16*
X145156000Y-79000000D03*
%TD*%
D19*
%TO.C,D22*%
X176162000Y-85000000D03*
D20*
X174162000Y-85000000D03*
%TD*%
D15*
%TO.C,D7*%
X113603000Y-85000000D03*
D16*
X112053000Y-85000000D03*
%TD*%
D21*
%TO.C,R1*%
X87000000Y-86375000D03*
X87000000Y-83450000D03*
%TD*%
%TO.C,R3*%
X142000000Y-80462500D03*
X142000000Y-77537500D03*
%TD*%
D15*
%TO.C,D21*%
X171534000Y-79000000D03*
D16*
X169984000Y-79000000D03*
%TD*%
D19*
%TO.C,D28*%
X201065000Y-85000000D03*
D20*
X199065000Y-85000000D03*
%TD*%
D15*
%TO.C,D20*%
X167396000Y-91000000D03*
D16*
X165846000Y-91000000D03*
%TD*%
D19*
%TO.C,D26*%
X192865000Y-79000000D03*
D20*
X190865000Y-79000000D03*
%TD*%
D15*
%TO.C,D17*%
X154982000Y-79000000D03*
D16*
X153432000Y-79000000D03*
%TD*%
D15*
%TO.C,D4*%
X101189000Y-91000000D03*
D16*
X99639000Y-91000000D03*
%TD*%
D19*
%TO.C,D29*%
X204265000Y-91000000D03*
D20*
X202265000Y-91000000D03*
%TD*%
D15*
%TO.C,D2*%
X92913000Y-85000000D03*
D16*
X91363000Y-85000000D03*
%TD*%
D15*
%TO.C,D3*%
X97051000Y-79000000D03*
D16*
X95501000Y-79000000D03*
%TD*%
D15*
%TO.C,D13*%
X138430000Y-79000000D03*
D16*
X136880000Y-79000000D03*
%TD*%
D15*
%TO.C,D18*%
X159120000Y-85000000D03*
D16*
X157570000Y-85000000D03*
%TD*%
D19*
%TO.C,D23*%
X180299000Y-91000000D03*
D20*
X178299000Y-91000000D03*
%TD*%
D17*
%TO.C,REF\u002A\u002A*%
X216000000Y-85000000D03*
%TD*%
D19*
%TO.C,D30*%
X209265000Y-91000000D03*
D20*
X207265000Y-91000000D03*
%TD*%
D15*
%TO.C,D8*%
X117741000Y-91000000D03*
D16*
X116191000Y-91000000D03*
%TD*%
D19*
%TO.C,D27*%
X196365000Y-85000000D03*
D20*
X194365000Y-85000000D03*
%TD*%
D19*
%TO.C,D24*%
X185065000Y-91000000D03*
D20*
X183065000Y-91000000D03*
%TD*%
D15*
%TO.C,D10*%
X126016000Y-85000000D03*
D16*
X124466000Y-85000000D03*
%TD*%
D15*
%TO.C,D19*%
X163258000Y-85000000D03*
D16*
X161708000Y-85000000D03*
%TD*%
D19*
%TO.C,D25*%
X188265000Y-79000000D03*
D20*
X186265000Y-79000000D03*
%TD*%
D15*
%TO.C,D12*%
X134292000Y-91000000D03*
D16*
X132742000Y-91000000D03*
%TD*%
D22*
%TO.C,R4*%
X175133991Y-78988227D03*
X175133991Y-81913227D03*
%TD*%
%LPD*%
M02*
