%TF.GenerationSoftware,KiCad,Pcbnew,9.0.1-9.0.1-0~ubuntu24.04.1*%
%TF.CreationDate,2025-04-21T13:30:09+00:00*%
%TF.ProjectId,growbeam,67726f77-6265-4616-9d2e-6b696361645f,rev?*%
%TF.SameCoordinates,Original*%
%TF.FileFunction,AssemblyDrawing,Top*%
%FSLAX46Y46*%
G04 Gerber Fmt 4.6, Leading zero omitted, Abs format (unit mm)*
G04 Created by KiCad (PCBNEW 9.0.1-9.0.1-0~ubuntu24.04.1) date 2025-04-21 13:30:09*
%MOMM*%
%LPD*%
G01*
G04 APERTURE LIST*
%ADD10C,0.150000*%
%ADD11C,0.120000*%
%ADD12C,0.100000*%
G04 APERTURE END LIST*
D10*
X109428094Y-84545180D02*
X109428094Y-85545180D01*
X109428094Y-85545180D02*
X109189999Y-85545180D01*
X109189999Y-85545180D02*
X109047142Y-85497561D01*
X109047142Y-85497561D02*
X108951904Y-85402323D01*
X108951904Y-85402323D02*
X108904285Y-85307085D01*
X108904285Y-85307085D02*
X108856666Y-85116609D01*
X108856666Y-85116609D02*
X108856666Y-84973752D01*
X108856666Y-84973752D02*
X108904285Y-84783276D01*
X108904285Y-84783276D02*
X108951904Y-84688038D01*
X108951904Y-84688038D02*
X109047142Y-84592800D01*
X109047142Y-84592800D02*
X109189999Y-84545180D01*
X109189999Y-84545180D02*
X109428094Y-84545180D01*
X107999523Y-85545180D02*
X108189999Y-85545180D01*
X108189999Y-85545180D02*
X108285237Y-85497561D01*
X108285237Y-85497561D02*
X108332856Y-85449942D01*
X108332856Y-85449942D02*
X108428094Y-85307085D01*
X108428094Y-85307085D02*
X108475713Y-85116609D01*
X108475713Y-85116609D02*
X108475713Y-84735657D01*
X108475713Y-84735657D02*
X108428094Y-84640419D01*
X108428094Y-84640419D02*
X108380475Y-84592800D01*
X108380475Y-84592800D02*
X108285237Y-84545180D01*
X108285237Y-84545180D02*
X108094761Y-84545180D01*
X108094761Y-84545180D02*
X107999523Y-84592800D01*
X107999523Y-84592800D02*
X107951904Y-84640419D01*
X107951904Y-84640419D02*
X107904285Y-84735657D01*
X107904285Y-84735657D02*
X107904285Y-84973752D01*
X107904285Y-84973752D02*
X107951904Y-85068990D01*
X107951904Y-85068990D02*
X107999523Y-85116609D01*
X107999523Y-85116609D02*
X108094761Y-85164228D01*
X108094761Y-85164228D02*
X108285237Y-85164228D01*
X108285237Y-85164228D02*
X108380475Y-85116609D01*
X108380475Y-85116609D02*
X108428094Y-85068990D01*
X108428094Y-85068990D02*
X108475713Y-84973752D01*
X105290094Y-78545180D02*
X105290094Y-79545180D01*
X105290094Y-79545180D02*
X105051999Y-79545180D01*
X105051999Y-79545180D02*
X104909142Y-79497561D01*
X104909142Y-79497561D02*
X104813904Y-79402323D01*
X104813904Y-79402323D02*
X104766285Y-79307085D01*
X104766285Y-79307085D02*
X104718666Y-79116609D01*
X104718666Y-79116609D02*
X104718666Y-78973752D01*
X104718666Y-78973752D02*
X104766285Y-78783276D01*
X104766285Y-78783276D02*
X104813904Y-78688038D01*
X104813904Y-78688038D02*
X104909142Y-78592800D01*
X104909142Y-78592800D02*
X105051999Y-78545180D01*
X105051999Y-78545180D02*
X105290094Y-78545180D01*
X103813904Y-79545180D02*
X104290094Y-79545180D01*
X104290094Y-79545180D02*
X104337713Y-79068990D01*
X104337713Y-79068990D02*
X104290094Y-79116609D01*
X104290094Y-79116609D02*
X104194856Y-79164228D01*
X104194856Y-79164228D02*
X103956761Y-79164228D01*
X103956761Y-79164228D02*
X103861523Y-79116609D01*
X103861523Y-79116609D02*
X103813904Y-79068990D01*
X103813904Y-79068990D02*
X103766285Y-78973752D01*
X103766285Y-78973752D02*
X103766285Y-78735657D01*
X103766285Y-78735657D02*
X103813904Y-78640419D01*
X103813904Y-78640419D02*
X103861523Y-78592800D01*
X103861523Y-78592800D02*
X103956761Y-78545180D01*
X103956761Y-78545180D02*
X104194856Y-78545180D01*
X104194856Y-78545180D02*
X104290094Y-78592800D01*
X104290094Y-78592800D02*
X104337713Y-78640419D01*
X121841094Y-78545180D02*
X121841094Y-79545180D01*
X121841094Y-79545180D02*
X121602999Y-79545180D01*
X121602999Y-79545180D02*
X121460142Y-79497561D01*
X121460142Y-79497561D02*
X121364904Y-79402323D01*
X121364904Y-79402323D02*
X121317285Y-79307085D01*
X121317285Y-79307085D02*
X121269666Y-79116609D01*
X121269666Y-79116609D02*
X121269666Y-78973752D01*
X121269666Y-78973752D02*
X121317285Y-78783276D01*
X121317285Y-78783276D02*
X121364904Y-78688038D01*
X121364904Y-78688038D02*
X121460142Y-78592800D01*
X121460142Y-78592800D02*
X121602999Y-78545180D01*
X121602999Y-78545180D02*
X121841094Y-78545180D01*
X120793475Y-78545180D02*
X120602999Y-78545180D01*
X120602999Y-78545180D02*
X120507761Y-78592800D01*
X120507761Y-78592800D02*
X120460142Y-78640419D01*
X120460142Y-78640419D02*
X120364904Y-78783276D01*
X120364904Y-78783276D02*
X120317285Y-78973752D01*
X120317285Y-78973752D02*
X120317285Y-79354704D01*
X120317285Y-79354704D02*
X120364904Y-79449942D01*
X120364904Y-79449942D02*
X120412523Y-79497561D01*
X120412523Y-79497561D02*
X120507761Y-79545180D01*
X120507761Y-79545180D02*
X120698237Y-79545180D01*
X120698237Y-79545180D02*
X120793475Y-79497561D01*
X120793475Y-79497561D02*
X120841094Y-79449942D01*
X120841094Y-79449942D02*
X120888713Y-79354704D01*
X120888713Y-79354704D02*
X120888713Y-79116609D01*
X120888713Y-79116609D02*
X120841094Y-79021371D01*
X120841094Y-79021371D02*
X120793475Y-78973752D01*
X120793475Y-78973752D02*
X120698237Y-78926133D01*
X120698237Y-78926133D02*
X120507761Y-78926133D01*
X120507761Y-78926133D02*
X120412523Y-78973752D01*
X120412523Y-78973752D02*
X120364904Y-79021371D01*
X120364904Y-79021371D02*
X120317285Y-79116609D01*
X78666666Y-85454819D02*
X78333333Y-84978628D01*
X78095238Y-85454819D02*
X78095238Y-84454819D01*
X78095238Y-84454819D02*
X78476190Y-84454819D01*
X78476190Y-84454819D02*
X78571428Y-84502438D01*
X78571428Y-84502438D02*
X78619047Y-84550057D01*
X78619047Y-84550057D02*
X78666666Y-84645295D01*
X78666666Y-84645295D02*
X78666666Y-84788152D01*
X78666666Y-84788152D02*
X78619047Y-84883390D01*
X78619047Y-84883390D02*
X78571428Y-84931009D01*
X78571428Y-84931009D02*
X78476190Y-84978628D01*
X78476190Y-84978628D02*
X78095238Y-84978628D01*
X79095238Y-84931009D02*
X79428571Y-84931009D01*
X79571428Y-85454819D02*
X79095238Y-85454819D01*
X79095238Y-85454819D02*
X79095238Y-84454819D01*
X79095238Y-84454819D02*
X79571428Y-84454819D01*
X80333333Y-84931009D02*
X80000000Y-84931009D01*
X80000000Y-85454819D02*
X80000000Y-84454819D01*
X80000000Y-84454819D02*
X80476190Y-84454819D01*
X81000000Y-84454819D02*
X81000000Y-84692914D01*
X80761905Y-84597676D02*
X81000000Y-84692914D01*
X81000000Y-84692914D02*
X81238095Y-84597676D01*
X80857143Y-84883390D02*
X81000000Y-84692914D01*
X81000000Y-84692914D02*
X81142857Y-84883390D01*
X81761905Y-84454819D02*
X81761905Y-84692914D01*
X81523810Y-84597676D02*
X81761905Y-84692914D01*
X81761905Y-84692914D02*
X82000000Y-84597676D01*
X81619048Y-84883390D02*
X81761905Y-84692914D01*
X81761905Y-84692914D02*
X81904762Y-84883390D01*
D11*
X110954167Y-91363855D02*
X110687500Y-90982902D01*
X110497024Y-91363855D02*
X110497024Y-90563855D01*
X110497024Y-90563855D02*
X110801786Y-90563855D01*
X110801786Y-90563855D02*
X110877976Y-90601950D01*
X110877976Y-90601950D02*
X110916071Y-90640045D01*
X110916071Y-90640045D02*
X110954167Y-90716236D01*
X110954167Y-90716236D02*
X110954167Y-90830521D01*
X110954167Y-90830521D02*
X110916071Y-90906712D01*
X110916071Y-90906712D02*
X110877976Y-90944807D01*
X110877976Y-90944807D02*
X110801786Y-90982902D01*
X110801786Y-90982902D02*
X110497024Y-90982902D01*
X111258928Y-90640045D02*
X111297024Y-90601950D01*
X111297024Y-90601950D02*
X111373214Y-90563855D01*
X111373214Y-90563855D02*
X111563690Y-90563855D01*
X111563690Y-90563855D02*
X111639881Y-90601950D01*
X111639881Y-90601950D02*
X111677976Y-90640045D01*
X111677976Y-90640045D02*
X111716071Y-90716236D01*
X111716071Y-90716236D02*
X111716071Y-90792426D01*
X111716071Y-90792426D02*
X111677976Y-90906712D01*
X111677976Y-90906712D02*
X111220833Y-91363855D01*
X111220833Y-91363855D02*
X111716071Y-91363855D01*
D10*
X151283285Y-90545180D02*
X151283285Y-91545180D01*
X151283285Y-91545180D02*
X151045190Y-91545180D01*
X151045190Y-91545180D02*
X150902333Y-91497561D01*
X150902333Y-91497561D02*
X150807095Y-91402323D01*
X150807095Y-91402323D02*
X150759476Y-91307085D01*
X150759476Y-91307085D02*
X150711857Y-91116609D01*
X150711857Y-91116609D02*
X150711857Y-90973752D01*
X150711857Y-90973752D02*
X150759476Y-90783276D01*
X150759476Y-90783276D02*
X150807095Y-90688038D01*
X150807095Y-90688038D02*
X150902333Y-90592800D01*
X150902333Y-90592800D02*
X151045190Y-90545180D01*
X151045190Y-90545180D02*
X151283285Y-90545180D01*
X149759476Y-90545180D02*
X150330904Y-90545180D01*
X150045190Y-90545180D02*
X150045190Y-91545180D01*
X150045190Y-91545180D02*
X150140428Y-91402323D01*
X150140428Y-91402323D02*
X150235666Y-91307085D01*
X150235666Y-91307085D02*
X150330904Y-91259466D01*
X148902333Y-91545180D02*
X149092809Y-91545180D01*
X149092809Y-91545180D02*
X149188047Y-91497561D01*
X149188047Y-91497561D02*
X149235666Y-91449942D01*
X149235666Y-91449942D02*
X149330904Y-91307085D01*
X149330904Y-91307085D02*
X149378523Y-91116609D01*
X149378523Y-91116609D02*
X149378523Y-90735657D01*
X149378523Y-90735657D02*
X149330904Y-90640419D01*
X149330904Y-90640419D02*
X149283285Y-90592800D01*
X149283285Y-90592800D02*
X149188047Y-90545180D01*
X149188047Y-90545180D02*
X148997571Y-90545180D01*
X148997571Y-90545180D02*
X148902333Y-90592800D01*
X148902333Y-90592800D02*
X148854714Y-90640419D01*
X148854714Y-90640419D02*
X148807095Y-90735657D01*
X148807095Y-90735657D02*
X148807095Y-90973752D01*
X148807095Y-90973752D02*
X148854714Y-91068990D01*
X148854714Y-91068990D02*
X148902333Y-91116609D01*
X148902333Y-91116609D02*
X148997571Y-91164228D01*
X148997571Y-91164228D02*
X149188047Y-91164228D01*
X149188047Y-91164228D02*
X149283285Y-91116609D01*
X149283285Y-91116609D02*
X149330904Y-91068990D01*
X149330904Y-91068990D02*
X149378523Y-90973752D01*
X143007285Y-84545180D02*
X143007285Y-85545180D01*
X143007285Y-85545180D02*
X142769190Y-85545180D01*
X142769190Y-85545180D02*
X142626333Y-85497561D01*
X142626333Y-85497561D02*
X142531095Y-85402323D01*
X142531095Y-85402323D02*
X142483476Y-85307085D01*
X142483476Y-85307085D02*
X142435857Y-85116609D01*
X142435857Y-85116609D02*
X142435857Y-84973752D01*
X142435857Y-84973752D02*
X142483476Y-84783276D01*
X142483476Y-84783276D02*
X142531095Y-84688038D01*
X142531095Y-84688038D02*
X142626333Y-84592800D01*
X142626333Y-84592800D02*
X142769190Y-84545180D01*
X142769190Y-84545180D02*
X143007285Y-84545180D01*
X141483476Y-84545180D02*
X142054904Y-84545180D01*
X141769190Y-84545180D02*
X141769190Y-85545180D01*
X141769190Y-85545180D02*
X141864428Y-85402323D01*
X141864428Y-85402323D02*
X141959666Y-85307085D01*
X141959666Y-85307085D02*
X142054904Y-85259466D01*
X140626333Y-85211847D02*
X140626333Y-84545180D01*
X140864428Y-85592800D02*
X141102523Y-84878514D01*
X141102523Y-84878514D02*
X140483476Y-84878514D01*
X130593285Y-90545180D02*
X130593285Y-91545180D01*
X130593285Y-91545180D02*
X130355190Y-91545180D01*
X130355190Y-91545180D02*
X130212333Y-91497561D01*
X130212333Y-91497561D02*
X130117095Y-91402323D01*
X130117095Y-91402323D02*
X130069476Y-91307085D01*
X130069476Y-91307085D02*
X130021857Y-91116609D01*
X130021857Y-91116609D02*
X130021857Y-90973752D01*
X130021857Y-90973752D02*
X130069476Y-90783276D01*
X130069476Y-90783276D02*
X130117095Y-90688038D01*
X130117095Y-90688038D02*
X130212333Y-90592800D01*
X130212333Y-90592800D02*
X130355190Y-90545180D01*
X130355190Y-90545180D02*
X130593285Y-90545180D01*
X129069476Y-90545180D02*
X129640904Y-90545180D01*
X129355190Y-90545180D02*
X129355190Y-91545180D01*
X129355190Y-91545180D02*
X129450428Y-91402323D01*
X129450428Y-91402323D02*
X129545666Y-91307085D01*
X129545666Y-91307085D02*
X129640904Y-91259466D01*
X128117095Y-90545180D02*
X128688523Y-90545180D01*
X128402809Y-90545180D02*
X128402809Y-91545180D01*
X128402809Y-91545180D02*
X128498047Y-91402323D01*
X128498047Y-91402323D02*
X128593285Y-91307085D01*
X128593285Y-91307085D02*
X128688523Y-91259466D01*
X88738094Y-78545180D02*
X88738094Y-79545180D01*
X88738094Y-79545180D02*
X88499999Y-79545180D01*
X88499999Y-79545180D02*
X88357142Y-79497561D01*
X88357142Y-79497561D02*
X88261904Y-79402323D01*
X88261904Y-79402323D02*
X88214285Y-79307085D01*
X88214285Y-79307085D02*
X88166666Y-79116609D01*
X88166666Y-79116609D02*
X88166666Y-78973752D01*
X88166666Y-78973752D02*
X88214285Y-78783276D01*
X88214285Y-78783276D02*
X88261904Y-78688038D01*
X88261904Y-78688038D02*
X88357142Y-78592800D01*
X88357142Y-78592800D02*
X88499999Y-78545180D01*
X88499999Y-78545180D02*
X88738094Y-78545180D01*
X87214285Y-78545180D02*
X87785713Y-78545180D01*
X87499999Y-78545180D02*
X87499999Y-79545180D01*
X87499999Y-79545180D02*
X87595237Y-79402323D01*
X87595237Y-79402323D02*
X87690475Y-79307085D01*
X87690475Y-79307085D02*
X87785713Y-79259466D01*
X147145285Y-78545180D02*
X147145285Y-79545180D01*
X147145285Y-79545180D02*
X146907190Y-79545180D01*
X146907190Y-79545180D02*
X146764333Y-79497561D01*
X146764333Y-79497561D02*
X146669095Y-79402323D01*
X146669095Y-79402323D02*
X146621476Y-79307085D01*
X146621476Y-79307085D02*
X146573857Y-79116609D01*
X146573857Y-79116609D02*
X146573857Y-78973752D01*
X146573857Y-78973752D02*
X146621476Y-78783276D01*
X146621476Y-78783276D02*
X146669095Y-78688038D01*
X146669095Y-78688038D02*
X146764333Y-78592800D01*
X146764333Y-78592800D02*
X146907190Y-78545180D01*
X146907190Y-78545180D02*
X147145285Y-78545180D01*
X145621476Y-78545180D02*
X146192904Y-78545180D01*
X145907190Y-78545180D02*
X145907190Y-79545180D01*
X145907190Y-79545180D02*
X146002428Y-79402323D01*
X146002428Y-79402323D02*
X146097666Y-79307085D01*
X146097666Y-79307085D02*
X146192904Y-79259466D01*
X144716714Y-79545180D02*
X145192904Y-79545180D01*
X145192904Y-79545180D02*
X145240523Y-79068990D01*
X145240523Y-79068990D02*
X145192904Y-79116609D01*
X145192904Y-79116609D02*
X145097666Y-79164228D01*
X145097666Y-79164228D02*
X144859571Y-79164228D01*
X144859571Y-79164228D02*
X144764333Y-79116609D01*
X144764333Y-79116609D02*
X144716714Y-79068990D01*
X144716714Y-79068990D02*
X144669095Y-78973752D01*
X144669095Y-78973752D02*
X144669095Y-78735657D01*
X144669095Y-78735657D02*
X144716714Y-78640419D01*
X144716714Y-78640419D02*
X144764333Y-78592800D01*
X144764333Y-78592800D02*
X144859571Y-78545180D01*
X144859571Y-78545180D02*
X145097666Y-78545180D01*
X145097666Y-78545180D02*
X145192904Y-78592800D01*
X145192904Y-78592800D02*
X145240523Y-78640419D01*
X113566094Y-84545180D02*
X113566094Y-85545180D01*
X113566094Y-85545180D02*
X113327999Y-85545180D01*
X113327999Y-85545180D02*
X113185142Y-85497561D01*
X113185142Y-85497561D02*
X113089904Y-85402323D01*
X113089904Y-85402323D02*
X113042285Y-85307085D01*
X113042285Y-85307085D02*
X112994666Y-85116609D01*
X112994666Y-85116609D02*
X112994666Y-84973752D01*
X112994666Y-84973752D02*
X113042285Y-84783276D01*
X113042285Y-84783276D02*
X113089904Y-84688038D01*
X113089904Y-84688038D02*
X113185142Y-84592800D01*
X113185142Y-84592800D02*
X113327999Y-84545180D01*
X113327999Y-84545180D02*
X113566094Y-84545180D01*
X112661332Y-85545180D02*
X111994666Y-85545180D01*
X111994666Y-85545180D02*
X112423237Y-84545180D01*
D11*
X87363855Y-85045832D02*
X86982902Y-85312499D01*
X87363855Y-85502975D02*
X86563855Y-85502975D01*
X86563855Y-85502975D02*
X86563855Y-85198213D01*
X86563855Y-85198213D02*
X86601950Y-85122023D01*
X86601950Y-85122023D02*
X86640045Y-85083928D01*
X86640045Y-85083928D02*
X86716236Y-85045832D01*
X86716236Y-85045832D02*
X86830521Y-85045832D01*
X86830521Y-85045832D02*
X86906712Y-85083928D01*
X86906712Y-85083928D02*
X86944807Y-85122023D01*
X86944807Y-85122023D02*
X86982902Y-85198213D01*
X86982902Y-85198213D02*
X86982902Y-85502975D01*
X87363855Y-84283928D02*
X87363855Y-84741071D01*
X87363855Y-84512499D02*
X86563855Y-84512499D01*
X86563855Y-84512499D02*
X86678140Y-84588690D01*
X86678140Y-84588690D02*
X86754331Y-84664880D01*
X86754331Y-84664880D02*
X86792426Y-84741071D01*
X142363855Y-79133332D02*
X141982902Y-79399999D01*
X142363855Y-79590475D02*
X141563855Y-79590475D01*
X141563855Y-79590475D02*
X141563855Y-79285713D01*
X141563855Y-79285713D02*
X141601950Y-79209523D01*
X141601950Y-79209523D02*
X141640045Y-79171428D01*
X141640045Y-79171428D02*
X141716236Y-79133332D01*
X141716236Y-79133332D02*
X141830521Y-79133332D01*
X141830521Y-79133332D02*
X141906712Y-79171428D01*
X141906712Y-79171428D02*
X141944807Y-79209523D01*
X141944807Y-79209523D02*
X141982902Y-79285713D01*
X141982902Y-79285713D02*
X141982902Y-79590475D01*
X141563855Y-78866666D02*
X141563855Y-78371428D01*
X141563855Y-78371428D02*
X141868617Y-78638094D01*
X141868617Y-78638094D02*
X141868617Y-78523809D01*
X141868617Y-78523809D02*
X141906712Y-78447618D01*
X141906712Y-78447618D02*
X141944807Y-78409523D01*
X141944807Y-78409523D02*
X142020998Y-78371428D01*
X142020998Y-78371428D02*
X142211474Y-78371428D01*
X142211474Y-78371428D02*
X142287664Y-78409523D01*
X142287664Y-78409523D02*
X142325760Y-78447618D01*
X142325760Y-78447618D02*
X142363855Y-78523809D01*
X142363855Y-78523809D02*
X142363855Y-78752380D01*
X142363855Y-78752380D02*
X142325760Y-78828571D01*
X142325760Y-78828571D02*
X142287664Y-78866666D01*
D10*
X171973285Y-78545180D02*
X171973285Y-79545180D01*
X171973285Y-79545180D02*
X171735190Y-79545180D01*
X171735190Y-79545180D02*
X171592333Y-79497561D01*
X171592333Y-79497561D02*
X171497095Y-79402323D01*
X171497095Y-79402323D02*
X171449476Y-79307085D01*
X171449476Y-79307085D02*
X171401857Y-79116609D01*
X171401857Y-79116609D02*
X171401857Y-78973752D01*
X171401857Y-78973752D02*
X171449476Y-78783276D01*
X171449476Y-78783276D02*
X171497095Y-78688038D01*
X171497095Y-78688038D02*
X171592333Y-78592800D01*
X171592333Y-78592800D02*
X171735190Y-78545180D01*
X171735190Y-78545180D02*
X171973285Y-78545180D01*
X171020904Y-79449942D02*
X170973285Y-79497561D01*
X170973285Y-79497561D02*
X170878047Y-79545180D01*
X170878047Y-79545180D02*
X170639952Y-79545180D01*
X170639952Y-79545180D02*
X170544714Y-79497561D01*
X170544714Y-79497561D02*
X170497095Y-79449942D01*
X170497095Y-79449942D02*
X170449476Y-79354704D01*
X170449476Y-79354704D02*
X170449476Y-79259466D01*
X170449476Y-79259466D02*
X170497095Y-79116609D01*
X170497095Y-79116609D02*
X171068523Y-78545180D01*
X171068523Y-78545180D02*
X170449476Y-78545180D01*
X169497095Y-78545180D02*
X170068523Y-78545180D01*
X169782809Y-78545180D02*
X169782809Y-79545180D01*
X169782809Y-79545180D02*
X169878047Y-79402323D01*
X169878047Y-79402323D02*
X169973285Y-79307085D01*
X169973285Y-79307085D02*
X170068523Y-79259466D01*
X167835285Y-90545180D02*
X167835285Y-91545180D01*
X167835285Y-91545180D02*
X167597190Y-91545180D01*
X167597190Y-91545180D02*
X167454333Y-91497561D01*
X167454333Y-91497561D02*
X167359095Y-91402323D01*
X167359095Y-91402323D02*
X167311476Y-91307085D01*
X167311476Y-91307085D02*
X167263857Y-91116609D01*
X167263857Y-91116609D02*
X167263857Y-90973752D01*
X167263857Y-90973752D02*
X167311476Y-90783276D01*
X167311476Y-90783276D02*
X167359095Y-90688038D01*
X167359095Y-90688038D02*
X167454333Y-90592800D01*
X167454333Y-90592800D02*
X167597190Y-90545180D01*
X167597190Y-90545180D02*
X167835285Y-90545180D01*
X166882904Y-91449942D02*
X166835285Y-91497561D01*
X166835285Y-91497561D02*
X166740047Y-91545180D01*
X166740047Y-91545180D02*
X166501952Y-91545180D01*
X166501952Y-91545180D02*
X166406714Y-91497561D01*
X166406714Y-91497561D02*
X166359095Y-91449942D01*
X166359095Y-91449942D02*
X166311476Y-91354704D01*
X166311476Y-91354704D02*
X166311476Y-91259466D01*
X166311476Y-91259466D02*
X166359095Y-91116609D01*
X166359095Y-91116609D02*
X166930523Y-90545180D01*
X166930523Y-90545180D02*
X166311476Y-90545180D01*
X165692428Y-91545180D02*
X165597190Y-91545180D01*
X165597190Y-91545180D02*
X165501952Y-91497561D01*
X165501952Y-91497561D02*
X165454333Y-91449942D01*
X165454333Y-91449942D02*
X165406714Y-91354704D01*
X165406714Y-91354704D02*
X165359095Y-91164228D01*
X165359095Y-91164228D02*
X165359095Y-90926133D01*
X165359095Y-90926133D02*
X165406714Y-90735657D01*
X165406714Y-90735657D02*
X165454333Y-90640419D01*
X165454333Y-90640419D02*
X165501952Y-90592800D01*
X165501952Y-90592800D02*
X165597190Y-90545180D01*
X165597190Y-90545180D02*
X165692428Y-90545180D01*
X165692428Y-90545180D02*
X165787666Y-90592800D01*
X165787666Y-90592800D02*
X165835285Y-90640419D01*
X165835285Y-90640419D02*
X165882904Y-90735657D01*
X165882904Y-90735657D02*
X165930523Y-90926133D01*
X165930523Y-90926133D02*
X165930523Y-91164228D01*
X165930523Y-91164228D02*
X165882904Y-91354704D01*
X165882904Y-91354704D02*
X165835285Y-91449942D01*
X165835285Y-91449942D02*
X165787666Y-91497561D01*
X165787666Y-91497561D02*
X165692428Y-91545180D01*
X155421285Y-78545180D02*
X155421285Y-79545180D01*
X155421285Y-79545180D02*
X155183190Y-79545180D01*
X155183190Y-79545180D02*
X155040333Y-79497561D01*
X155040333Y-79497561D02*
X154945095Y-79402323D01*
X154945095Y-79402323D02*
X154897476Y-79307085D01*
X154897476Y-79307085D02*
X154849857Y-79116609D01*
X154849857Y-79116609D02*
X154849857Y-78973752D01*
X154849857Y-78973752D02*
X154897476Y-78783276D01*
X154897476Y-78783276D02*
X154945095Y-78688038D01*
X154945095Y-78688038D02*
X155040333Y-78592800D01*
X155040333Y-78592800D02*
X155183190Y-78545180D01*
X155183190Y-78545180D02*
X155421285Y-78545180D01*
X153897476Y-78545180D02*
X154468904Y-78545180D01*
X154183190Y-78545180D02*
X154183190Y-79545180D01*
X154183190Y-79545180D02*
X154278428Y-79402323D01*
X154278428Y-79402323D02*
X154373666Y-79307085D01*
X154373666Y-79307085D02*
X154468904Y-79259466D01*
X153564142Y-79545180D02*
X152897476Y-79545180D01*
X152897476Y-79545180D02*
X153326047Y-78545180D01*
X101152094Y-90545180D02*
X101152094Y-91545180D01*
X101152094Y-91545180D02*
X100913999Y-91545180D01*
X100913999Y-91545180D02*
X100771142Y-91497561D01*
X100771142Y-91497561D02*
X100675904Y-91402323D01*
X100675904Y-91402323D02*
X100628285Y-91307085D01*
X100628285Y-91307085D02*
X100580666Y-91116609D01*
X100580666Y-91116609D02*
X100580666Y-90973752D01*
X100580666Y-90973752D02*
X100628285Y-90783276D01*
X100628285Y-90783276D02*
X100675904Y-90688038D01*
X100675904Y-90688038D02*
X100771142Y-90592800D01*
X100771142Y-90592800D02*
X100913999Y-90545180D01*
X100913999Y-90545180D02*
X101152094Y-90545180D01*
X99723523Y-91211847D02*
X99723523Y-90545180D01*
X99961618Y-91592800D02*
X100199713Y-90878514D01*
X100199713Y-90878514D02*
X99580666Y-90878514D01*
X92876094Y-84545180D02*
X92876094Y-85545180D01*
X92876094Y-85545180D02*
X92637999Y-85545180D01*
X92637999Y-85545180D02*
X92495142Y-85497561D01*
X92495142Y-85497561D02*
X92399904Y-85402323D01*
X92399904Y-85402323D02*
X92352285Y-85307085D01*
X92352285Y-85307085D02*
X92304666Y-85116609D01*
X92304666Y-85116609D02*
X92304666Y-84973752D01*
X92304666Y-84973752D02*
X92352285Y-84783276D01*
X92352285Y-84783276D02*
X92399904Y-84688038D01*
X92399904Y-84688038D02*
X92495142Y-84592800D01*
X92495142Y-84592800D02*
X92637999Y-84545180D01*
X92637999Y-84545180D02*
X92876094Y-84545180D01*
X91923713Y-85449942D02*
X91876094Y-85497561D01*
X91876094Y-85497561D02*
X91780856Y-85545180D01*
X91780856Y-85545180D02*
X91542761Y-85545180D01*
X91542761Y-85545180D02*
X91447523Y-85497561D01*
X91447523Y-85497561D02*
X91399904Y-85449942D01*
X91399904Y-85449942D02*
X91352285Y-85354704D01*
X91352285Y-85354704D02*
X91352285Y-85259466D01*
X91352285Y-85259466D02*
X91399904Y-85116609D01*
X91399904Y-85116609D02*
X91971332Y-84545180D01*
X91971332Y-84545180D02*
X91352285Y-84545180D01*
X97014094Y-78545180D02*
X97014094Y-79545180D01*
X97014094Y-79545180D02*
X96775999Y-79545180D01*
X96775999Y-79545180D02*
X96633142Y-79497561D01*
X96633142Y-79497561D02*
X96537904Y-79402323D01*
X96537904Y-79402323D02*
X96490285Y-79307085D01*
X96490285Y-79307085D02*
X96442666Y-79116609D01*
X96442666Y-79116609D02*
X96442666Y-78973752D01*
X96442666Y-78973752D02*
X96490285Y-78783276D01*
X96490285Y-78783276D02*
X96537904Y-78688038D01*
X96537904Y-78688038D02*
X96633142Y-78592800D01*
X96633142Y-78592800D02*
X96775999Y-78545180D01*
X96775999Y-78545180D02*
X97014094Y-78545180D01*
X96109332Y-79545180D02*
X95490285Y-79545180D01*
X95490285Y-79545180D02*
X95823618Y-79164228D01*
X95823618Y-79164228D02*
X95680761Y-79164228D01*
X95680761Y-79164228D02*
X95585523Y-79116609D01*
X95585523Y-79116609D02*
X95537904Y-79068990D01*
X95537904Y-79068990D02*
X95490285Y-78973752D01*
X95490285Y-78973752D02*
X95490285Y-78735657D01*
X95490285Y-78735657D02*
X95537904Y-78640419D01*
X95537904Y-78640419D02*
X95585523Y-78592800D01*
X95585523Y-78592800D02*
X95680761Y-78545180D01*
X95680761Y-78545180D02*
X95966475Y-78545180D01*
X95966475Y-78545180D02*
X96061713Y-78592800D01*
X96061713Y-78592800D02*
X96109332Y-78640419D01*
X138869285Y-78545180D02*
X138869285Y-79545180D01*
X138869285Y-79545180D02*
X138631190Y-79545180D01*
X138631190Y-79545180D02*
X138488333Y-79497561D01*
X138488333Y-79497561D02*
X138393095Y-79402323D01*
X138393095Y-79402323D02*
X138345476Y-79307085D01*
X138345476Y-79307085D02*
X138297857Y-79116609D01*
X138297857Y-79116609D02*
X138297857Y-78973752D01*
X138297857Y-78973752D02*
X138345476Y-78783276D01*
X138345476Y-78783276D02*
X138393095Y-78688038D01*
X138393095Y-78688038D02*
X138488333Y-78592800D01*
X138488333Y-78592800D02*
X138631190Y-78545180D01*
X138631190Y-78545180D02*
X138869285Y-78545180D01*
X137345476Y-78545180D02*
X137916904Y-78545180D01*
X137631190Y-78545180D02*
X137631190Y-79545180D01*
X137631190Y-79545180D02*
X137726428Y-79402323D01*
X137726428Y-79402323D02*
X137821666Y-79307085D01*
X137821666Y-79307085D02*
X137916904Y-79259466D01*
X137012142Y-79545180D02*
X136393095Y-79545180D01*
X136393095Y-79545180D02*
X136726428Y-79164228D01*
X136726428Y-79164228D02*
X136583571Y-79164228D01*
X136583571Y-79164228D02*
X136488333Y-79116609D01*
X136488333Y-79116609D02*
X136440714Y-79068990D01*
X136440714Y-79068990D02*
X136393095Y-78973752D01*
X136393095Y-78973752D02*
X136393095Y-78735657D01*
X136393095Y-78735657D02*
X136440714Y-78640419D01*
X136440714Y-78640419D02*
X136488333Y-78592800D01*
X136488333Y-78592800D02*
X136583571Y-78545180D01*
X136583571Y-78545180D02*
X136869285Y-78545180D01*
X136869285Y-78545180D02*
X136964523Y-78592800D01*
X136964523Y-78592800D02*
X137012142Y-78640419D01*
X159559285Y-84545180D02*
X159559285Y-85545180D01*
X159559285Y-85545180D02*
X159321190Y-85545180D01*
X159321190Y-85545180D02*
X159178333Y-85497561D01*
X159178333Y-85497561D02*
X159083095Y-85402323D01*
X159083095Y-85402323D02*
X159035476Y-85307085D01*
X159035476Y-85307085D02*
X158987857Y-85116609D01*
X158987857Y-85116609D02*
X158987857Y-84973752D01*
X158987857Y-84973752D02*
X159035476Y-84783276D01*
X159035476Y-84783276D02*
X159083095Y-84688038D01*
X159083095Y-84688038D02*
X159178333Y-84592800D01*
X159178333Y-84592800D02*
X159321190Y-84545180D01*
X159321190Y-84545180D02*
X159559285Y-84545180D01*
X158035476Y-84545180D02*
X158606904Y-84545180D01*
X158321190Y-84545180D02*
X158321190Y-85545180D01*
X158321190Y-85545180D02*
X158416428Y-85402323D01*
X158416428Y-85402323D02*
X158511666Y-85307085D01*
X158511666Y-85307085D02*
X158606904Y-85259466D01*
X157464047Y-85116609D02*
X157559285Y-85164228D01*
X157559285Y-85164228D02*
X157606904Y-85211847D01*
X157606904Y-85211847D02*
X157654523Y-85307085D01*
X157654523Y-85307085D02*
X157654523Y-85354704D01*
X157654523Y-85354704D02*
X157606904Y-85449942D01*
X157606904Y-85449942D02*
X157559285Y-85497561D01*
X157559285Y-85497561D02*
X157464047Y-85545180D01*
X157464047Y-85545180D02*
X157273571Y-85545180D01*
X157273571Y-85545180D02*
X157178333Y-85497561D01*
X157178333Y-85497561D02*
X157130714Y-85449942D01*
X157130714Y-85449942D02*
X157083095Y-85354704D01*
X157083095Y-85354704D02*
X157083095Y-85307085D01*
X157083095Y-85307085D02*
X157130714Y-85211847D01*
X157130714Y-85211847D02*
X157178333Y-85164228D01*
X157178333Y-85164228D02*
X157273571Y-85116609D01*
X157273571Y-85116609D02*
X157464047Y-85116609D01*
X157464047Y-85116609D02*
X157559285Y-85068990D01*
X157559285Y-85068990D02*
X157606904Y-85021371D01*
X157606904Y-85021371D02*
X157654523Y-84926133D01*
X157654523Y-84926133D02*
X157654523Y-84735657D01*
X157654523Y-84735657D02*
X157606904Y-84640419D01*
X157606904Y-84640419D02*
X157559285Y-84592800D01*
X157559285Y-84592800D02*
X157464047Y-84545180D01*
X157464047Y-84545180D02*
X157273571Y-84545180D01*
X157273571Y-84545180D02*
X157178333Y-84592800D01*
X157178333Y-84592800D02*
X157130714Y-84640419D01*
X157130714Y-84640419D02*
X157083095Y-84735657D01*
X157083095Y-84735657D02*
X157083095Y-84926133D01*
X157083095Y-84926133D02*
X157130714Y-85021371D01*
X157130714Y-85021371D02*
X157178333Y-85068990D01*
X157178333Y-85068990D02*
X157273571Y-85116609D01*
X214666666Y-85454819D02*
X214333333Y-84978628D01*
X214095238Y-85454819D02*
X214095238Y-84454819D01*
X214095238Y-84454819D02*
X214476190Y-84454819D01*
X214476190Y-84454819D02*
X214571428Y-84502438D01*
X214571428Y-84502438D02*
X214619047Y-84550057D01*
X214619047Y-84550057D02*
X214666666Y-84645295D01*
X214666666Y-84645295D02*
X214666666Y-84788152D01*
X214666666Y-84788152D02*
X214619047Y-84883390D01*
X214619047Y-84883390D02*
X214571428Y-84931009D01*
X214571428Y-84931009D02*
X214476190Y-84978628D01*
X214476190Y-84978628D02*
X214095238Y-84978628D01*
X215095238Y-84931009D02*
X215428571Y-84931009D01*
X215571428Y-85454819D02*
X215095238Y-85454819D01*
X215095238Y-85454819D02*
X215095238Y-84454819D01*
X215095238Y-84454819D02*
X215571428Y-84454819D01*
X216333333Y-84931009D02*
X216000000Y-84931009D01*
X216000000Y-85454819D02*
X216000000Y-84454819D01*
X216000000Y-84454819D02*
X216476190Y-84454819D01*
X217000000Y-84454819D02*
X217000000Y-84692914D01*
X216761905Y-84597676D02*
X217000000Y-84692914D01*
X217000000Y-84692914D02*
X217238095Y-84597676D01*
X216857143Y-84883390D02*
X217000000Y-84692914D01*
X217000000Y-84692914D02*
X217142857Y-84883390D01*
X217761905Y-84454819D02*
X217761905Y-84692914D01*
X217523810Y-84597676D02*
X217761905Y-84692914D01*
X217761905Y-84692914D02*
X218000000Y-84597676D01*
X217619048Y-84883390D02*
X217761905Y-84692914D01*
X217761905Y-84692914D02*
X217904762Y-84883390D01*
X117704094Y-90545180D02*
X117704094Y-91545180D01*
X117704094Y-91545180D02*
X117465999Y-91545180D01*
X117465999Y-91545180D02*
X117323142Y-91497561D01*
X117323142Y-91497561D02*
X117227904Y-91402323D01*
X117227904Y-91402323D02*
X117180285Y-91307085D01*
X117180285Y-91307085D02*
X117132666Y-91116609D01*
X117132666Y-91116609D02*
X117132666Y-90973752D01*
X117132666Y-90973752D02*
X117180285Y-90783276D01*
X117180285Y-90783276D02*
X117227904Y-90688038D01*
X117227904Y-90688038D02*
X117323142Y-90592800D01*
X117323142Y-90592800D02*
X117465999Y-90545180D01*
X117465999Y-90545180D02*
X117704094Y-90545180D01*
X116561237Y-91116609D02*
X116656475Y-91164228D01*
X116656475Y-91164228D02*
X116704094Y-91211847D01*
X116704094Y-91211847D02*
X116751713Y-91307085D01*
X116751713Y-91307085D02*
X116751713Y-91354704D01*
X116751713Y-91354704D02*
X116704094Y-91449942D01*
X116704094Y-91449942D02*
X116656475Y-91497561D01*
X116656475Y-91497561D02*
X116561237Y-91545180D01*
X116561237Y-91545180D02*
X116370761Y-91545180D01*
X116370761Y-91545180D02*
X116275523Y-91497561D01*
X116275523Y-91497561D02*
X116227904Y-91449942D01*
X116227904Y-91449942D02*
X116180285Y-91354704D01*
X116180285Y-91354704D02*
X116180285Y-91307085D01*
X116180285Y-91307085D02*
X116227904Y-91211847D01*
X116227904Y-91211847D02*
X116275523Y-91164228D01*
X116275523Y-91164228D02*
X116370761Y-91116609D01*
X116370761Y-91116609D02*
X116561237Y-91116609D01*
X116561237Y-91116609D02*
X116656475Y-91068990D01*
X116656475Y-91068990D02*
X116704094Y-91021371D01*
X116704094Y-91021371D02*
X116751713Y-90926133D01*
X116751713Y-90926133D02*
X116751713Y-90735657D01*
X116751713Y-90735657D02*
X116704094Y-90640419D01*
X116704094Y-90640419D02*
X116656475Y-90592800D01*
X116656475Y-90592800D02*
X116561237Y-90545180D01*
X116561237Y-90545180D02*
X116370761Y-90545180D01*
X116370761Y-90545180D02*
X116275523Y-90592800D01*
X116275523Y-90592800D02*
X116227904Y-90640419D01*
X116227904Y-90640419D02*
X116180285Y-90735657D01*
X116180285Y-90735657D02*
X116180285Y-90926133D01*
X116180285Y-90926133D02*
X116227904Y-91021371D01*
X116227904Y-91021371D02*
X116275523Y-91068990D01*
X116275523Y-91068990D02*
X116370761Y-91116609D01*
X126455285Y-84545180D02*
X126455285Y-85545180D01*
X126455285Y-85545180D02*
X126217190Y-85545180D01*
X126217190Y-85545180D02*
X126074333Y-85497561D01*
X126074333Y-85497561D02*
X125979095Y-85402323D01*
X125979095Y-85402323D02*
X125931476Y-85307085D01*
X125931476Y-85307085D02*
X125883857Y-85116609D01*
X125883857Y-85116609D02*
X125883857Y-84973752D01*
X125883857Y-84973752D02*
X125931476Y-84783276D01*
X125931476Y-84783276D02*
X125979095Y-84688038D01*
X125979095Y-84688038D02*
X126074333Y-84592800D01*
X126074333Y-84592800D02*
X126217190Y-84545180D01*
X126217190Y-84545180D02*
X126455285Y-84545180D01*
X124931476Y-84545180D02*
X125502904Y-84545180D01*
X125217190Y-84545180D02*
X125217190Y-85545180D01*
X125217190Y-85545180D02*
X125312428Y-85402323D01*
X125312428Y-85402323D02*
X125407666Y-85307085D01*
X125407666Y-85307085D02*
X125502904Y-85259466D01*
X124312428Y-85545180D02*
X124217190Y-85545180D01*
X124217190Y-85545180D02*
X124121952Y-85497561D01*
X124121952Y-85497561D02*
X124074333Y-85449942D01*
X124074333Y-85449942D02*
X124026714Y-85354704D01*
X124026714Y-85354704D02*
X123979095Y-85164228D01*
X123979095Y-85164228D02*
X123979095Y-84926133D01*
X123979095Y-84926133D02*
X124026714Y-84735657D01*
X124026714Y-84735657D02*
X124074333Y-84640419D01*
X124074333Y-84640419D02*
X124121952Y-84592800D01*
X124121952Y-84592800D02*
X124217190Y-84545180D01*
X124217190Y-84545180D02*
X124312428Y-84545180D01*
X124312428Y-84545180D02*
X124407666Y-84592800D01*
X124407666Y-84592800D02*
X124455285Y-84640419D01*
X124455285Y-84640419D02*
X124502904Y-84735657D01*
X124502904Y-84735657D02*
X124550523Y-84926133D01*
X124550523Y-84926133D02*
X124550523Y-85164228D01*
X124550523Y-85164228D02*
X124502904Y-85354704D01*
X124502904Y-85354704D02*
X124455285Y-85449942D01*
X124455285Y-85449942D02*
X124407666Y-85497561D01*
X124407666Y-85497561D02*
X124312428Y-85545180D01*
X163697285Y-84545180D02*
X163697285Y-85545180D01*
X163697285Y-85545180D02*
X163459190Y-85545180D01*
X163459190Y-85545180D02*
X163316333Y-85497561D01*
X163316333Y-85497561D02*
X163221095Y-85402323D01*
X163221095Y-85402323D02*
X163173476Y-85307085D01*
X163173476Y-85307085D02*
X163125857Y-85116609D01*
X163125857Y-85116609D02*
X163125857Y-84973752D01*
X163125857Y-84973752D02*
X163173476Y-84783276D01*
X163173476Y-84783276D02*
X163221095Y-84688038D01*
X163221095Y-84688038D02*
X163316333Y-84592800D01*
X163316333Y-84592800D02*
X163459190Y-84545180D01*
X163459190Y-84545180D02*
X163697285Y-84545180D01*
X162173476Y-84545180D02*
X162744904Y-84545180D01*
X162459190Y-84545180D02*
X162459190Y-85545180D01*
X162459190Y-85545180D02*
X162554428Y-85402323D01*
X162554428Y-85402323D02*
X162649666Y-85307085D01*
X162649666Y-85307085D02*
X162744904Y-85259466D01*
X161697285Y-84545180D02*
X161506809Y-84545180D01*
X161506809Y-84545180D02*
X161411571Y-84592800D01*
X161411571Y-84592800D02*
X161363952Y-84640419D01*
X161363952Y-84640419D02*
X161268714Y-84783276D01*
X161268714Y-84783276D02*
X161221095Y-84973752D01*
X161221095Y-84973752D02*
X161221095Y-85354704D01*
X161221095Y-85354704D02*
X161268714Y-85449942D01*
X161268714Y-85449942D02*
X161316333Y-85497561D01*
X161316333Y-85497561D02*
X161411571Y-85545180D01*
X161411571Y-85545180D02*
X161602047Y-85545180D01*
X161602047Y-85545180D02*
X161697285Y-85497561D01*
X161697285Y-85497561D02*
X161744904Y-85449942D01*
X161744904Y-85449942D02*
X161792523Y-85354704D01*
X161792523Y-85354704D02*
X161792523Y-85116609D01*
X161792523Y-85116609D02*
X161744904Y-85021371D01*
X161744904Y-85021371D02*
X161697285Y-84973752D01*
X161697285Y-84973752D02*
X161602047Y-84926133D01*
X161602047Y-84926133D02*
X161411571Y-84926133D01*
X161411571Y-84926133D02*
X161316333Y-84973752D01*
X161316333Y-84973752D02*
X161268714Y-85021371D01*
X161268714Y-85021371D02*
X161221095Y-85116609D01*
X134731285Y-90545180D02*
X134731285Y-91545180D01*
X134731285Y-91545180D02*
X134493190Y-91545180D01*
X134493190Y-91545180D02*
X134350333Y-91497561D01*
X134350333Y-91497561D02*
X134255095Y-91402323D01*
X134255095Y-91402323D02*
X134207476Y-91307085D01*
X134207476Y-91307085D02*
X134159857Y-91116609D01*
X134159857Y-91116609D02*
X134159857Y-90973752D01*
X134159857Y-90973752D02*
X134207476Y-90783276D01*
X134207476Y-90783276D02*
X134255095Y-90688038D01*
X134255095Y-90688038D02*
X134350333Y-90592800D01*
X134350333Y-90592800D02*
X134493190Y-90545180D01*
X134493190Y-90545180D02*
X134731285Y-90545180D01*
X133207476Y-90545180D02*
X133778904Y-90545180D01*
X133493190Y-90545180D02*
X133493190Y-91545180D01*
X133493190Y-91545180D02*
X133588428Y-91402323D01*
X133588428Y-91402323D02*
X133683666Y-91307085D01*
X133683666Y-91307085D02*
X133778904Y-91259466D01*
X132826523Y-91449942D02*
X132778904Y-91497561D01*
X132778904Y-91497561D02*
X132683666Y-91545180D01*
X132683666Y-91545180D02*
X132445571Y-91545180D01*
X132445571Y-91545180D02*
X132350333Y-91497561D01*
X132350333Y-91497561D02*
X132302714Y-91449942D01*
X132302714Y-91449942D02*
X132255095Y-91354704D01*
X132255095Y-91354704D02*
X132255095Y-91259466D01*
X132255095Y-91259466D02*
X132302714Y-91116609D01*
X132302714Y-91116609D02*
X132874142Y-90545180D01*
X132874142Y-90545180D02*
X132255095Y-90545180D01*
D11*
X175497846Y-80584059D02*
X175116893Y-80850726D01*
X175497846Y-81041202D02*
X174697846Y-81041202D01*
X174697846Y-81041202D02*
X174697846Y-80736440D01*
X174697846Y-80736440D02*
X174735941Y-80660250D01*
X174735941Y-80660250D02*
X174774036Y-80622155D01*
X174774036Y-80622155D02*
X174850227Y-80584059D01*
X174850227Y-80584059D02*
X174964512Y-80584059D01*
X174964512Y-80584059D02*
X175040703Y-80622155D01*
X175040703Y-80622155D02*
X175078798Y-80660250D01*
X175078798Y-80660250D02*
X175116893Y-80736440D01*
X175116893Y-80736440D02*
X175116893Y-81041202D01*
X174964512Y-79898345D02*
X175497846Y-79898345D01*
X174659751Y-80088821D02*
X175231179Y-80279298D01*
X175231179Y-80279298D02*
X175231179Y-79784059D01*
D12*
%TO.C,D6*%
X109690000Y-86500000D02*
X110190000Y-86000000D01*
X110190000Y-86500000D02*
X107190000Y-86500000D01*
X107190000Y-83500000D01*
X110190000Y-83500000D01*
X110190000Y-86500000D01*
%TO.C,D5*%
X105552000Y-80500000D02*
X106052000Y-80000000D01*
X106052000Y-80500000D02*
X103052000Y-80500000D01*
X103052000Y-77500000D01*
X106052000Y-77500000D01*
X106052000Y-80500000D01*
%TO.C,D9*%
X122103000Y-80500000D02*
X122603000Y-80000000D01*
X122603000Y-80500000D02*
X119603000Y-80500000D01*
X119603000Y-77500000D01*
X122603000Y-77500000D01*
X122603000Y-80500000D01*
%TO.C,R2*%
X109487500Y-90200000D02*
X112687500Y-90200000D01*
X109487500Y-91800000D02*
X109487500Y-90200000D01*
X112687500Y-90200000D02*
X112687500Y-91800000D01*
X112687500Y-91800000D02*
X109487500Y-91800000D01*
%TO.C,D16*%
X151069000Y-92500000D02*
X151569000Y-92000000D01*
X151569000Y-92500000D02*
X148569000Y-92500000D01*
X148569000Y-89500000D01*
X151569000Y-89500000D01*
X151569000Y-92500000D01*
%TO.C,D14*%
X142793000Y-86500000D02*
X143293000Y-86000000D01*
X143293000Y-86500000D02*
X140293000Y-86500000D01*
X140293000Y-83500000D01*
X143293000Y-83500000D01*
X143293000Y-86500000D01*
%TO.C,D11*%
X130379000Y-92500000D02*
X130879000Y-92000000D01*
X130879000Y-92500000D02*
X127879000Y-92500000D01*
X127879000Y-89500000D01*
X130879000Y-89500000D01*
X130879000Y-92500000D01*
%TO.C,D1*%
X89000000Y-80500000D02*
X89500000Y-80000000D01*
X89500000Y-80500000D02*
X86500000Y-80500000D01*
X86500000Y-77500000D01*
X89500000Y-77500000D01*
X89500000Y-80500000D01*
%TO.C,D15*%
X146931000Y-80500000D02*
X147431000Y-80000000D01*
X147431000Y-80500000D02*
X144431000Y-80500000D01*
X144431000Y-77500000D01*
X147431000Y-77500000D01*
X147431000Y-80500000D01*
%TO.C,D7*%
X113828000Y-86500000D02*
X114328000Y-86000000D01*
X114328000Y-86500000D02*
X111328000Y-86500000D01*
X111328000Y-83500000D01*
X114328000Y-83500000D01*
X114328000Y-86500000D01*
%TO.C,R1*%
X86200000Y-83312500D02*
X87800000Y-83312500D01*
X86200000Y-86512500D02*
X86200000Y-83312500D01*
X87800000Y-83312500D02*
X87800000Y-86512500D01*
X87800000Y-86512500D02*
X86200000Y-86512500D01*
%TO.C,R3*%
X141200000Y-77400000D02*
X142800000Y-77400000D01*
X141200000Y-80600000D02*
X141200000Y-77400000D01*
X142800000Y-77400000D02*
X142800000Y-80600000D01*
X142800000Y-80600000D02*
X141200000Y-80600000D01*
%TO.C,D21*%
X171759000Y-80500000D02*
X172259000Y-80000000D01*
X172259000Y-80500000D02*
X169259000Y-80500000D01*
X169259000Y-77500000D01*
X172259000Y-77500000D01*
X172259000Y-80500000D01*
%TO.C,D20*%
X167621000Y-92500000D02*
X168121000Y-92000000D01*
X168121000Y-92500000D02*
X165121000Y-92500000D01*
X165121000Y-89500000D01*
X168121000Y-89500000D01*
X168121000Y-92500000D01*
%TO.C,D17*%
X155207000Y-80500000D02*
X155707000Y-80000000D01*
X155707000Y-80500000D02*
X152707000Y-80500000D01*
X152707000Y-77500000D01*
X155707000Y-77500000D01*
X155707000Y-80500000D01*
%TO.C,D4*%
X101414000Y-92500000D02*
X101914000Y-92000000D01*
X101914000Y-92500000D02*
X98914000Y-92500000D01*
X98914000Y-89500000D01*
X101914000Y-89500000D01*
X101914000Y-92500000D01*
%TO.C,D2*%
X93138000Y-86500000D02*
X93638000Y-86000000D01*
X93638000Y-86500000D02*
X90638000Y-86500000D01*
X90638000Y-83500000D01*
X93638000Y-83500000D01*
X93638000Y-86500000D01*
%TO.C,D3*%
X97276000Y-80500000D02*
X97776000Y-80000000D01*
X97776000Y-80500000D02*
X94776000Y-80500000D01*
X94776000Y-77500000D01*
X97776000Y-77500000D01*
X97776000Y-80500000D01*
%TO.C,D13*%
X138655000Y-80500000D02*
X139155000Y-80000000D01*
X139155000Y-80500000D02*
X136155000Y-80500000D01*
X136155000Y-77500000D01*
X139155000Y-77500000D01*
X139155000Y-80500000D01*
%TO.C,D18*%
X159345000Y-86500000D02*
X159845000Y-86000000D01*
X159845000Y-86500000D02*
X156845000Y-86500000D01*
X156845000Y-83500000D01*
X159845000Y-83500000D01*
X159845000Y-86500000D01*
%TO.C,D8*%
X117966000Y-92500000D02*
X118466000Y-92000000D01*
X118466000Y-92500000D02*
X115466000Y-92500000D01*
X115466000Y-89500000D01*
X118466000Y-89500000D01*
X118466000Y-92500000D01*
%TO.C,D10*%
X126241000Y-86500000D02*
X126741000Y-86000000D01*
X126741000Y-86500000D02*
X123741000Y-86500000D01*
X123741000Y-83500000D01*
X126741000Y-83500000D01*
X126741000Y-86500000D01*
%TO.C,D19*%
X163483000Y-86500000D02*
X163983000Y-86000000D01*
X163983000Y-86500000D02*
X160983000Y-86500000D01*
X160983000Y-83500000D01*
X163983000Y-83500000D01*
X163983000Y-86500000D01*
%TO.C,D12*%
X134517000Y-92500000D02*
X135017000Y-92000000D01*
X135017000Y-92500000D02*
X132017000Y-92500000D01*
X132017000Y-89500000D01*
X135017000Y-89500000D01*
X135017000Y-92500000D01*
%TO.C,R4*%
X174333991Y-78850727D02*
X175933991Y-78850727D01*
X174333991Y-82050727D02*
X174333991Y-78850727D01*
X175933991Y-78850727D02*
X175933991Y-82050727D01*
X175933991Y-82050727D02*
X174333991Y-82050727D01*
%TD*%
M02*
