%TF.GenerationSoftware,KiCad,Pcbnew,9.0.0*%
%TF.CreationDate,2025-04-18T15:29:53+00:00*%
%TF.ProjectId,growbeam,67726f77-6265-4616-9d2e-6b696361645f,rev?*%
%TF.SameCoordinates,Original*%
%TF.FileFunction,Legend,Top*%
%TF.FilePolarity,Positive*%
%FSLAX46Y46*%
G04 Gerber Fmt 4.6, Leading zero omitted, Abs format (unit mm)*
G04 Created by KiCad (PCBNEW 9.0.0) date 2025-04-18 15:29:53*
%MOMM*%
%LPD*%
G01*
G04 APERTURE LIST*
%ADD10C,0.300000*%
%ADD11C,0.500000*%
%ADD12C,0.100000*%
%ADD13C,0.150000*%
%ADD14C,0.120000*%
G04 APERTURE END LIST*
D10*
X215554510Y-77229400D02*
X216697368Y-77229400D01*
X216125939Y-77800828D02*
X216125939Y-76657971D01*
X79554510Y-77229400D02*
X80697368Y-77229400D01*
X80125939Y-77800828D02*
X80125939Y-76657971D01*
D11*
X79233708Y-89287095D02*
X78995613Y-89168047D01*
X78995613Y-89168047D02*
X78638470Y-89168047D01*
X78638470Y-89168047D02*
X78281327Y-89287095D01*
X78281327Y-89287095D02*
X78043232Y-89525190D01*
X78043232Y-89525190D02*
X77924185Y-89763285D01*
X77924185Y-89763285D02*
X77805137Y-90239476D01*
X77805137Y-90239476D02*
X77805137Y-90596619D01*
X77805137Y-90596619D02*
X77924185Y-91072809D01*
X77924185Y-91072809D02*
X78043232Y-91310904D01*
X78043232Y-91310904D02*
X78281327Y-91549000D01*
X78281327Y-91549000D02*
X78638470Y-91668047D01*
X78638470Y-91668047D02*
X78876566Y-91668047D01*
X78876566Y-91668047D02*
X79233708Y-91549000D01*
X79233708Y-91549000D02*
X79352756Y-91429952D01*
X79352756Y-91429952D02*
X79352756Y-90596619D01*
X79352756Y-90596619D02*
X78876566Y-90596619D01*
X80424185Y-91668047D02*
X80424185Y-90001380D01*
X80424185Y-90477571D02*
X80543232Y-90239476D01*
X80543232Y-90239476D02*
X80662280Y-90120428D01*
X80662280Y-90120428D02*
X80900375Y-90001380D01*
X80900375Y-90001380D02*
X81138470Y-90001380D01*
X82328946Y-91668047D02*
X82090851Y-91549000D01*
X82090851Y-91549000D02*
X81971804Y-91429952D01*
X81971804Y-91429952D02*
X81852756Y-91191857D01*
X81852756Y-91191857D02*
X81852756Y-90477571D01*
X81852756Y-90477571D02*
X81971804Y-90239476D01*
X81971804Y-90239476D02*
X82090851Y-90120428D01*
X82090851Y-90120428D02*
X82328946Y-90001380D01*
X82328946Y-90001380D02*
X82686089Y-90001380D01*
X82686089Y-90001380D02*
X82924185Y-90120428D01*
X82924185Y-90120428D02*
X83043232Y-90239476D01*
X83043232Y-90239476D02*
X83162280Y-90477571D01*
X83162280Y-90477571D02*
X83162280Y-91191857D01*
X83162280Y-91191857D02*
X83043232Y-91429952D01*
X83043232Y-91429952D02*
X82924185Y-91549000D01*
X82924185Y-91549000D02*
X82686089Y-91668047D01*
X82686089Y-91668047D02*
X82328946Y-91668047D01*
X83995613Y-90001380D02*
X84471804Y-91668047D01*
X84471804Y-91668047D02*
X84947994Y-90477571D01*
X84947994Y-90477571D02*
X85424185Y-91668047D01*
X85424185Y-91668047D02*
X85900375Y-90001380D01*
X87686090Y-90358523D02*
X88043233Y-90477571D01*
X88043233Y-90477571D02*
X88162280Y-90596619D01*
X88162280Y-90596619D02*
X88281328Y-90834714D01*
X88281328Y-90834714D02*
X88281328Y-91191857D01*
X88281328Y-91191857D02*
X88162280Y-91429952D01*
X88162280Y-91429952D02*
X88043233Y-91549000D01*
X88043233Y-91549000D02*
X87805138Y-91668047D01*
X87805138Y-91668047D02*
X86852757Y-91668047D01*
X86852757Y-91668047D02*
X86852757Y-89168047D01*
X86852757Y-89168047D02*
X87686090Y-89168047D01*
X87686090Y-89168047D02*
X87924185Y-89287095D01*
X87924185Y-89287095D02*
X88043233Y-89406142D01*
X88043233Y-89406142D02*
X88162280Y-89644238D01*
X88162280Y-89644238D02*
X88162280Y-89882333D01*
X88162280Y-89882333D02*
X88043233Y-90120428D01*
X88043233Y-90120428D02*
X87924185Y-90239476D01*
X87924185Y-90239476D02*
X87686090Y-90358523D01*
X87686090Y-90358523D02*
X86852757Y-90358523D01*
X90305138Y-91549000D02*
X90067042Y-91668047D01*
X90067042Y-91668047D02*
X89590852Y-91668047D01*
X89590852Y-91668047D02*
X89352757Y-91549000D01*
X89352757Y-91549000D02*
X89233709Y-91310904D01*
X89233709Y-91310904D02*
X89233709Y-90358523D01*
X89233709Y-90358523D02*
X89352757Y-90120428D01*
X89352757Y-90120428D02*
X89590852Y-90001380D01*
X89590852Y-90001380D02*
X90067042Y-90001380D01*
X90067042Y-90001380D02*
X90305138Y-90120428D01*
X90305138Y-90120428D02*
X90424185Y-90358523D01*
X90424185Y-90358523D02*
X90424185Y-90596619D01*
X90424185Y-90596619D02*
X89233709Y-90834714D01*
X92567042Y-91668047D02*
X92567042Y-90358523D01*
X92567042Y-90358523D02*
X92447995Y-90120428D01*
X92447995Y-90120428D02*
X92209899Y-90001380D01*
X92209899Y-90001380D02*
X91733709Y-90001380D01*
X91733709Y-90001380D02*
X91495614Y-90120428D01*
X92567042Y-91549000D02*
X92328947Y-91668047D01*
X92328947Y-91668047D02*
X91733709Y-91668047D01*
X91733709Y-91668047D02*
X91495614Y-91549000D01*
X91495614Y-91549000D02*
X91376566Y-91310904D01*
X91376566Y-91310904D02*
X91376566Y-91072809D01*
X91376566Y-91072809D02*
X91495614Y-90834714D01*
X91495614Y-90834714D02*
X91733709Y-90715666D01*
X91733709Y-90715666D02*
X92328947Y-90715666D01*
X92328947Y-90715666D02*
X92567042Y-90596619D01*
X93757519Y-91668047D02*
X93757519Y-90001380D01*
X93757519Y-90239476D02*
X93876566Y-90120428D01*
X93876566Y-90120428D02*
X94114661Y-90001380D01*
X94114661Y-90001380D02*
X94471804Y-90001380D01*
X94471804Y-90001380D02*
X94709900Y-90120428D01*
X94709900Y-90120428D02*
X94828947Y-90358523D01*
X94828947Y-90358523D02*
X94828947Y-91668047D01*
X94828947Y-90358523D02*
X94947995Y-90120428D01*
X94947995Y-90120428D02*
X95186090Y-90001380D01*
X95186090Y-90001380D02*
X95543233Y-90001380D01*
X95543233Y-90001380D02*
X95781328Y-90120428D01*
X95781328Y-90120428D02*
X95900376Y-90358523D01*
X95900376Y-90358523D02*
X95900376Y-91668047D01*
D12*
X107951905Y-88457419D02*
X107951905Y-87457419D01*
X107951905Y-87457419D02*
X108190000Y-87457419D01*
X108190000Y-87457419D02*
X108332857Y-87505038D01*
X108332857Y-87505038D02*
X108428095Y-87600276D01*
X108428095Y-87600276D02*
X108475714Y-87695514D01*
X108475714Y-87695514D02*
X108523333Y-87885990D01*
X108523333Y-87885990D02*
X108523333Y-88028847D01*
X108523333Y-88028847D02*
X108475714Y-88219323D01*
X108475714Y-88219323D02*
X108428095Y-88314561D01*
X108428095Y-88314561D02*
X108332857Y-88409800D01*
X108332857Y-88409800D02*
X108190000Y-88457419D01*
X108190000Y-88457419D02*
X107951905Y-88457419D01*
X109380476Y-87457419D02*
X109190000Y-87457419D01*
X109190000Y-87457419D02*
X109094762Y-87505038D01*
X109094762Y-87505038D02*
X109047143Y-87552657D01*
X109047143Y-87552657D02*
X108951905Y-87695514D01*
X108951905Y-87695514D02*
X108904286Y-87885990D01*
X108904286Y-87885990D02*
X108904286Y-88266942D01*
X108904286Y-88266942D02*
X108951905Y-88362180D01*
X108951905Y-88362180D02*
X108999524Y-88409800D01*
X108999524Y-88409800D02*
X109094762Y-88457419D01*
X109094762Y-88457419D02*
X109285238Y-88457419D01*
X109285238Y-88457419D02*
X109380476Y-88409800D01*
X109380476Y-88409800D02*
X109428095Y-88362180D01*
X109428095Y-88362180D02*
X109475714Y-88266942D01*
X109475714Y-88266942D02*
X109475714Y-88028847D01*
X109475714Y-88028847D02*
X109428095Y-87933609D01*
X109428095Y-87933609D02*
X109380476Y-87885990D01*
X109380476Y-87885990D02*
X109285238Y-87838371D01*
X109285238Y-87838371D02*
X109094762Y-87838371D01*
X109094762Y-87838371D02*
X108999524Y-87885990D01*
X108999524Y-87885990D02*
X108951905Y-87933609D01*
X108951905Y-87933609D02*
X108904286Y-88028847D01*
X103813905Y-82457419D02*
X103813905Y-81457419D01*
X103813905Y-81457419D02*
X104052000Y-81457419D01*
X104052000Y-81457419D02*
X104194857Y-81505038D01*
X104194857Y-81505038D02*
X104290095Y-81600276D01*
X104290095Y-81600276D02*
X104337714Y-81695514D01*
X104337714Y-81695514D02*
X104385333Y-81885990D01*
X104385333Y-81885990D02*
X104385333Y-82028847D01*
X104385333Y-82028847D02*
X104337714Y-82219323D01*
X104337714Y-82219323D02*
X104290095Y-82314561D01*
X104290095Y-82314561D02*
X104194857Y-82409800D01*
X104194857Y-82409800D02*
X104052000Y-82457419D01*
X104052000Y-82457419D02*
X103813905Y-82457419D01*
X105290095Y-81457419D02*
X104813905Y-81457419D01*
X104813905Y-81457419D02*
X104766286Y-81933609D01*
X104766286Y-81933609D02*
X104813905Y-81885990D01*
X104813905Y-81885990D02*
X104909143Y-81838371D01*
X104909143Y-81838371D02*
X105147238Y-81838371D01*
X105147238Y-81838371D02*
X105242476Y-81885990D01*
X105242476Y-81885990D02*
X105290095Y-81933609D01*
X105290095Y-81933609D02*
X105337714Y-82028847D01*
X105337714Y-82028847D02*
X105337714Y-82266942D01*
X105337714Y-82266942D02*
X105290095Y-82362180D01*
X105290095Y-82362180D02*
X105242476Y-82409800D01*
X105242476Y-82409800D02*
X105147238Y-82457419D01*
X105147238Y-82457419D02*
X104909143Y-82457419D01*
X104909143Y-82457419D02*
X104813905Y-82409800D01*
X104813905Y-82409800D02*
X104766286Y-82362180D01*
X120364905Y-82457419D02*
X120364905Y-81457419D01*
X120364905Y-81457419D02*
X120603000Y-81457419D01*
X120603000Y-81457419D02*
X120745857Y-81505038D01*
X120745857Y-81505038D02*
X120841095Y-81600276D01*
X120841095Y-81600276D02*
X120888714Y-81695514D01*
X120888714Y-81695514D02*
X120936333Y-81885990D01*
X120936333Y-81885990D02*
X120936333Y-82028847D01*
X120936333Y-82028847D02*
X120888714Y-82219323D01*
X120888714Y-82219323D02*
X120841095Y-82314561D01*
X120841095Y-82314561D02*
X120745857Y-82409800D01*
X120745857Y-82409800D02*
X120603000Y-82457419D01*
X120603000Y-82457419D02*
X120364905Y-82457419D01*
X121412524Y-82457419D02*
X121603000Y-82457419D01*
X121603000Y-82457419D02*
X121698238Y-82409800D01*
X121698238Y-82409800D02*
X121745857Y-82362180D01*
X121745857Y-82362180D02*
X121841095Y-82219323D01*
X121841095Y-82219323D02*
X121888714Y-82028847D01*
X121888714Y-82028847D02*
X121888714Y-81647895D01*
X121888714Y-81647895D02*
X121841095Y-81552657D01*
X121841095Y-81552657D02*
X121793476Y-81505038D01*
X121793476Y-81505038D02*
X121698238Y-81457419D01*
X121698238Y-81457419D02*
X121507762Y-81457419D01*
X121507762Y-81457419D02*
X121412524Y-81505038D01*
X121412524Y-81505038D02*
X121364905Y-81552657D01*
X121364905Y-81552657D02*
X121317286Y-81647895D01*
X121317286Y-81647895D02*
X121317286Y-81885990D01*
X121317286Y-81885990D02*
X121364905Y-81981228D01*
X121364905Y-81981228D02*
X121412524Y-82028847D01*
X121412524Y-82028847D02*
X121507762Y-82076466D01*
X121507762Y-82076466D02*
X121698238Y-82076466D01*
X121698238Y-82076466D02*
X121793476Y-82028847D01*
X121793476Y-82028847D02*
X121841095Y-81981228D01*
X121841095Y-81981228D02*
X121888714Y-81885990D01*
D13*
X110920833Y-89634819D02*
X110587500Y-89158628D01*
X110349405Y-89634819D02*
X110349405Y-88634819D01*
X110349405Y-88634819D02*
X110730357Y-88634819D01*
X110730357Y-88634819D02*
X110825595Y-88682438D01*
X110825595Y-88682438D02*
X110873214Y-88730057D01*
X110873214Y-88730057D02*
X110920833Y-88825295D01*
X110920833Y-88825295D02*
X110920833Y-88968152D01*
X110920833Y-88968152D02*
X110873214Y-89063390D01*
X110873214Y-89063390D02*
X110825595Y-89111009D01*
X110825595Y-89111009D02*
X110730357Y-89158628D01*
X110730357Y-89158628D02*
X110349405Y-89158628D01*
X111301786Y-88730057D02*
X111349405Y-88682438D01*
X111349405Y-88682438D02*
X111444643Y-88634819D01*
X111444643Y-88634819D02*
X111682738Y-88634819D01*
X111682738Y-88634819D02*
X111777976Y-88682438D01*
X111777976Y-88682438D02*
X111825595Y-88730057D01*
X111825595Y-88730057D02*
X111873214Y-88825295D01*
X111873214Y-88825295D02*
X111873214Y-88920533D01*
X111873214Y-88920533D02*
X111825595Y-89063390D01*
X111825595Y-89063390D02*
X111254167Y-89634819D01*
X111254167Y-89634819D02*
X111873214Y-89634819D01*
D12*
X145535409Y-91509904D02*
X145535409Y-90509904D01*
X145535409Y-90509904D02*
X145773504Y-90509904D01*
X145773504Y-90509904D02*
X145916361Y-90557523D01*
X145916361Y-90557523D02*
X146011599Y-90652761D01*
X146011599Y-90652761D02*
X146059218Y-90747999D01*
X146059218Y-90747999D02*
X146106837Y-90938475D01*
X146106837Y-90938475D02*
X146106837Y-91081332D01*
X146106837Y-91081332D02*
X146059218Y-91271808D01*
X146059218Y-91271808D02*
X146011599Y-91367046D01*
X146011599Y-91367046D02*
X145916361Y-91462285D01*
X145916361Y-91462285D02*
X145773504Y-91509904D01*
X145773504Y-91509904D02*
X145535409Y-91509904D01*
X147059218Y-91509904D02*
X146487790Y-91509904D01*
X146773504Y-91509904D02*
X146773504Y-90509904D01*
X146773504Y-90509904D02*
X146678266Y-90652761D01*
X146678266Y-90652761D02*
X146583028Y-90747999D01*
X146583028Y-90747999D02*
X146487790Y-90795618D01*
X147916361Y-90509904D02*
X147725885Y-90509904D01*
X147725885Y-90509904D02*
X147630647Y-90557523D01*
X147630647Y-90557523D02*
X147583028Y-90605142D01*
X147583028Y-90605142D02*
X147487790Y-90747999D01*
X147487790Y-90747999D02*
X147440171Y-90938475D01*
X147440171Y-90938475D02*
X147440171Y-91319427D01*
X147440171Y-91319427D02*
X147487790Y-91414665D01*
X147487790Y-91414665D02*
X147535409Y-91462285D01*
X147535409Y-91462285D02*
X147630647Y-91509904D01*
X147630647Y-91509904D02*
X147821123Y-91509904D01*
X147821123Y-91509904D02*
X147916361Y-91462285D01*
X147916361Y-91462285D02*
X147963980Y-91414665D01*
X147963980Y-91414665D02*
X148011599Y-91319427D01*
X148011599Y-91319427D02*
X148011599Y-91081332D01*
X148011599Y-91081332D02*
X147963980Y-90986094D01*
X147963980Y-90986094D02*
X147916361Y-90938475D01*
X147916361Y-90938475D02*
X147821123Y-90890856D01*
X147821123Y-90890856D02*
X147630647Y-90890856D01*
X147630647Y-90890856D02*
X147535409Y-90938475D01*
X147535409Y-90938475D02*
X147487790Y-90986094D01*
X147487790Y-90986094D02*
X147440171Y-91081332D01*
X140578714Y-88457419D02*
X140578714Y-87457419D01*
X140578714Y-87457419D02*
X140816809Y-87457419D01*
X140816809Y-87457419D02*
X140959666Y-87505038D01*
X140959666Y-87505038D02*
X141054904Y-87600276D01*
X141054904Y-87600276D02*
X141102523Y-87695514D01*
X141102523Y-87695514D02*
X141150142Y-87885990D01*
X141150142Y-87885990D02*
X141150142Y-88028847D01*
X141150142Y-88028847D02*
X141102523Y-88219323D01*
X141102523Y-88219323D02*
X141054904Y-88314561D01*
X141054904Y-88314561D02*
X140959666Y-88409800D01*
X140959666Y-88409800D02*
X140816809Y-88457419D01*
X140816809Y-88457419D02*
X140578714Y-88457419D01*
X142102523Y-88457419D02*
X141531095Y-88457419D01*
X141816809Y-88457419D02*
X141816809Y-87457419D01*
X141816809Y-87457419D02*
X141721571Y-87600276D01*
X141721571Y-87600276D02*
X141626333Y-87695514D01*
X141626333Y-87695514D02*
X141531095Y-87743133D01*
X142959666Y-87790752D02*
X142959666Y-88457419D01*
X142721571Y-87409800D02*
X142483476Y-88124085D01*
X142483476Y-88124085D02*
X143102523Y-88124085D01*
X124785714Y-93457419D02*
X124785714Y-92457419D01*
X124785714Y-92457419D02*
X125023809Y-92457419D01*
X125023809Y-92457419D02*
X125166666Y-92505038D01*
X125166666Y-92505038D02*
X125261904Y-92600276D01*
X125261904Y-92600276D02*
X125309523Y-92695514D01*
X125309523Y-92695514D02*
X125357142Y-92885990D01*
X125357142Y-92885990D02*
X125357142Y-93028847D01*
X125357142Y-93028847D02*
X125309523Y-93219323D01*
X125309523Y-93219323D02*
X125261904Y-93314561D01*
X125261904Y-93314561D02*
X125166666Y-93409800D01*
X125166666Y-93409800D02*
X125023809Y-93457419D01*
X125023809Y-93457419D02*
X124785714Y-93457419D01*
X126309523Y-93457419D02*
X125738095Y-93457419D01*
X126023809Y-93457419D02*
X126023809Y-92457419D01*
X126023809Y-92457419D02*
X125928571Y-92600276D01*
X125928571Y-92600276D02*
X125833333Y-92695514D01*
X125833333Y-92695514D02*
X125738095Y-92743133D01*
X127261904Y-93457419D02*
X126690476Y-93457419D01*
X126976190Y-93457419D02*
X126976190Y-92457419D01*
X126976190Y-92457419D02*
X126880952Y-92600276D01*
X126880952Y-92600276D02*
X126785714Y-92695514D01*
X126785714Y-92695514D02*
X126690476Y-92743133D01*
X89932170Y-79466849D02*
X89932170Y-78466849D01*
X89932170Y-78466849D02*
X90170265Y-78466849D01*
X90170265Y-78466849D02*
X90313122Y-78514468D01*
X90313122Y-78514468D02*
X90408360Y-78609706D01*
X90408360Y-78609706D02*
X90455979Y-78704944D01*
X90455979Y-78704944D02*
X90503598Y-78895420D01*
X90503598Y-78895420D02*
X90503598Y-79038277D01*
X90503598Y-79038277D02*
X90455979Y-79228753D01*
X90455979Y-79228753D02*
X90408360Y-79323991D01*
X90408360Y-79323991D02*
X90313122Y-79419230D01*
X90313122Y-79419230D02*
X90170265Y-79466849D01*
X90170265Y-79466849D02*
X89932170Y-79466849D01*
X91455979Y-79466849D02*
X90884551Y-79466849D01*
X91170265Y-79466849D02*
X91170265Y-78466849D01*
X91170265Y-78466849D02*
X91075027Y-78609706D01*
X91075027Y-78609706D02*
X90979789Y-78704944D01*
X90979789Y-78704944D02*
X90884551Y-78752563D01*
X144716714Y-82457419D02*
X144716714Y-81457419D01*
X144716714Y-81457419D02*
X144954809Y-81457419D01*
X144954809Y-81457419D02*
X145097666Y-81505038D01*
X145097666Y-81505038D02*
X145192904Y-81600276D01*
X145192904Y-81600276D02*
X145240523Y-81695514D01*
X145240523Y-81695514D02*
X145288142Y-81885990D01*
X145288142Y-81885990D02*
X145288142Y-82028847D01*
X145288142Y-82028847D02*
X145240523Y-82219323D01*
X145240523Y-82219323D02*
X145192904Y-82314561D01*
X145192904Y-82314561D02*
X145097666Y-82409800D01*
X145097666Y-82409800D02*
X144954809Y-82457419D01*
X144954809Y-82457419D02*
X144716714Y-82457419D01*
X146240523Y-82457419D02*
X145669095Y-82457419D01*
X145954809Y-82457419D02*
X145954809Y-81457419D01*
X145954809Y-81457419D02*
X145859571Y-81600276D01*
X145859571Y-81600276D02*
X145764333Y-81695514D01*
X145764333Y-81695514D02*
X145669095Y-81743133D01*
X147145285Y-81457419D02*
X146669095Y-81457419D01*
X146669095Y-81457419D02*
X146621476Y-81933609D01*
X146621476Y-81933609D02*
X146669095Y-81885990D01*
X146669095Y-81885990D02*
X146764333Y-81838371D01*
X146764333Y-81838371D02*
X147002428Y-81838371D01*
X147002428Y-81838371D02*
X147097666Y-81885990D01*
X147097666Y-81885990D02*
X147145285Y-81933609D01*
X147145285Y-81933609D02*
X147192904Y-82028847D01*
X147192904Y-82028847D02*
X147192904Y-82266942D01*
X147192904Y-82266942D02*
X147145285Y-82362180D01*
X147145285Y-82362180D02*
X147097666Y-82409800D01*
X147097666Y-82409800D02*
X147002428Y-82457419D01*
X147002428Y-82457419D02*
X146764333Y-82457419D01*
X146764333Y-82457419D02*
X146669095Y-82409800D01*
X146669095Y-82409800D02*
X146621476Y-82362180D01*
X172457419Y-86214285D02*
X171457419Y-86214285D01*
X171457419Y-86214285D02*
X171457419Y-85976190D01*
X171457419Y-85976190D02*
X171505038Y-85833333D01*
X171505038Y-85833333D02*
X171600276Y-85738095D01*
X171600276Y-85738095D02*
X171695514Y-85690476D01*
X171695514Y-85690476D02*
X171885990Y-85642857D01*
X171885990Y-85642857D02*
X172028847Y-85642857D01*
X172028847Y-85642857D02*
X172219323Y-85690476D01*
X172219323Y-85690476D02*
X172314561Y-85738095D01*
X172314561Y-85738095D02*
X172409800Y-85833333D01*
X172409800Y-85833333D02*
X172457419Y-85976190D01*
X172457419Y-85976190D02*
X172457419Y-86214285D01*
X171552657Y-85261904D02*
X171505038Y-85214285D01*
X171505038Y-85214285D02*
X171457419Y-85119047D01*
X171457419Y-85119047D02*
X171457419Y-84880952D01*
X171457419Y-84880952D02*
X171505038Y-84785714D01*
X171505038Y-84785714D02*
X171552657Y-84738095D01*
X171552657Y-84738095D02*
X171647895Y-84690476D01*
X171647895Y-84690476D02*
X171743133Y-84690476D01*
X171743133Y-84690476D02*
X171885990Y-84738095D01*
X171885990Y-84738095D02*
X172457419Y-85309523D01*
X172457419Y-85309523D02*
X172457419Y-84690476D01*
X171552657Y-84309523D02*
X171505038Y-84261904D01*
X171505038Y-84261904D02*
X171457419Y-84166666D01*
X171457419Y-84166666D02*
X171457419Y-83928571D01*
X171457419Y-83928571D02*
X171505038Y-83833333D01*
X171505038Y-83833333D02*
X171552657Y-83785714D01*
X171552657Y-83785714D02*
X171647895Y-83738095D01*
X171647895Y-83738095D02*
X171743133Y-83738095D01*
X171743133Y-83738095D02*
X171885990Y-83785714D01*
X171885990Y-83785714D02*
X172457419Y-84357142D01*
X172457419Y-84357142D02*
X172457419Y-83738095D01*
X112089905Y-88457419D02*
X112089905Y-87457419D01*
X112089905Y-87457419D02*
X112328000Y-87457419D01*
X112328000Y-87457419D02*
X112470857Y-87505038D01*
X112470857Y-87505038D02*
X112566095Y-87600276D01*
X112566095Y-87600276D02*
X112613714Y-87695514D01*
X112613714Y-87695514D02*
X112661333Y-87885990D01*
X112661333Y-87885990D02*
X112661333Y-88028847D01*
X112661333Y-88028847D02*
X112613714Y-88219323D01*
X112613714Y-88219323D02*
X112566095Y-88314561D01*
X112566095Y-88314561D02*
X112470857Y-88409800D01*
X112470857Y-88409800D02*
X112328000Y-88457419D01*
X112328000Y-88457419D02*
X112089905Y-88457419D01*
X112994667Y-87457419D02*
X113661333Y-87457419D01*
X113661333Y-87457419D02*
X113232762Y-88457419D01*
D13*
X85634819Y-85079166D02*
X85158628Y-85412499D01*
X85634819Y-85650594D02*
X84634819Y-85650594D01*
X84634819Y-85650594D02*
X84634819Y-85269642D01*
X84634819Y-85269642D02*
X84682438Y-85174404D01*
X84682438Y-85174404D02*
X84730057Y-85126785D01*
X84730057Y-85126785D02*
X84825295Y-85079166D01*
X84825295Y-85079166D02*
X84968152Y-85079166D01*
X84968152Y-85079166D02*
X85063390Y-85126785D01*
X85063390Y-85126785D02*
X85111009Y-85174404D01*
X85111009Y-85174404D02*
X85158628Y-85269642D01*
X85158628Y-85269642D02*
X85158628Y-85650594D01*
X85634819Y-84126785D02*
X85634819Y-84698213D01*
X85634819Y-84412499D02*
X84634819Y-84412499D01*
X84634819Y-84412499D02*
X84777676Y-84507737D01*
X84777676Y-84507737D02*
X84872914Y-84602975D01*
X84872914Y-84602975D02*
X84920533Y-84698213D01*
X140634819Y-79166666D02*
X140158628Y-79499999D01*
X140634819Y-79738094D02*
X139634819Y-79738094D01*
X139634819Y-79738094D02*
X139634819Y-79357142D01*
X139634819Y-79357142D02*
X139682438Y-79261904D01*
X139682438Y-79261904D02*
X139730057Y-79214285D01*
X139730057Y-79214285D02*
X139825295Y-79166666D01*
X139825295Y-79166666D02*
X139968152Y-79166666D01*
X139968152Y-79166666D02*
X140063390Y-79214285D01*
X140063390Y-79214285D02*
X140111009Y-79261904D01*
X140111009Y-79261904D02*
X140158628Y-79357142D01*
X140158628Y-79357142D02*
X140158628Y-79738094D01*
X139634819Y-78833332D02*
X139634819Y-78214285D01*
X139634819Y-78214285D02*
X140015771Y-78547618D01*
X140015771Y-78547618D02*
X140015771Y-78404761D01*
X140015771Y-78404761D02*
X140063390Y-78309523D01*
X140063390Y-78309523D02*
X140111009Y-78261904D01*
X140111009Y-78261904D02*
X140206247Y-78214285D01*
X140206247Y-78214285D02*
X140444342Y-78214285D01*
X140444342Y-78214285D02*
X140539580Y-78261904D01*
X140539580Y-78261904D02*
X140587200Y-78309523D01*
X140587200Y-78309523D02*
X140634819Y-78404761D01*
X140634819Y-78404761D02*
X140634819Y-78690475D01*
X140634819Y-78690475D02*
X140587200Y-78785713D01*
X140587200Y-78785713D02*
X140539580Y-78833332D01*
D12*
X166309271Y-79045587D02*
X166309271Y-78045587D01*
X166309271Y-78045587D02*
X166547366Y-78045587D01*
X166547366Y-78045587D02*
X166690223Y-78093206D01*
X166690223Y-78093206D02*
X166785461Y-78188444D01*
X166785461Y-78188444D02*
X166833080Y-78283682D01*
X166833080Y-78283682D02*
X166880699Y-78474158D01*
X166880699Y-78474158D02*
X166880699Y-78617015D01*
X166880699Y-78617015D02*
X166833080Y-78807491D01*
X166833080Y-78807491D02*
X166785461Y-78902729D01*
X166785461Y-78902729D02*
X166690223Y-78997968D01*
X166690223Y-78997968D02*
X166547366Y-79045587D01*
X166547366Y-79045587D02*
X166309271Y-79045587D01*
X167261652Y-78140825D02*
X167309271Y-78093206D01*
X167309271Y-78093206D02*
X167404509Y-78045587D01*
X167404509Y-78045587D02*
X167642604Y-78045587D01*
X167642604Y-78045587D02*
X167737842Y-78093206D01*
X167737842Y-78093206D02*
X167785461Y-78140825D01*
X167785461Y-78140825D02*
X167833080Y-78236063D01*
X167833080Y-78236063D02*
X167833080Y-78331301D01*
X167833080Y-78331301D02*
X167785461Y-78474158D01*
X167785461Y-78474158D02*
X167214033Y-79045587D01*
X167214033Y-79045587D02*
X167833080Y-79045587D01*
X168785461Y-79045587D02*
X168214033Y-79045587D01*
X168499747Y-79045587D02*
X168499747Y-78045587D01*
X168499747Y-78045587D02*
X168404509Y-78188444D01*
X168404509Y-78188444D02*
X168309271Y-78283682D01*
X168309271Y-78283682D02*
X168214033Y-78331301D01*
X198077735Y-87976935D02*
X198077735Y-86976935D01*
X198077735Y-86976935D02*
X198315830Y-86976935D01*
X198315830Y-86976935D02*
X198458687Y-87024554D01*
X198458687Y-87024554D02*
X198553925Y-87119792D01*
X198553925Y-87119792D02*
X198601544Y-87215030D01*
X198601544Y-87215030D02*
X198649163Y-87405506D01*
X198649163Y-87405506D02*
X198649163Y-87548363D01*
X198649163Y-87548363D02*
X198601544Y-87738839D01*
X198601544Y-87738839D02*
X198553925Y-87834077D01*
X198553925Y-87834077D02*
X198458687Y-87929316D01*
X198458687Y-87929316D02*
X198315830Y-87976935D01*
X198315830Y-87976935D02*
X198077735Y-87976935D01*
X199030116Y-87072173D02*
X199077735Y-87024554D01*
X199077735Y-87024554D02*
X199172973Y-86976935D01*
X199172973Y-86976935D02*
X199411068Y-86976935D01*
X199411068Y-86976935D02*
X199506306Y-87024554D01*
X199506306Y-87024554D02*
X199553925Y-87072173D01*
X199553925Y-87072173D02*
X199601544Y-87167411D01*
X199601544Y-87167411D02*
X199601544Y-87262649D01*
X199601544Y-87262649D02*
X199553925Y-87405506D01*
X199553925Y-87405506D02*
X198982497Y-87976935D01*
X198982497Y-87976935D02*
X199601544Y-87976935D01*
X200172973Y-87405506D02*
X200077735Y-87357887D01*
X200077735Y-87357887D02*
X200030116Y-87310268D01*
X200030116Y-87310268D02*
X199982497Y-87215030D01*
X199982497Y-87215030D02*
X199982497Y-87167411D01*
X199982497Y-87167411D02*
X200030116Y-87072173D01*
X200030116Y-87072173D02*
X200077735Y-87024554D01*
X200077735Y-87024554D02*
X200172973Y-86976935D01*
X200172973Y-86976935D02*
X200363449Y-86976935D01*
X200363449Y-86976935D02*
X200458687Y-87024554D01*
X200458687Y-87024554D02*
X200506306Y-87072173D01*
X200506306Y-87072173D02*
X200553925Y-87167411D01*
X200553925Y-87167411D02*
X200553925Y-87215030D01*
X200553925Y-87215030D02*
X200506306Y-87310268D01*
X200506306Y-87310268D02*
X200458687Y-87357887D01*
X200458687Y-87357887D02*
X200363449Y-87405506D01*
X200363449Y-87405506D02*
X200172973Y-87405506D01*
X200172973Y-87405506D02*
X200077735Y-87453125D01*
X200077735Y-87453125D02*
X200030116Y-87500744D01*
X200030116Y-87500744D02*
X199982497Y-87595982D01*
X199982497Y-87595982D02*
X199982497Y-87786458D01*
X199982497Y-87786458D02*
X200030116Y-87881696D01*
X200030116Y-87881696D02*
X200077735Y-87929316D01*
X200077735Y-87929316D02*
X200172973Y-87976935D01*
X200172973Y-87976935D02*
X200363449Y-87976935D01*
X200363449Y-87976935D02*
X200458687Y-87929316D01*
X200458687Y-87929316D02*
X200506306Y-87881696D01*
X200506306Y-87881696D02*
X200553925Y-87786458D01*
X200553925Y-87786458D02*
X200553925Y-87595982D01*
X200553925Y-87595982D02*
X200506306Y-87500744D01*
X200506306Y-87500744D02*
X200458687Y-87453125D01*
X200458687Y-87453125D02*
X200363449Y-87405506D01*
X165406714Y-88457419D02*
X165406714Y-87457419D01*
X165406714Y-87457419D02*
X165644809Y-87457419D01*
X165644809Y-87457419D02*
X165787666Y-87505038D01*
X165787666Y-87505038D02*
X165882904Y-87600276D01*
X165882904Y-87600276D02*
X165930523Y-87695514D01*
X165930523Y-87695514D02*
X165978142Y-87885990D01*
X165978142Y-87885990D02*
X165978142Y-88028847D01*
X165978142Y-88028847D02*
X165930523Y-88219323D01*
X165930523Y-88219323D02*
X165882904Y-88314561D01*
X165882904Y-88314561D02*
X165787666Y-88409800D01*
X165787666Y-88409800D02*
X165644809Y-88457419D01*
X165644809Y-88457419D02*
X165406714Y-88457419D01*
X166359095Y-87552657D02*
X166406714Y-87505038D01*
X166406714Y-87505038D02*
X166501952Y-87457419D01*
X166501952Y-87457419D02*
X166740047Y-87457419D01*
X166740047Y-87457419D02*
X166835285Y-87505038D01*
X166835285Y-87505038D02*
X166882904Y-87552657D01*
X166882904Y-87552657D02*
X166930523Y-87647895D01*
X166930523Y-87647895D02*
X166930523Y-87743133D01*
X166930523Y-87743133D02*
X166882904Y-87885990D01*
X166882904Y-87885990D02*
X166311476Y-88457419D01*
X166311476Y-88457419D02*
X166930523Y-88457419D01*
X167549571Y-87457419D02*
X167644809Y-87457419D01*
X167644809Y-87457419D02*
X167740047Y-87505038D01*
X167740047Y-87505038D02*
X167787666Y-87552657D01*
X167787666Y-87552657D02*
X167835285Y-87647895D01*
X167835285Y-87647895D02*
X167882904Y-87838371D01*
X167882904Y-87838371D02*
X167882904Y-88076466D01*
X167882904Y-88076466D02*
X167835285Y-88266942D01*
X167835285Y-88266942D02*
X167787666Y-88362180D01*
X167787666Y-88362180D02*
X167740047Y-88409800D01*
X167740047Y-88409800D02*
X167644809Y-88457419D01*
X167644809Y-88457419D02*
X167549571Y-88457419D01*
X167549571Y-88457419D02*
X167454333Y-88409800D01*
X167454333Y-88409800D02*
X167406714Y-88362180D01*
X167406714Y-88362180D02*
X167359095Y-88266942D01*
X167359095Y-88266942D02*
X167311476Y-88076466D01*
X167311476Y-88076466D02*
X167311476Y-87838371D01*
X167311476Y-87838371D02*
X167359095Y-87647895D01*
X167359095Y-87647895D02*
X167406714Y-87552657D01*
X167406714Y-87552657D02*
X167454333Y-87505038D01*
X167454333Y-87505038D02*
X167549571Y-87457419D01*
X190385714Y-77107419D02*
X190385714Y-76107419D01*
X190385714Y-76107419D02*
X190623809Y-76107419D01*
X190623809Y-76107419D02*
X190766666Y-76155038D01*
X190766666Y-76155038D02*
X190861904Y-76250276D01*
X190861904Y-76250276D02*
X190909523Y-76345514D01*
X190909523Y-76345514D02*
X190957142Y-76535990D01*
X190957142Y-76535990D02*
X190957142Y-76678847D01*
X190957142Y-76678847D02*
X190909523Y-76869323D01*
X190909523Y-76869323D02*
X190861904Y-76964561D01*
X190861904Y-76964561D02*
X190766666Y-77059800D01*
X190766666Y-77059800D02*
X190623809Y-77107419D01*
X190623809Y-77107419D02*
X190385714Y-77107419D01*
X191338095Y-76202657D02*
X191385714Y-76155038D01*
X191385714Y-76155038D02*
X191480952Y-76107419D01*
X191480952Y-76107419D02*
X191719047Y-76107419D01*
X191719047Y-76107419D02*
X191814285Y-76155038D01*
X191814285Y-76155038D02*
X191861904Y-76202657D01*
X191861904Y-76202657D02*
X191909523Y-76297895D01*
X191909523Y-76297895D02*
X191909523Y-76393133D01*
X191909523Y-76393133D02*
X191861904Y-76535990D01*
X191861904Y-76535990D02*
X191290476Y-77107419D01*
X191290476Y-77107419D02*
X191909523Y-77107419D01*
X192766666Y-76107419D02*
X192576190Y-76107419D01*
X192576190Y-76107419D02*
X192480952Y-76155038D01*
X192480952Y-76155038D02*
X192433333Y-76202657D01*
X192433333Y-76202657D02*
X192338095Y-76345514D01*
X192338095Y-76345514D02*
X192290476Y-76535990D01*
X192290476Y-76535990D02*
X192290476Y-76916942D01*
X192290476Y-76916942D02*
X192338095Y-77012180D01*
X192338095Y-77012180D02*
X192385714Y-77059800D01*
X192385714Y-77059800D02*
X192480952Y-77107419D01*
X192480952Y-77107419D02*
X192671428Y-77107419D01*
X192671428Y-77107419D02*
X192766666Y-77059800D01*
X192766666Y-77059800D02*
X192814285Y-77012180D01*
X192814285Y-77012180D02*
X192861904Y-76916942D01*
X192861904Y-76916942D02*
X192861904Y-76678847D01*
X192861904Y-76678847D02*
X192814285Y-76583609D01*
X192814285Y-76583609D02*
X192766666Y-76535990D01*
X192766666Y-76535990D02*
X192671428Y-76488371D01*
X192671428Y-76488371D02*
X192480952Y-76488371D01*
X192480952Y-76488371D02*
X192385714Y-76535990D01*
X192385714Y-76535990D02*
X192338095Y-76583609D01*
X192338095Y-76583609D02*
X192290476Y-76678847D01*
X152992714Y-82457419D02*
X152992714Y-81457419D01*
X152992714Y-81457419D02*
X153230809Y-81457419D01*
X153230809Y-81457419D02*
X153373666Y-81505038D01*
X153373666Y-81505038D02*
X153468904Y-81600276D01*
X153468904Y-81600276D02*
X153516523Y-81695514D01*
X153516523Y-81695514D02*
X153564142Y-81885990D01*
X153564142Y-81885990D02*
X153564142Y-82028847D01*
X153564142Y-82028847D02*
X153516523Y-82219323D01*
X153516523Y-82219323D02*
X153468904Y-82314561D01*
X153468904Y-82314561D02*
X153373666Y-82409800D01*
X153373666Y-82409800D02*
X153230809Y-82457419D01*
X153230809Y-82457419D02*
X152992714Y-82457419D01*
X154516523Y-82457419D02*
X153945095Y-82457419D01*
X154230809Y-82457419D02*
X154230809Y-81457419D01*
X154230809Y-81457419D02*
X154135571Y-81600276D01*
X154135571Y-81600276D02*
X154040333Y-81695514D01*
X154040333Y-81695514D02*
X153945095Y-81743133D01*
X154849857Y-81457419D02*
X155516523Y-81457419D01*
X155516523Y-81457419D02*
X155087952Y-82457419D01*
X101261905Y-88457419D02*
X101261905Y-87457419D01*
X101261905Y-87457419D02*
X101500000Y-87457419D01*
X101500000Y-87457419D02*
X101642857Y-87505038D01*
X101642857Y-87505038D02*
X101738095Y-87600276D01*
X101738095Y-87600276D02*
X101785714Y-87695514D01*
X101785714Y-87695514D02*
X101833333Y-87885990D01*
X101833333Y-87885990D02*
X101833333Y-88028847D01*
X101833333Y-88028847D02*
X101785714Y-88219323D01*
X101785714Y-88219323D02*
X101738095Y-88314561D01*
X101738095Y-88314561D02*
X101642857Y-88409800D01*
X101642857Y-88409800D02*
X101500000Y-88457419D01*
X101500000Y-88457419D02*
X101261905Y-88457419D01*
X102690476Y-87790752D02*
X102690476Y-88457419D01*
X102452381Y-87409800D02*
X102214286Y-88124085D01*
X102214286Y-88124085D02*
X102833333Y-88124085D01*
X198162527Y-91990388D02*
X198162527Y-90990388D01*
X198162527Y-90990388D02*
X198400622Y-90990388D01*
X198400622Y-90990388D02*
X198543479Y-91038007D01*
X198543479Y-91038007D02*
X198638717Y-91133245D01*
X198638717Y-91133245D02*
X198686336Y-91228483D01*
X198686336Y-91228483D02*
X198733955Y-91418959D01*
X198733955Y-91418959D02*
X198733955Y-91561816D01*
X198733955Y-91561816D02*
X198686336Y-91752292D01*
X198686336Y-91752292D02*
X198638717Y-91847530D01*
X198638717Y-91847530D02*
X198543479Y-91942769D01*
X198543479Y-91942769D02*
X198400622Y-91990388D01*
X198400622Y-91990388D02*
X198162527Y-91990388D01*
X199114908Y-91085626D02*
X199162527Y-91038007D01*
X199162527Y-91038007D02*
X199257765Y-90990388D01*
X199257765Y-90990388D02*
X199495860Y-90990388D01*
X199495860Y-90990388D02*
X199591098Y-91038007D01*
X199591098Y-91038007D02*
X199638717Y-91085626D01*
X199638717Y-91085626D02*
X199686336Y-91180864D01*
X199686336Y-91180864D02*
X199686336Y-91276102D01*
X199686336Y-91276102D02*
X199638717Y-91418959D01*
X199638717Y-91418959D02*
X199067289Y-91990388D01*
X199067289Y-91990388D02*
X199686336Y-91990388D01*
X200162527Y-91990388D02*
X200353003Y-91990388D01*
X200353003Y-91990388D02*
X200448241Y-91942769D01*
X200448241Y-91942769D02*
X200495860Y-91895149D01*
X200495860Y-91895149D02*
X200591098Y-91752292D01*
X200591098Y-91752292D02*
X200638717Y-91561816D01*
X200638717Y-91561816D02*
X200638717Y-91180864D01*
X200638717Y-91180864D02*
X200591098Y-91085626D01*
X200591098Y-91085626D02*
X200543479Y-91038007D01*
X200543479Y-91038007D02*
X200448241Y-90990388D01*
X200448241Y-90990388D02*
X200257765Y-90990388D01*
X200257765Y-90990388D02*
X200162527Y-91038007D01*
X200162527Y-91038007D02*
X200114908Y-91085626D01*
X200114908Y-91085626D02*
X200067289Y-91180864D01*
X200067289Y-91180864D02*
X200067289Y-91418959D01*
X200067289Y-91418959D02*
X200114908Y-91514197D01*
X200114908Y-91514197D02*
X200162527Y-91561816D01*
X200162527Y-91561816D02*
X200257765Y-91609435D01*
X200257765Y-91609435D02*
X200448241Y-91609435D01*
X200448241Y-91609435D02*
X200543479Y-91561816D01*
X200543479Y-91561816D02*
X200591098Y-91514197D01*
X200591098Y-91514197D02*
X200638717Y-91418959D01*
X91399905Y-88457419D02*
X91399905Y-87457419D01*
X91399905Y-87457419D02*
X91638000Y-87457419D01*
X91638000Y-87457419D02*
X91780857Y-87505038D01*
X91780857Y-87505038D02*
X91876095Y-87600276D01*
X91876095Y-87600276D02*
X91923714Y-87695514D01*
X91923714Y-87695514D02*
X91971333Y-87885990D01*
X91971333Y-87885990D02*
X91971333Y-88028847D01*
X91971333Y-88028847D02*
X91923714Y-88219323D01*
X91923714Y-88219323D02*
X91876095Y-88314561D01*
X91876095Y-88314561D02*
X91780857Y-88409800D01*
X91780857Y-88409800D02*
X91638000Y-88457419D01*
X91638000Y-88457419D02*
X91399905Y-88457419D01*
X92352286Y-87552657D02*
X92399905Y-87505038D01*
X92399905Y-87505038D02*
X92495143Y-87457419D01*
X92495143Y-87457419D02*
X92733238Y-87457419D01*
X92733238Y-87457419D02*
X92828476Y-87505038D01*
X92828476Y-87505038D02*
X92876095Y-87552657D01*
X92876095Y-87552657D02*
X92923714Y-87647895D01*
X92923714Y-87647895D02*
X92923714Y-87743133D01*
X92923714Y-87743133D02*
X92876095Y-87885990D01*
X92876095Y-87885990D02*
X92304667Y-88457419D01*
X92304667Y-88457419D02*
X92923714Y-88457419D01*
X95537905Y-82457419D02*
X95537905Y-81457419D01*
X95537905Y-81457419D02*
X95776000Y-81457419D01*
X95776000Y-81457419D02*
X95918857Y-81505038D01*
X95918857Y-81505038D02*
X96014095Y-81600276D01*
X96014095Y-81600276D02*
X96061714Y-81695514D01*
X96061714Y-81695514D02*
X96109333Y-81885990D01*
X96109333Y-81885990D02*
X96109333Y-82028847D01*
X96109333Y-82028847D02*
X96061714Y-82219323D01*
X96061714Y-82219323D02*
X96014095Y-82314561D01*
X96014095Y-82314561D02*
X95918857Y-82409800D01*
X95918857Y-82409800D02*
X95776000Y-82457419D01*
X95776000Y-82457419D02*
X95537905Y-82457419D01*
X96442667Y-81457419D02*
X97061714Y-81457419D01*
X97061714Y-81457419D02*
X96728381Y-81838371D01*
X96728381Y-81838371D02*
X96871238Y-81838371D01*
X96871238Y-81838371D02*
X96966476Y-81885990D01*
X96966476Y-81885990D02*
X97014095Y-81933609D01*
X97014095Y-81933609D02*
X97061714Y-82028847D01*
X97061714Y-82028847D02*
X97061714Y-82266942D01*
X97061714Y-82266942D02*
X97014095Y-82362180D01*
X97014095Y-82362180D02*
X96966476Y-82409800D01*
X96966476Y-82409800D02*
X96871238Y-82457419D01*
X96871238Y-82457419D02*
X96585524Y-82457419D01*
X96585524Y-82457419D02*
X96490286Y-82409800D01*
X96490286Y-82409800D02*
X96442667Y-82362180D01*
X136440714Y-82457419D02*
X136440714Y-81457419D01*
X136440714Y-81457419D02*
X136678809Y-81457419D01*
X136678809Y-81457419D02*
X136821666Y-81505038D01*
X136821666Y-81505038D02*
X136916904Y-81600276D01*
X136916904Y-81600276D02*
X136964523Y-81695514D01*
X136964523Y-81695514D02*
X137012142Y-81885990D01*
X137012142Y-81885990D02*
X137012142Y-82028847D01*
X137012142Y-82028847D02*
X136964523Y-82219323D01*
X136964523Y-82219323D02*
X136916904Y-82314561D01*
X136916904Y-82314561D02*
X136821666Y-82409800D01*
X136821666Y-82409800D02*
X136678809Y-82457419D01*
X136678809Y-82457419D02*
X136440714Y-82457419D01*
X137964523Y-82457419D02*
X137393095Y-82457419D01*
X137678809Y-82457419D02*
X137678809Y-81457419D01*
X137678809Y-81457419D02*
X137583571Y-81600276D01*
X137583571Y-81600276D02*
X137488333Y-81695514D01*
X137488333Y-81695514D02*
X137393095Y-81743133D01*
X138297857Y-81457419D02*
X138916904Y-81457419D01*
X138916904Y-81457419D02*
X138583571Y-81838371D01*
X138583571Y-81838371D02*
X138726428Y-81838371D01*
X138726428Y-81838371D02*
X138821666Y-81885990D01*
X138821666Y-81885990D02*
X138869285Y-81933609D01*
X138869285Y-81933609D02*
X138916904Y-82028847D01*
X138916904Y-82028847D02*
X138916904Y-82266942D01*
X138916904Y-82266942D02*
X138869285Y-82362180D01*
X138869285Y-82362180D02*
X138821666Y-82409800D01*
X138821666Y-82409800D02*
X138726428Y-82457419D01*
X138726428Y-82457419D02*
X138440714Y-82457419D01*
X138440714Y-82457419D02*
X138345476Y-82409800D01*
X138345476Y-82409800D02*
X138297857Y-82362180D01*
X157130714Y-88457419D02*
X157130714Y-87457419D01*
X157130714Y-87457419D02*
X157368809Y-87457419D01*
X157368809Y-87457419D02*
X157511666Y-87505038D01*
X157511666Y-87505038D02*
X157606904Y-87600276D01*
X157606904Y-87600276D02*
X157654523Y-87695514D01*
X157654523Y-87695514D02*
X157702142Y-87885990D01*
X157702142Y-87885990D02*
X157702142Y-88028847D01*
X157702142Y-88028847D02*
X157654523Y-88219323D01*
X157654523Y-88219323D02*
X157606904Y-88314561D01*
X157606904Y-88314561D02*
X157511666Y-88409800D01*
X157511666Y-88409800D02*
X157368809Y-88457419D01*
X157368809Y-88457419D02*
X157130714Y-88457419D01*
X158654523Y-88457419D02*
X158083095Y-88457419D01*
X158368809Y-88457419D02*
X158368809Y-87457419D01*
X158368809Y-87457419D02*
X158273571Y-87600276D01*
X158273571Y-87600276D02*
X158178333Y-87695514D01*
X158178333Y-87695514D02*
X158083095Y-87743133D01*
X159225952Y-87885990D02*
X159130714Y-87838371D01*
X159130714Y-87838371D02*
X159083095Y-87790752D01*
X159083095Y-87790752D02*
X159035476Y-87695514D01*
X159035476Y-87695514D02*
X159035476Y-87647895D01*
X159035476Y-87647895D02*
X159083095Y-87552657D01*
X159083095Y-87552657D02*
X159130714Y-87505038D01*
X159130714Y-87505038D02*
X159225952Y-87457419D01*
X159225952Y-87457419D02*
X159416428Y-87457419D01*
X159416428Y-87457419D02*
X159511666Y-87505038D01*
X159511666Y-87505038D02*
X159559285Y-87552657D01*
X159559285Y-87552657D02*
X159606904Y-87647895D01*
X159606904Y-87647895D02*
X159606904Y-87695514D01*
X159606904Y-87695514D02*
X159559285Y-87790752D01*
X159559285Y-87790752D02*
X159511666Y-87838371D01*
X159511666Y-87838371D02*
X159416428Y-87885990D01*
X159416428Y-87885990D02*
X159225952Y-87885990D01*
X159225952Y-87885990D02*
X159130714Y-87933609D01*
X159130714Y-87933609D02*
X159083095Y-87981228D01*
X159083095Y-87981228D02*
X159035476Y-88076466D01*
X159035476Y-88076466D02*
X159035476Y-88266942D01*
X159035476Y-88266942D02*
X159083095Y-88362180D01*
X159083095Y-88362180D02*
X159130714Y-88409800D01*
X159130714Y-88409800D02*
X159225952Y-88457419D01*
X159225952Y-88457419D02*
X159416428Y-88457419D01*
X159416428Y-88457419D02*
X159511666Y-88409800D01*
X159511666Y-88409800D02*
X159559285Y-88362180D01*
X159559285Y-88362180D02*
X159606904Y-88266942D01*
X159606904Y-88266942D02*
X159606904Y-88076466D01*
X159606904Y-88076466D02*
X159559285Y-87981228D01*
X159559285Y-87981228D02*
X159511666Y-87933609D01*
X159511666Y-87933609D02*
X159416428Y-87885990D01*
X177819714Y-89107419D02*
X177819714Y-88107419D01*
X177819714Y-88107419D02*
X178057809Y-88107419D01*
X178057809Y-88107419D02*
X178200666Y-88155038D01*
X178200666Y-88155038D02*
X178295904Y-88250276D01*
X178295904Y-88250276D02*
X178343523Y-88345514D01*
X178343523Y-88345514D02*
X178391142Y-88535990D01*
X178391142Y-88535990D02*
X178391142Y-88678847D01*
X178391142Y-88678847D02*
X178343523Y-88869323D01*
X178343523Y-88869323D02*
X178295904Y-88964561D01*
X178295904Y-88964561D02*
X178200666Y-89059800D01*
X178200666Y-89059800D02*
X178057809Y-89107419D01*
X178057809Y-89107419D02*
X177819714Y-89107419D01*
X178772095Y-88202657D02*
X178819714Y-88155038D01*
X178819714Y-88155038D02*
X178914952Y-88107419D01*
X178914952Y-88107419D02*
X179153047Y-88107419D01*
X179153047Y-88107419D02*
X179248285Y-88155038D01*
X179248285Y-88155038D02*
X179295904Y-88202657D01*
X179295904Y-88202657D02*
X179343523Y-88297895D01*
X179343523Y-88297895D02*
X179343523Y-88393133D01*
X179343523Y-88393133D02*
X179295904Y-88535990D01*
X179295904Y-88535990D02*
X178724476Y-89107419D01*
X178724476Y-89107419D02*
X179343523Y-89107419D01*
X179676857Y-88107419D02*
X180295904Y-88107419D01*
X180295904Y-88107419D02*
X179962571Y-88488371D01*
X179962571Y-88488371D02*
X180105428Y-88488371D01*
X180105428Y-88488371D02*
X180200666Y-88535990D01*
X180200666Y-88535990D02*
X180248285Y-88583609D01*
X180248285Y-88583609D02*
X180295904Y-88678847D01*
X180295904Y-88678847D02*
X180295904Y-88916942D01*
X180295904Y-88916942D02*
X180248285Y-89012180D01*
X180248285Y-89012180D02*
X180200666Y-89059800D01*
X180200666Y-89059800D02*
X180105428Y-89107419D01*
X180105428Y-89107419D02*
X179819714Y-89107419D01*
X179819714Y-89107419D02*
X179724476Y-89059800D01*
X179724476Y-89059800D02*
X179676857Y-89012180D01*
X210400734Y-92612191D02*
X210400734Y-91612191D01*
X210400734Y-91612191D02*
X210638829Y-91612191D01*
X210638829Y-91612191D02*
X210781686Y-91659810D01*
X210781686Y-91659810D02*
X210876924Y-91755048D01*
X210876924Y-91755048D02*
X210924543Y-91850286D01*
X210924543Y-91850286D02*
X210972162Y-92040762D01*
X210972162Y-92040762D02*
X210972162Y-92183619D01*
X210972162Y-92183619D02*
X210924543Y-92374095D01*
X210924543Y-92374095D02*
X210876924Y-92469333D01*
X210876924Y-92469333D02*
X210781686Y-92564572D01*
X210781686Y-92564572D02*
X210638829Y-92612191D01*
X210638829Y-92612191D02*
X210400734Y-92612191D01*
X211305496Y-91612191D02*
X211924543Y-91612191D01*
X211924543Y-91612191D02*
X211591210Y-91993143D01*
X211591210Y-91993143D02*
X211734067Y-91993143D01*
X211734067Y-91993143D02*
X211829305Y-92040762D01*
X211829305Y-92040762D02*
X211876924Y-92088381D01*
X211876924Y-92088381D02*
X211924543Y-92183619D01*
X211924543Y-92183619D02*
X211924543Y-92421714D01*
X211924543Y-92421714D02*
X211876924Y-92516952D01*
X211876924Y-92516952D02*
X211829305Y-92564572D01*
X211829305Y-92564572D02*
X211734067Y-92612191D01*
X211734067Y-92612191D02*
X211448353Y-92612191D01*
X211448353Y-92612191D02*
X211353115Y-92564572D01*
X211353115Y-92564572D02*
X211305496Y-92516952D01*
X212543591Y-91612191D02*
X212638829Y-91612191D01*
X212638829Y-91612191D02*
X212734067Y-91659810D01*
X212734067Y-91659810D02*
X212781686Y-91707429D01*
X212781686Y-91707429D02*
X212829305Y-91802667D01*
X212829305Y-91802667D02*
X212876924Y-91993143D01*
X212876924Y-91993143D02*
X212876924Y-92231238D01*
X212876924Y-92231238D02*
X212829305Y-92421714D01*
X212829305Y-92421714D02*
X212781686Y-92516952D01*
X212781686Y-92516952D02*
X212734067Y-92564572D01*
X212734067Y-92564572D02*
X212638829Y-92612191D01*
X212638829Y-92612191D02*
X212543591Y-92612191D01*
X212543591Y-92612191D02*
X212448353Y-92564572D01*
X212448353Y-92564572D02*
X212400734Y-92516952D01*
X212400734Y-92516952D02*
X212353115Y-92421714D01*
X212353115Y-92421714D02*
X212305496Y-92231238D01*
X212305496Y-92231238D02*
X212305496Y-91993143D01*
X212305496Y-91993143D02*
X212353115Y-91802667D01*
X212353115Y-91802667D02*
X212400734Y-91707429D01*
X212400734Y-91707429D02*
X212448353Y-91659810D01*
X212448353Y-91659810D02*
X212543591Y-91612191D01*
X117261905Y-88457419D02*
X117261905Y-87457419D01*
X117261905Y-87457419D02*
X117500000Y-87457419D01*
X117500000Y-87457419D02*
X117642857Y-87505038D01*
X117642857Y-87505038D02*
X117738095Y-87600276D01*
X117738095Y-87600276D02*
X117785714Y-87695514D01*
X117785714Y-87695514D02*
X117833333Y-87885990D01*
X117833333Y-87885990D02*
X117833333Y-88028847D01*
X117833333Y-88028847D02*
X117785714Y-88219323D01*
X117785714Y-88219323D02*
X117738095Y-88314561D01*
X117738095Y-88314561D02*
X117642857Y-88409800D01*
X117642857Y-88409800D02*
X117500000Y-88457419D01*
X117500000Y-88457419D02*
X117261905Y-88457419D01*
X118404762Y-87885990D02*
X118309524Y-87838371D01*
X118309524Y-87838371D02*
X118261905Y-87790752D01*
X118261905Y-87790752D02*
X118214286Y-87695514D01*
X118214286Y-87695514D02*
X118214286Y-87647895D01*
X118214286Y-87647895D02*
X118261905Y-87552657D01*
X118261905Y-87552657D02*
X118309524Y-87505038D01*
X118309524Y-87505038D02*
X118404762Y-87457419D01*
X118404762Y-87457419D02*
X118595238Y-87457419D01*
X118595238Y-87457419D02*
X118690476Y-87505038D01*
X118690476Y-87505038D02*
X118738095Y-87552657D01*
X118738095Y-87552657D02*
X118785714Y-87647895D01*
X118785714Y-87647895D02*
X118785714Y-87695514D01*
X118785714Y-87695514D02*
X118738095Y-87790752D01*
X118738095Y-87790752D02*
X118690476Y-87838371D01*
X118690476Y-87838371D02*
X118595238Y-87885990D01*
X118595238Y-87885990D02*
X118404762Y-87885990D01*
X118404762Y-87885990D02*
X118309524Y-87933609D01*
X118309524Y-87933609D02*
X118261905Y-87981228D01*
X118261905Y-87981228D02*
X118214286Y-88076466D01*
X118214286Y-88076466D02*
X118214286Y-88266942D01*
X118214286Y-88266942D02*
X118261905Y-88362180D01*
X118261905Y-88362180D02*
X118309524Y-88409800D01*
X118309524Y-88409800D02*
X118404762Y-88457419D01*
X118404762Y-88457419D02*
X118595238Y-88457419D01*
X118595238Y-88457419D02*
X118690476Y-88409800D01*
X118690476Y-88409800D02*
X118738095Y-88362180D01*
X118738095Y-88362180D02*
X118785714Y-88266942D01*
X118785714Y-88266942D02*
X118785714Y-88076466D01*
X118785714Y-88076466D02*
X118738095Y-87981228D01*
X118738095Y-87981228D02*
X118690476Y-87933609D01*
X118690476Y-87933609D02*
X118595238Y-87885990D01*
X193838172Y-87948671D02*
X193838172Y-86948671D01*
X193838172Y-86948671D02*
X194076267Y-86948671D01*
X194076267Y-86948671D02*
X194219124Y-86996290D01*
X194219124Y-86996290D02*
X194314362Y-87091528D01*
X194314362Y-87091528D02*
X194361981Y-87186766D01*
X194361981Y-87186766D02*
X194409600Y-87377242D01*
X194409600Y-87377242D02*
X194409600Y-87520099D01*
X194409600Y-87520099D02*
X194361981Y-87710575D01*
X194361981Y-87710575D02*
X194314362Y-87805813D01*
X194314362Y-87805813D02*
X194219124Y-87901052D01*
X194219124Y-87901052D02*
X194076267Y-87948671D01*
X194076267Y-87948671D02*
X193838172Y-87948671D01*
X194790553Y-87043909D02*
X194838172Y-86996290D01*
X194838172Y-86996290D02*
X194933410Y-86948671D01*
X194933410Y-86948671D02*
X195171505Y-86948671D01*
X195171505Y-86948671D02*
X195266743Y-86996290D01*
X195266743Y-86996290D02*
X195314362Y-87043909D01*
X195314362Y-87043909D02*
X195361981Y-87139147D01*
X195361981Y-87139147D02*
X195361981Y-87234385D01*
X195361981Y-87234385D02*
X195314362Y-87377242D01*
X195314362Y-87377242D02*
X194742934Y-87948671D01*
X194742934Y-87948671D02*
X195361981Y-87948671D01*
X195695315Y-86948671D02*
X196361981Y-86948671D01*
X196361981Y-86948671D02*
X195933410Y-87948671D01*
X182585714Y-89107419D02*
X182585714Y-88107419D01*
X182585714Y-88107419D02*
X182823809Y-88107419D01*
X182823809Y-88107419D02*
X182966666Y-88155038D01*
X182966666Y-88155038D02*
X183061904Y-88250276D01*
X183061904Y-88250276D02*
X183109523Y-88345514D01*
X183109523Y-88345514D02*
X183157142Y-88535990D01*
X183157142Y-88535990D02*
X183157142Y-88678847D01*
X183157142Y-88678847D02*
X183109523Y-88869323D01*
X183109523Y-88869323D02*
X183061904Y-88964561D01*
X183061904Y-88964561D02*
X182966666Y-89059800D01*
X182966666Y-89059800D02*
X182823809Y-89107419D01*
X182823809Y-89107419D02*
X182585714Y-89107419D01*
X183538095Y-88202657D02*
X183585714Y-88155038D01*
X183585714Y-88155038D02*
X183680952Y-88107419D01*
X183680952Y-88107419D02*
X183919047Y-88107419D01*
X183919047Y-88107419D02*
X184014285Y-88155038D01*
X184014285Y-88155038D02*
X184061904Y-88202657D01*
X184061904Y-88202657D02*
X184109523Y-88297895D01*
X184109523Y-88297895D02*
X184109523Y-88393133D01*
X184109523Y-88393133D02*
X184061904Y-88535990D01*
X184061904Y-88535990D02*
X183490476Y-89107419D01*
X183490476Y-89107419D02*
X184109523Y-89107419D01*
X184966666Y-88440752D02*
X184966666Y-89107419D01*
X184728571Y-88059800D02*
X184490476Y-88774085D01*
X184490476Y-88774085D02*
X185109523Y-88774085D01*
X124026714Y-88457419D02*
X124026714Y-87457419D01*
X124026714Y-87457419D02*
X124264809Y-87457419D01*
X124264809Y-87457419D02*
X124407666Y-87505038D01*
X124407666Y-87505038D02*
X124502904Y-87600276D01*
X124502904Y-87600276D02*
X124550523Y-87695514D01*
X124550523Y-87695514D02*
X124598142Y-87885990D01*
X124598142Y-87885990D02*
X124598142Y-88028847D01*
X124598142Y-88028847D02*
X124550523Y-88219323D01*
X124550523Y-88219323D02*
X124502904Y-88314561D01*
X124502904Y-88314561D02*
X124407666Y-88409800D01*
X124407666Y-88409800D02*
X124264809Y-88457419D01*
X124264809Y-88457419D02*
X124026714Y-88457419D01*
X125550523Y-88457419D02*
X124979095Y-88457419D01*
X125264809Y-88457419D02*
X125264809Y-87457419D01*
X125264809Y-87457419D02*
X125169571Y-87600276D01*
X125169571Y-87600276D02*
X125074333Y-87695514D01*
X125074333Y-87695514D02*
X124979095Y-87743133D01*
X126169571Y-87457419D02*
X126264809Y-87457419D01*
X126264809Y-87457419D02*
X126360047Y-87505038D01*
X126360047Y-87505038D02*
X126407666Y-87552657D01*
X126407666Y-87552657D02*
X126455285Y-87647895D01*
X126455285Y-87647895D02*
X126502904Y-87838371D01*
X126502904Y-87838371D02*
X126502904Y-88076466D01*
X126502904Y-88076466D02*
X126455285Y-88266942D01*
X126455285Y-88266942D02*
X126407666Y-88362180D01*
X126407666Y-88362180D02*
X126360047Y-88409800D01*
X126360047Y-88409800D02*
X126264809Y-88457419D01*
X126264809Y-88457419D02*
X126169571Y-88457419D01*
X126169571Y-88457419D02*
X126074333Y-88409800D01*
X126074333Y-88409800D02*
X126026714Y-88362180D01*
X126026714Y-88362180D02*
X125979095Y-88266942D01*
X125979095Y-88266942D02*
X125931476Y-88076466D01*
X125931476Y-88076466D02*
X125931476Y-87838371D01*
X125931476Y-87838371D02*
X125979095Y-87647895D01*
X125979095Y-87647895D02*
X126026714Y-87552657D01*
X126026714Y-87552657D02*
X126074333Y-87505038D01*
X126074333Y-87505038D02*
X126169571Y-87457419D01*
X161268714Y-88457419D02*
X161268714Y-87457419D01*
X161268714Y-87457419D02*
X161506809Y-87457419D01*
X161506809Y-87457419D02*
X161649666Y-87505038D01*
X161649666Y-87505038D02*
X161744904Y-87600276D01*
X161744904Y-87600276D02*
X161792523Y-87695514D01*
X161792523Y-87695514D02*
X161840142Y-87885990D01*
X161840142Y-87885990D02*
X161840142Y-88028847D01*
X161840142Y-88028847D02*
X161792523Y-88219323D01*
X161792523Y-88219323D02*
X161744904Y-88314561D01*
X161744904Y-88314561D02*
X161649666Y-88409800D01*
X161649666Y-88409800D02*
X161506809Y-88457419D01*
X161506809Y-88457419D02*
X161268714Y-88457419D01*
X162792523Y-88457419D02*
X162221095Y-88457419D01*
X162506809Y-88457419D02*
X162506809Y-87457419D01*
X162506809Y-87457419D02*
X162411571Y-87600276D01*
X162411571Y-87600276D02*
X162316333Y-87695514D01*
X162316333Y-87695514D02*
X162221095Y-87743133D01*
X163268714Y-88457419D02*
X163459190Y-88457419D01*
X163459190Y-88457419D02*
X163554428Y-88409800D01*
X163554428Y-88409800D02*
X163602047Y-88362180D01*
X163602047Y-88362180D02*
X163697285Y-88219323D01*
X163697285Y-88219323D02*
X163744904Y-88028847D01*
X163744904Y-88028847D02*
X163744904Y-87647895D01*
X163744904Y-87647895D02*
X163697285Y-87552657D01*
X163697285Y-87552657D02*
X163649666Y-87505038D01*
X163649666Y-87505038D02*
X163554428Y-87457419D01*
X163554428Y-87457419D02*
X163363952Y-87457419D01*
X163363952Y-87457419D02*
X163268714Y-87505038D01*
X163268714Y-87505038D02*
X163221095Y-87552657D01*
X163221095Y-87552657D02*
X163173476Y-87647895D01*
X163173476Y-87647895D02*
X163173476Y-87885990D01*
X163173476Y-87885990D02*
X163221095Y-87981228D01*
X163221095Y-87981228D02*
X163268714Y-88028847D01*
X163268714Y-88028847D02*
X163363952Y-88076466D01*
X163363952Y-88076466D02*
X163554428Y-88076466D01*
X163554428Y-88076466D02*
X163649666Y-88028847D01*
X163649666Y-88028847D02*
X163697285Y-87981228D01*
X163697285Y-87981228D02*
X163744904Y-87885990D01*
X185785714Y-77107419D02*
X185785714Y-76107419D01*
X185785714Y-76107419D02*
X186023809Y-76107419D01*
X186023809Y-76107419D02*
X186166666Y-76155038D01*
X186166666Y-76155038D02*
X186261904Y-76250276D01*
X186261904Y-76250276D02*
X186309523Y-76345514D01*
X186309523Y-76345514D02*
X186357142Y-76535990D01*
X186357142Y-76535990D02*
X186357142Y-76678847D01*
X186357142Y-76678847D02*
X186309523Y-76869323D01*
X186309523Y-76869323D02*
X186261904Y-76964561D01*
X186261904Y-76964561D02*
X186166666Y-77059800D01*
X186166666Y-77059800D02*
X186023809Y-77107419D01*
X186023809Y-77107419D02*
X185785714Y-77107419D01*
X186738095Y-76202657D02*
X186785714Y-76155038D01*
X186785714Y-76155038D02*
X186880952Y-76107419D01*
X186880952Y-76107419D02*
X187119047Y-76107419D01*
X187119047Y-76107419D02*
X187214285Y-76155038D01*
X187214285Y-76155038D02*
X187261904Y-76202657D01*
X187261904Y-76202657D02*
X187309523Y-76297895D01*
X187309523Y-76297895D02*
X187309523Y-76393133D01*
X187309523Y-76393133D02*
X187261904Y-76535990D01*
X187261904Y-76535990D02*
X186690476Y-77107419D01*
X186690476Y-77107419D02*
X187309523Y-77107419D01*
X188214285Y-76107419D02*
X187738095Y-76107419D01*
X187738095Y-76107419D02*
X187690476Y-76583609D01*
X187690476Y-76583609D02*
X187738095Y-76535990D01*
X187738095Y-76535990D02*
X187833333Y-76488371D01*
X187833333Y-76488371D02*
X188071428Y-76488371D01*
X188071428Y-76488371D02*
X188166666Y-76535990D01*
X188166666Y-76535990D02*
X188214285Y-76583609D01*
X188214285Y-76583609D02*
X188261904Y-76678847D01*
X188261904Y-76678847D02*
X188261904Y-76916942D01*
X188261904Y-76916942D02*
X188214285Y-77012180D01*
X188214285Y-77012180D02*
X188166666Y-77059800D01*
X188166666Y-77059800D02*
X188071428Y-77107419D01*
X188071428Y-77107419D02*
X187833333Y-77107419D01*
X187833333Y-77107419D02*
X187738095Y-77059800D01*
X187738095Y-77059800D02*
X187690476Y-77012180D01*
X135785714Y-93457419D02*
X135785714Y-92457419D01*
X135785714Y-92457419D02*
X136023809Y-92457419D01*
X136023809Y-92457419D02*
X136166666Y-92505038D01*
X136166666Y-92505038D02*
X136261904Y-92600276D01*
X136261904Y-92600276D02*
X136309523Y-92695514D01*
X136309523Y-92695514D02*
X136357142Y-92885990D01*
X136357142Y-92885990D02*
X136357142Y-93028847D01*
X136357142Y-93028847D02*
X136309523Y-93219323D01*
X136309523Y-93219323D02*
X136261904Y-93314561D01*
X136261904Y-93314561D02*
X136166666Y-93409800D01*
X136166666Y-93409800D02*
X136023809Y-93457419D01*
X136023809Y-93457419D02*
X135785714Y-93457419D01*
X137309523Y-93457419D02*
X136738095Y-93457419D01*
X137023809Y-93457419D02*
X137023809Y-92457419D01*
X137023809Y-92457419D02*
X136928571Y-92600276D01*
X136928571Y-92600276D02*
X136833333Y-92695514D01*
X136833333Y-92695514D02*
X136738095Y-92743133D01*
X137690476Y-92552657D02*
X137738095Y-92505038D01*
X137738095Y-92505038D02*
X137833333Y-92457419D01*
X137833333Y-92457419D02*
X138071428Y-92457419D01*
X138071428Y-92457419D02*
X138166666Y-92505038D01*
X138166666Y-92505038D02*
X138214285Y-92552657D01*
X138214285Y-92552657D02*
X138261904Y-92647895D01*
X138261904Y-92647895D02*
X138261904Y-92743133D01*
X138261904Y-92743133D02*
X138214285Y-92885990D01*
X138214285Y-92885990D02*
X137642857Y-93457419D01*
X137642857Y-93457419D02*
X138261904Y-93457419D01*
D13*
X177408810Y-80617393D02*
X176932619Y-80950726D01*
X177408810Y-81188821D02*
X176408810Y-81188821D01*
X176408810Y-81188821D02*
X176408810Y-80807869D01*
X176408810Y-80807869D02*
X176456429Y-80712631D01*
X176456429Y-80712631D02*
X176504048Y-80665012D01*
X176504048Y-80665012D02*
X176599286Y-80617393D01*
X176599286Y-80617393D02*
X176742143Y-80617393D01*
X176742143Y-80617393D02*
X176837381Y-80665012D01*
X176837381Y-80665012D02*
X176885000Y-80712631D01*
X176885000Y-80712631D02*
X176932619Y-80807869D01*
X176932619Y-80807869D02*
X176932619Y-81188821D01*
X176742143Y-79760250D02*
X177408810Y-79760250D01*
X176361191Y-79998345D02*
X177075476Y-80236440D01*
X177075476Y-80236440D02*
X177075476Y-79617393D01*
D12*
%TO.C,D6*%
X106990000Y-83050000D02*
X110190000Y-83050000D01*
X106990000Y-86950000D02*
X106990000Y-83050000D01*
X110190000Y-86950000D02*
X106990000Y-86950000D01*
%TO.C,D5*%
X102852000Y-77050000D02*
X106052000Y-77050000D01*
X102852000Y-80950000D02*
X102852000Y-77050000D01*
X106052000Y-80950000D02*
X102852000Y-80950000D01*
%TO.C,D9*%
X119403000Y-77050000D02*
X122603000Y-77050000D01*
X119403000Y-80950000D02*
X119403000Y-77050000D01*
X122603000Y-80950000D02*
X119403000Y-80950000D01*
D14*
%TO.C,R2*%
X110360436Y-90090000D02*
X111814564Y-90090000D01*
X110360436Y-91910000D02*
X111814564Y-91910000D01*
D12*
%TO.C,D16*%
X148369000Y-89050000D02*
X151569000Y-89050000D01*
X148369000Y-92950000D02*
X148369000Y-89050000D01*
X151569000Y-92950000D02*
X148369000Y-92950000D01*
%TO.C,D14*%
X140093000Y-83050000D02*
X143293000Y-83050000D01*
X140093000Y-86950000D02*
X140093000Y-83050000D01*
X143293000Y-86950000D02*
X140093000Y-86950000D01*
%TO.C,D11*%
X127679000Y-89050000D02*
X130879000Y-89050000D01*
X127679000Y-92950000D02*
X127679000Y-89050000D01*
X130879000Y-92950000D02*
X127679000Y-92950000D01*
%TO.C,D1*%
X86300000Y-77050000D02*
X89500000Y-77050000D01*
X86300000Y-80950000D02*
X86300000Y-77050000D01*
X89500000Y-80950000D02*
X86300000Y-80950000D01*
%TO.C,D15*%
X144231000Y-77050000D02*
X147431000Y-77050000D01*
X144231000Y-80950000D02*
X144231000Y-77050000D01*
X147431000Y-80950000D02*
X144231000Y-80950000D01*
%TO.C,D22*%
X173097000Y-83550000D02*
X173097000Y-83930000D01*
X173097000Y-83550000D02*
X176697000Y-83550000D01*
X173097000Y-83930000D02*
X173477000Y-83550000D01*
X173097000Y-86450000D02*
X173097000Y-86070000D01*
X176697000Y-83550000D02*
X176697000Y-83930000D01*
X176697000Y-86070000D02*
X176697000Y-86450000D01*
X176697000Y-86450000D02*
X173097000Y-86450000D01*
%TO.C,D7*%
X111128000Y-83050000D02*
X114328000Y-83050000D01*
X111128000Y-86950000D02*
X111128000Y-83050000D01*
X114328000Y-86950000D02*
X111128000Y-86950000D01*
D14*
%TO.C,R1*%
X86090000Y-85639564D02*
X86090000Y-84185436D01*
X87910000Y-85639564D02*
X87910000Y-84185436D01*
%TO.C,R3*%
X141090000Y-79727064D02*
X141090000Y-78272936D01*
X142910000Y-79727064D02*
X142910000Y-78272936D01*
D12*
%TO.C,D21*%
X169059000Y-77050000D02*
X172259000Y-77050000D01*
X169059000Y-80950000D02*
X169059000Y-77050000D01*
X172259000Y-80950000D02*
X169059000Y-80950000D01*
%TO.C,D28*%
X198000000Y-83550000D02*
X198000000Y-83930000D01*
X198000000Y-83550000D02*
X201600000Y-83550000D01*
X198000000Y-83930000D02*
X198380000Y-83550000D01*
X198000000Y-86450000D02*
X198000000Y-86070000D01*
X201600000Y-83550000D02*
X201600000Y-83930000D01*
X201600000Y-86070000D02*
X201600000Y-86450000D01*
X201600000Y-86450000D02*
X198000000Y-86450000D01*
%TO.C,D20*%
X164921000Y-89050000D02*
X168121000Y-89050000D01*
X164921000Y-92950000D02*
X164921000Y-89050000D01*
X168121000Y-92950000D02*
X164921000Y-92950000D01*
%TO.C,D26*%
X189800000Y-77550000D02*
X189800000Y-77930000D01*
X189800000Y-77550000D02*
X193400000Y-77550000D01*
X189800000Y-77930000D02*
X190180000Y-77550000D01*
X189800000Y-80450000D02*
X189800000Y-80070000D01*
X193400000Y-77550000D02*
X193400000Y-77930000D01*
X193400000Y-80070000D02*
X193400000Y-80450000D01*
X193400000Y-80450000D02*
X189800000Y-80450000D01*
%TO.C,D17*%
X152507000Y-77050000D02*
X155707000Y-77050000D01*
X152507000Y-80950000D02*
X152507000Y-77050000D01*
X155707000Y-80950000D02*
X152507000Y-80950000D01*
%TO.C,D4*%
X98714000Y-89050000D02*
X101914000Y-89050000D01*
X98714000Y-92950000D02*
X98714000Y-89050000D01*
X101914000Y-92950000D02*
X98714000Y-92950000D01*
%TO.C,D29*%
X201200000Y-89550000D02*
X201200000Y-89930000D01*
X201200000Y-89550000D02*
X204800000Y-89550000D01*
X201200000Y-89930000D02*
X201580000Y-89550000D01*
X201200000Y-92450000D02*
X201200000Y-92070000D01*
X204800000Y-89550000D02*
X204800000Y-89930000D01*
X204800000Y-92070000D02*
X204800000Y-92450000D01*
X204800000Y-92450000D02*
X201200000Y-92450000D01*
%TO.C,D2*%
X90438000Y-83050000D02*
X93638000Y-83050000D01*
X90438000Y-86950000D02*
X90438000Y-83050000D01*
X93638000Y-86950000D02*
X90438000Y-86950000D01*
%TO.C,D3*%
X94576000Y-77050000D02*
X97776000Y-77050000D01*
X94576000Y-80950000D02*
X94576000Y-77050000D01*
X97776000Y-80950000D02*
X94576000Y-80950000D01*
%TO.C,D13*%
X135955000Y-77050000D02*
X139155000Y-77050000D01*
X135955000Y-80950000D02*
X135955000Y-77050000D01*
X139155000Y-80950000D02*
X135955000Y-80950000D01*
%TO.C,D18*%
X156645000Y-83050000D02*
X159845000Y-83050000D01*
X156645000Y-86950000D02*
X156645000Y-83050000D01*
X159845000Y-86950000D02*
X156645000Y-86950000D01*
%TO.C,D23*%
X177234000Y-89550000D02*
X177234000Y-89930000D01*
X177234000Y-89550000D02*
X180834000Y-89550000D01*
X177234000Y-89930000D02*
X177614000Y-89550000D01*
X177234000Y-92450000D02*
X177234000Y-92070000D01*
X180834000Y-89550000D02*
X180834000Y-89930000D01*
X180834000Y-92070000D02*
X180834000Y-92450000D01*
X180834000Y-92450000D02*
X177234000Y-92450000D01*
%TO.C,D30*%
X206200000Y-89550000D02*
X206200000Y-89930000D01*
X206200000Y-89550000D02*
X209800000Y-89550000D01*
X206200000Y-89930000D02*
X206580000Y-89550000D01*
X206200000Y-92450000D02*
X206200000Y-92070000D01*
X209800000Y-89550000D02*
X209800000Y-89930000D01*
X209800000Y-92070000D02*
X209800000Y-92450000D01*
X209800000Y-92450000D02*
X206200000Y-92450000D01*
%TO.C,D8*%
X115266000Y-89050000D02*
X118466000Y-89050000D01*
X115266000Y-92950000D02*
X115266000Y-89050000D01*
X118466000Y-92950000D02*
X115266000Y-92950000D01*
%TO.C,D27*%
X193300000Y-83550000D02*
X193300000Y-83930000D01*
X193300000Y-83550000D02*
X196900000Y-83550000D01*
X193300000Y-83930000D02*
X193680000Y-83550000D01*
X193300000Y-86450000D02*
X193300000Y-86070000D01*
X196900000Y-83550000D02*
X196900000Y-83930000D01*
X196900000Y-86070000D02*
X196900000Y-86450000D01*
X196900000Y-86450000D02*
X193300000Y-86450000D01*
%TO.C,D24*%
X182000000Y-89550000D02*
X182000000Y-89930000D01*
X182000000Y-89550000D02*
X185600000Y-89550000D01*
X182000000Y-89930000D02*
X182380000Y-89550000D01*
X182000000Y-92450000D02*
X182000000Y-92070000D01*
X185600000Y-89550000D02*
X185600000Y-89930000D01*
X185600000Y-92070000D02*
X185600000Y-92450000D01*
X185600000Y-92450000D02*
X182000000Y-92450000D01*
%TO.C,D10*%
X123541000Y-83050000D02*
X126741000Y-83050000D01*
X123541000Y-86950000D02*
X123541000Y-83050000D01*
X126741000Y-86950000D02*
X123541000Y-86950000D01*
%TO.C,D19*%
X160783000Y-83050000D02*
X163983000Y-83050000D01*
X160783000Y-86950000D02*
X160783000Y-83050000D01*
X163983000Y-86950000D02*
X160783000Y-86950000D01*
%TO.C,D25*%
X185200000Y-77550000D02*
X185200000Y-77930000D01*
X185200000Y-77550000D02*
X188800000Y-77550000D01*
X185200000Y-77930000D02*
X185580000Y-77550000D01*
X185200000Y-80450000D02*
X185200000Y-80070000D01*
X188800000Y-77550000D02*
X188800000Y-77930000D01*
X188800000Y-80070000D02*
X188800000Y-80450000D01*
X188800000Y-80450000D02*
X185200000Y-80450000D01*
%TO.C,D12*%
X131817000Y-89050000D02*
X135017000Y-89050000D01*
X131817000Y-92950000D02*
X131817000Y-89050000D01*
X135017000Y-92950000D02*
X131817000Y-92950000D01*
D14*
%TO.C,R4*%
X174223991Y-79723663D02*
X174223991Y-81177791D01*
X176043991Y-79723663D02*
X176043991Y-81177791D01*
%TD*%
M02*
