%TF.GenerationSoftware,KiCad,Pcbnew,9.0.0*%
%TF.CreationDate,2025-04-18T15:29:53+00:00*%
%TF.ProjectId,growbeam,67726f77-6265-4616-9d2e-6b696361645f,rev?*%
%TF.SameCoordinates,Original*%
%TF.FileFunction,Other,User*%
%FSLAX46Y46*%
G04 Gerber Fmt 4.6, Leading zero omitted, Abs format (unit mm)*
G04 Created by KiCad (PCBNEW 9.0.0) date 2025-04-18 15:29:53*
%MOMM*%
%LPD*%
G01*
G04 APERTURE LIST*
%ADD10C,0.050000*%
G04 APERTURE END LIST*
D10*
%TO.C,REF\u002A\u002A*%
X83000000Y-85000000D02*
G75*
G02*
X77000000Y-85000000I-3000000J0D01*
G01*
X77000000Y-85000000D02*
G75*
G02*
X83000000Y-85000000I3000000J0D01*
G01*
%TO.C,R2*%
X108807500Y-89880000D02*
X113367500Y-89880000D01*
X108807500Y-92120000D02*
X108807500Y-89880000D01*
X113367500Y-89880000D02*
X113367500Y-92120000D01*
X113367500Y-92120000D02*
X108807500Y-92120000D01*
%TO.C,D22*%
X172897000Y-83350000D02*
X176897000Y-83350000D01*
X176897000Y-86650000D01*
X172897000Y-86650000D01*
X172897000Y-83350000D01*
%TO.C,R1*%
X85880000Y-82632500D02*
X88120000Y-82632500D01*
X85880000Y-87192500D02*
X85880000Y-82632500D01*
X88120000Y-82632500D02*
X88120000Y-87192500D01*
X88120000Y-87192500D02*
X85880000Y-87192500D01*
%TO.C,R3*%
X140880000Y-76720000D02*
X143120000Y-76720000D01*
X140880000Y-81280000D02*
X140880000Y-76720000D01*
X143120000Y-76720000D02*
X143120000Y-81280000D01*
X143120000Y-81280000D02*
X140880000Y-81280000D01*
%TO.C,D28*%
X197800000Y-83350000D02*
X201800000Y-83350000D01*
X201800000Y-86650000D01*
X197800000Y-86650000D01*
X197800000Y-83350000D01*
%TO.C,D26*%
X189600000Y-77350000D02*
X193600000Y-77350000D01*
X193600000Y-80650000D01*
X189600000Y-80650000D01*
X189600000Y-77350000D01*
%TO.C,D29*%
X201000000Y-89350000D02*
X205000000Y-89350000D01*
X205000000Y-92650000D01*
X201000000Y-92650000D01*
X201000000Y-89350000D01*
%TO.C,D23*%
X177034000Y-89350000D02*
X181034000Y-89350000D01*
X181034000Y-92650000D01*
X177034000Y-92650000D01*
X177034000Y-89350000D01*
%TO.C,REF\u002A\u002A*%
X219000000Y-85000000D02*
G75*
G02*
X213000000Y-85000000I-3000000J0D01*
G01*
X213000000Y-85000000D02*
G75*
G02*
X219000000Y-85000000I3000000J0D01*
G01*
%TO.C,D30*%
X206000000Y-89350000D02*
X210000000Y-89350000D01*
X210000000Y-92650000D01*
X206000000Y-92650000D01*
X206000000Y-89350000D01*
%TO.C,D27*%
X193100000Y-83350000D02*
X197100000Y-83350000D01*
X197100000Y-86650000D01*
X193100000Y-86650000D01*
X193100000Y-83350000D01*
%TO.C,D24*%
X181800000Y-89350000D02*
X185800000Y-89350000D01*
X185800000Y-92650000D01*
X181800000Y-92650000D01*
X181800000Y-89350000D01*
%TO.C,D25*%
X185000000Y-77350000D02*
X189000000Y-77350000D01*
X189000000Y-80650000D01*
X185000000Y-80650000D01*
X185000000Y-77350000D01*
%TO.C,R4*%
X174013991Y-78170727D02*
X176253991Y-78170727D01*
X174013991Y-82730727D02*
X174013991Y-78170727D01*
X176253991Y-78170727D02*
X176253991Y-82730727D01*
X176253991Y-82730727D02*
X174013991Y-82730727D01*
%TD*%
M02*
