%TF.GenerationSoftware,KiCad,Pcbnew,9.0.1-9.0.1-0~ubuntu24.04.1*%
%TF.CreationDate,2025-04-21T13:30:09+00:00*%
%TF.ProjectId,growbeam,67726f77-6265-4616-9d2e-6b696361645f,rev?*%
%TF.SameCoordinates,Original*%
%TF.FileFunction,Paste,Top*%
%TF.FilePolarity,Positive*%
%FSLAX46Y46*%
G04 Gerber Fmt 4.6, Leading zero omitted, Abs format (unit mm)*
G04 Created by KiCad (PCBNEW 9.0.1-9.0.1-0~ubuntu24.04.1) date 2025-04-21 13:30:09*
%MOMM*%
%LPD*%
G01*
G04 APERTURE LIST*
G04 Aperture macros list*
%AMRoundRect*
0 Rectangle with rounded corners*
0 $1 Rounding radius*
0 $2 $3 $4 $5 $6 $7 $8 $9 X,Y pos of 4 corners*
0 Add a 4 corners polygon primitive as box body*
4,1,4,$2,$3,$4,$5,$6,$7,$8,$9,$2,$3,0*
0 Add four circle primitives for the rounded corners*
1,1,$1+$1,$2,$3*
1,1,$1+$1,$4,$5*
1,1,$1+$1,$6,$7*
1,1,$1+$1,$8,$9*
0 Add four rect primitives between the rounded corners*
20,1,$1+$1,$2,$3,$4,$5,0*
20,1,$1+$1,$4,$5,$6,$7,0*
20,1,$1+$1,$6,$7,$8,$9,0*
20,1,$1+$1,$8,$9,$2,$3,0*%
%AMFreePoly0*
4,1,27,1.750191,0.625462,1.750462,0.625191,1.750500,0.625000,1.750500,0.075000,1.750462,0.074809,1.750191,0.074538,1.750000,0.074500,1.400500,0.074500,1.400500,-0.625000,1.400462,-0.625191,1.400191,-0.625462,1.400000,-0.625500,-1.400000,-0.625500,-1.400191,-0.625462,-1.400462,-0.625191,-1.400500,-0.625000,-1.400500,0.074500,-1.750000,0.074500,-1.750191,0.074538,-1.750462,0.074809,
-1.750500,0.075000,-1.750500,0.625000,-1.750462,0.625191,-1.750191,0.625462,-1.750000,0.625500,1.750000,0.625500,1.750191,0.625462,1.750191,0.625462,$1*%
G04 Aperture macros list end*
%ADD10FreePoly0,270.000000*%
%ADD11FreePoly0,90.000000*%
%ADD12RoundRect,0.250000X-0.312500X-0.625000X0.312500X-0.625000X0.312500X0.625000X-0.312500X0.625000X0*%
%ADD13RoundRect,0.100000X-0.385000X-0.850000X0.385000X-0.850000X0.385000X0.850000X-0.385000X0.850000X0*%
%ADD14RoundRect,0.100000X-0.915000X-0.850000X0.915000X-0.850000X0.915000X0.850000X-0.915000X0.850000X0*%
%ADD15RoundRect,0.250000X0.625000X-0.312500X0.625000X0.312500X-0.625000X0.312500X-0.625000X-0.312500X0*%
%ADD16RoundRect,0.250000X-0.625000X0.312500X-0.625000X-0.312500X0.625000X-0.312500X0.625000X0.312500X0*%
G04 APERTURE END LIST*
D10*
%TO.C,D6*%
X109465000Y-85000000D03*
D11*
X107915000Y-85000000D03*
%TD*%
D10*
%TO.C,D5*%
X105327000Y-79000000D03*
D11*
X103777000Y-79000000D03*
%TD*%
D10*
%TO.C,D9*%
X121878000Y-79000000D03*
D11*
X120328000Y-79000000D03*
%TD*%
D12*
%TO.C,R2*%
X109625000Y-91000000D03*
X112550000Y-91000000D03*
%TD*%
D10*
%TO.C,D16*%
X150844000Y-91000000D03*
D11*
X149294000Y-91000000D03*
%TD*%
D10*
%TO.C,D14*%
X142568000Y-85000000D03*
D11*
X141018000Y-85000000D03*
%TD*%
D10*
%TO.C,D11*%
X130154000Y-91000000D03*
D11*
X128604000Y-91000000D03*
%TD*%
D10*
%TO.C,D1*%
X88775000Y-79000000D03*
D11*
X87225000Y-79000000D03*
%TD*%
D10*
%TO.C,D15*%
X146706000Y-79000000D03*
D11*
X145156000Y-79000000D03*
%TD*%
D13*
%TO.C,D22*%
X176162000Y-85000000D03*
D14*
X174162000Y-85000000D03*
%TD*%
D10*
%TO.C,D7*%
X113603000Y-85000000D03*
D11*
X112053000Y-85000000D03*
%TD*%
D15*
%TO.C,R1*%
X87000000Y-86375000D03*
X87000000Y-83450000D03*
%TD*%
%TO.C,R3*%
X142000000Y-80462500D03*
X142000000Y-77537500D03*
%TD*%
D10*
%TO.C,D21*%
X171534000Y-79000000D03*
D11*
X169984000Y-79000000D03*
%TD*%
D13*
%TO.C,D28*%
X201065000Y-85000000D03*
D14*
X199065000Y-85000000D03*
%TD*%
D10*
%TO.C,D20*%
X167396000Y-91000000D03*
D11*
X165846000Y-91000000D03*
%TD*%
D13*
%TO.C,D26*%
X192865000Y-79000000D03*
D14*
X190865000Y-79000000D03*
%TD*%
D10*
%TO.C,D17*%
X154982000Y-79000000D03*
D11*
X153432000Y-79000000D03*
%TD*%
D10*
%TO.C,D4*%
X101189000Y-91000000D03*
D11*
X99639000Y-91000000D03*
%TD*%
D13*
%TO.C,D29*%
X204265000Y-91000000D03*
D14*
X202265000Y-91000000D03*
%TD*%
D10*
%TO.C,D2*%
X92913000Y-85000000D03*
D11*
X91363000Y-85000000D03*
%TD*%
D10*
%TO.C,D3*%
X97051000Y-79000000D03*
D11*
X95501000Y-79000000D03*
%TD*%
D10*
%TO.C,D13*%
X138430000Y-79000000D03*
D11*
X136880000Y-79000000D03*
%TD*%
D10*
%TO.C,D18*%
X159120000Y-85000000D03*
D11*
X157570000Y-85000000D03*
%TD*%
D13*
%TO.C,D23*%
X180299000Y-91000000D03*
D14*
X178299000Y-91000000D03*
%TD*%
D13*
%TO.C,D30*%
X209265000Y-91000000D03*
D14*
X207265000Y-91000000D03*
%TD*%
D10*
%TO.C,D8*%
X117741000Y-91000000D03*
D11*
X116191000Y-91000000D03*
%TD*%
D13*
%TO.C,D27*%
X196365000Y-85000000D03*
D14*
X194365000Y-85000000D03*
%TD*%
D13*
%TO.C,D24*%
X185065000Y-91000000D03*
D14*
X183065000Y-91000000D03*
%TD*%
D10*
%TO.C,D10*%
X126016000Y-85000000D03*
D11*
X124466000Y-85000000D03*
%TD*%
D10*
%TO.C,D19*%
X163258000Y-85000000D03*
D11*
X161708000Y-85000000D03*
%TD*%
D13*
%TO.C,D25*%
X188265000Y-79000000D03*
D14*
X186265000Y-79000000D03*
%TD*%
D10*
%TO.C,D12*%
X134292000Y-91000000D03*
D11*
X132742000Y-91000000D03*
%TD*%
D16*
%TO.C,R4*%
X175133991Y-78988227D03*
X175133991Y-81913227D03*
%TD*%
M02*
